<mxfile host="app.diagrams.net" modified="2021-09-03T11:13:13.365Z" agent="5.0 (Macintosh; Intel Mac OS X 10_15_7) AppleWebKit/537.36 (KHTML, like Gecko) Chrome/92.0.4515.159 Safari/537.36" etag="2nT3ILlYB7M4SLFbD0lq" version="14.9.8" type="github" pages="3">
  <diagram id="yPxyJZ8AM_hMuL3Unpa9" name="current-architecture">
    <mxGraphModel dx="2430" dy="942" grid="1" gridSize="10" guides="1" tooltips="1" connect="1" arrows="1" fold="1" page="1" pageScale="1" pageWidth="850" pageHeight="1100" math="0" shadow="0">
      <root>
        <mxCell id="0" />
        <mxCell id="1" parent="0" />
        <mxCell id="XmYnf2hd-i7tS0sABOMN-187" value="" style="group;rounded=1;" vertex="1" connectable="0" parent="1">
          <mxGeometry x="470" y="60" width="170" height="80" as="geometry" />
        </mxCell>
        <mxCell id="XmYnf2hd-i7tS0sABOMN-183" value="" style="whiteSpace=wrap;html=1;fillColor=#dae8fc;strokeColor=#6c8ebf;rounded=1;" vertex="1" parent="XmYnf2hd-i7tS0sABOMN-187">
          <mxGeometry x="20" y="20" width="150" height="60" as="geometry" />
        </mxCell>
        <mxCell id="XmYnf2hd-i7tS0sABOMN-181" value="" style="html=1;dashed=0;whitespace=wrap;fillColor=#2875E2;strokeColor=#ffffff;points=[[0.005,0.63,0],[0.1,0.2,0],[0.9,0.2,0],[0.5,0,0],[0.995,0.63,0],[0.72,0.99,0],[0.5,1,0],[0.28,0.99,0]];shape=mxgraph.kubernetes.icon;prIcon=pod;rounded=1;" vertex="1" parent="XmYnf2hd-i7tS0sABOMN-187">
          <mxGeometry width="50" height="48" as="geometry" />
        </mxCell>
        <mxCell id="XmYnf2hd-i7tS0sABOMN-186" value="&lt;div style=&quot;font-size: 14px;&quot;&gt;&lt;b style=&quot;font-size: 14px;&quot;&gt;Frontend service&lt;/b&gt;&lt;/div&gt;" style="text;html=1;strokeColor=none;fillColor=none;align=center;verticalAlign=middle;whiteSpace=wrap;fontSize=14;rounded=1;" vertex="1" parent="XmYnf2hd-i7tS0sABOMN-187">
          <mxGeometry x="25" y="30" width="140" height="40" as="geometry" />
        </mxCell>
        <mxCell id="XmYnf2hd-i7tS0sABOMN-188" value="" style="group;rounded=1;" vertex="1" connectable="0" parent="1">
          <mxGeometry x="90" y="220" width="170" height="80" as="geometry" />
        </mxCell>
        <mxCell id="XmYnf2hd-i7tS0sABOMN-189" value="" style="whiteSpace=wrap;html=1;fillColor=#dae8fc;strokeColor=#6c8ebf;rounded=1;" vertex="1" parent="XmYnf2hd-i7tS0sABOMN-188">
          <mxGeometry x="20" y="20" width="150" height="60" as="geometry" />
        </mxCell>
        <mxCell id="XmYnf2hd-i7tS0sABOMN-190" value="" style="html=1;dashed=0;whitespace=wrap;fillColor=#2875E2;strokeColor=#ffffff;points=[[0.005,0.63,0],[0.1,0.2,0],[0.9,0.2,0],[0.5,0,0],[0.995,0.63,0],[0.72,0.99,0],[0.5,1,0],[0.28,0.99,0]];shape=mxgraph.kubernetes.icon;prIcon=pod;rounded=1;" vertex="1" parent="XmYnf2hd-i7tS0sABOMN-188">
          <mxGeometry width="50" height="48" as="geometry" />
        </mxCell>
        <mxCell id="XmYnf2hd-i7tS0sABOMN-191" value="&lt;div style=&quot;font-size: 14px&quot;&gt;&lt;b style=&quot;font-size: 14px&quot;&gt;Outcode service&lt;/b&gt;&lt;/div&gt;" style="text;html=1;strokeColor=none;fillColor=none;align=center;verticalAlign=middle;whiteSpace=wrap;fontSize=14;rounded=1;" vertex="1" parent="XmYnf2hd-i7tS0sABOMN-188">
          <mxGeometry x="25" y="30" width="140" height="40" as="geometry" />
        </mxCell>
        <mxCell id="XmYnf2hd-i7tS0sABOMN-331" value="" style="html=1;aspect=fixed;strokeColor=none;shadow=0;align=center;verticalAlign=top;fillColor=#3B8DF1;shape=mxgraph.gcp2.cloud_monitoring;fontSize=14;fontColor=#000000;rounded=1;" vertex="1" parent="XmYnf2hd-i7tS0sABOMN-188">
          <mxGeometry x="150" y="60" width="18" height="20" as="geometry" />
        </mxCell>
        <mxCell id="XmYnf2hd-i7tS0sABOMN-192" value="" style="group;rounded=1;" vertex="1" connectable="0" parent="1">
          <mxGeometry x="280" y="220" width="170" height="80" as="geometry" />
        </mxCell>
        <mxCell id="XmYnf2hd-i7tS0sABOMN-193" value="" style="whiteSpace=wrap;html=1;fillColor=#dae8fc;strokeColor=#6c8ebf;rounded=1;" vertex="1" parent="XmYnf2hd-i7tS0sABOMN-192">
          <mxGeometry x="20" y="20" width="150" height="60" as="geometry" />
        </mxCell>
        <mxCell id="XmYnf2hd-i7tS0sABOMN-194" value="" style="html=1;dashed=0;whitespace=wrap;fillColor=#2875E2;strokeColor=#ffffff;points=[[0.005,0.63,0],[0.1,0.2,0],[0.9,0.2,0],[0.5,0,0],[0.995,0.63,0],[0.72,0.99,0],[0.5,1,0],[0.28,0.99,0]];shape=mxgraph.kubernetes.icon;prIcon=pod;rounded=1;" vertex="1" parent="XmYnf2hd-i7tS0sABOMN-192">
          <mxGeometry width="50" height="48" as="geometry" />
        </mxCell>
        <mxCell id="XmYnf2hd-i7tS0sABOMN-195" value="&lt;div style=&quot;font-size: 14px&quot;&gt;&lt;b style=&quot;font-size: 14px&quot;&gt;Demand service&lt;/b&gt;&lt;/div&gt;" style="text;html=1;strokeColor=none;fillColor=none;align=center;verticalAlign=middle;whiteSpace=wrap;fontSize=14;rounded=1;" vertex="1" parent="XmYnf2hd-i7tS0sABOMN-192">
          <mxGeometry x="25" y="30" width="140" height="40" as="geometry" />
        </mxCell>
        <mxCell id="XmYnf2hd-i7tS0sABOMN-196" value="" style="group;rounded=1;" vertex="1" connectable="0" parent="1">
          <mxGeometry x="470" y="220" width="170" height="80" as="geometry" />
        </mxCell>
        <mxCell id="XmYnf2hd-i7tS0sABOMN-197" value="" style="whiteSpace=wrap;html=1;fillColor=#dae8fc;strokeColor=#6c8ebf;rounded=1;" vertex="1" parent="XmYnf2hd-i7tS0sABOMN-196">
          <mxGeometry x="20" y="20" width="150" height="60" as="geometry" />
        </mxCell>
        <mxCell id="XmYnf2hd-i7tS0sABOMN-198" value="" style="html=1;dashed=0;whitespace=wrap;fillColor=#2875E2;strokeColor=#ffffff;points=[[0.005,0.63,0],[0.1,0.2,0],[0.9,0.2,0],[0.5,0,0],[0.995,0.63,0],[0.72,0.99,0],[0.5,1,0],[0.28,0.99,0]];shape=mxgraph.kubernetes.icon;prIcon=pod;rounded=1;" vertex="1" parent="XmYnf2hd-i7tS0sABOMN-196">
          <mxGeometry width="50" height="48" as="geometry" />
        </mxCell>
        <mxCell id="XmYnf2hd-i7tS0sABOMN-199" value="&lt;div style=&quot;font-size: 14px&quot;&gt;&lt;b style=&quot;font-size: 14px&quot;&gt;Growth&lt;/b&gt;&lt;b&gt;&amp;nbsp;service&lt;/b&gt;&lt;/div&gt;" style="text;html=1;strokeColor=none;fillColor=none;align=center;verticalAlign=middle;whiteSpace=wrap;fontSize=14;rounded=1;" vertex="1" parent="XmYnf2hd-i7tS0sABOMN-196">
          <mxGeometry x="25" y="30" width="140" height="40" as="geometry" />
        </mxCell>
        <mxCell id="XmYnf2hd-i7tS0sABOMN-326" value="" style="html=1;aspect=fixed;strokeColor=none;shadow=0;align=center;verticalAlign=top;fillColor=#3B8DF1;shape=mxgraph.gcp2.cloud_monitoring;fontSize=14;fontColor=#000000;rounded=1;" vertex="1" parent="XmYnf2hd-i7tS0sABOMN-196">
          <mxGeometry x="150" y="60" width="18" height="20" as="geometry" />
        </mxCell>
        <mxCell id="XmYnf2hd-i7tS0sABOMN-200" value="" style="group;rounded=1;" vertex="1" connectable="0" parent="1">
          <mxGeometry x="660" y="220" width="170" height="80" as="geometry" />
        </mxCell>
        <mxCell id="XmYnf2hd-i7tS0sABOMN-201" value="" style="whiteSpace=wrap;html=1;fillColor=#dae8fc;strokeColor=#6c8ebf;rounded=1;" vertex="1" parent="XmYnf2hd-i7tS0sABOMN-200">
          <mxGeometry x="20" y="20" width="150" height="60" as="geometry" />
        </mxCell>
        <mxCell id="XmYnf2hd-i7tS0sABOMN-202" value="" style="html=1;dashed=0;whitespace=wrap;fillColor=#2875E2;strokeColor=#ffffff;points=[[0.005,0.63,0],[0.1,0.2,0],[0.9,0.2,0],[0.5,0,0],[0.995,0.63,0],[0.72,0.99,0],[0.5,1,0],[0.28,0.99,0]];shape=mxgraph.kubernetes.icon;prIcon=pod;rounded=1;" vertex="1" parent="XmYnf2hd-i7tS0sABOMN-200">
          <mxGeometry width="50" height="48" as="geometry" />
        </mxCell>
        <mxCell id="XmYnf2hd-i7tS0sABOMN-203" value="&lt;div style=&quot;font-size: 14px&quot;&gt;&lt;b style=&quot;font-size: 14px&quot;&gt;Transaction service&lt;/b&gt;&lt;/div&gt;" style="text;html=1;strokeColor=none;fillColor=none;align=center;verticalAlign=middle;whiteSpace=wrap;fontSize=14;rounded=1;" vertex="1" parent="XmYnf2hd-i7tS0sABOMN-200">
          <mxGeometry x="25" y="30" width="140" height="40" as="geometry" />
        </mxCell>
        <mxCell id="XmYnf2hd-i7tS0sABOMN-319" value="" style="html=1;aspect=fixed;strokeColor=none;shadow=0;align=center;verticalAlign=top;fillColor=#3B8DF1;shape=mxgraph.gcp2.cloud_monitoring;fontSize=14;fontColor=#000000;rounded=1;" vertex="1" parent="XmYnf2hd-i7tS0sABOMN-200">
          <mxGeometry x="150" y="60" width="18" height="20" as="geometry" />
        </mxCell>
        <mxCell id="XmYnf2hd-i7tS0sABOMN-204" value="" style="group;rounded=1;" vertex="1" connectable="0" parent="1">
          <mxGeometry x="550" y="657" width="170" height="80" as="geometry" />
        </mxCell>
        <mxCell id="XmYnf2hd-i7tS0sABOMN-205" value="" style="whiteSpace=wrap;html=1;fillColor=#dae8fc;strokeColor=#6c8ebf;rounded=1;" vertex="1" parent="XmYnf2hd-i7tS0sABOMN-204">
          <mxGeometry x="20" y="20" width="150" height="60" as="geometry" />
        </mxCell>
        <mxCell id="XmYnf2hd-i7tS0sABOMN-206" value="" style="html=1;dashed=0;whitespace=wrap;fillColor=#2875E2;strokeColor=#ffffff;points=[[0.005,0.63,0],[0.1,0.2,0],[0.9,0.2,0],[0.5,0,0],[0.995,0.63,0],[0.72,0.99,0],[0.5,1,0],[0.28,0.99,0]];shape=mxgraph.kubernetes.icon;prIcon=pod;rounded=1;" vertex="1" parent="XmYnf2hd-i7tS0sABOMN-204">
          <mxGeometry width="50" height="48" as="geometry" />
        </mxCell>
        <mxCell id="XmYnf2hd-i7tS0sABOMN-207" value="&lt;div style=&quot;font-size: 14px&quot;&gt;&lt;b style=&quot;font-size: 14px&quot;&gt;CRM service&lt;/b&gt;&lt;/div&gt;" style="text;html=1;strokeColor=none;fillColor=none;align=center;verticalAlign=middle;whiteSpace=wrap;fontSize=14;rounded=1;" vertex="1" parent="XmYnf2hd-i7tS0sABOMN-204">
          <mxGeometry x="25" y="30" width="140" height="40" as="geometry" />
        </mxCell>
        <mxCell id="XmYnf2hd-i7tS0sABOMN-208" value="" style="group;rounded=1;" vertex="1" connectable="0" parent="1">
          <mxGeometry x="550" y="500" width="170" height="80" as="geometry" />
        </mxCell>
        <mxCell id="XmYnf2hd-i7tS0sABOMN-209" value="" style="whiteSpace=wrap;html=1;fillColor=#dae8fc;strokeColor=#6c8ebf;rounded=1;" vertex="1" parent="XmYnf2hd-i7tS0sABOMN-208">
          <mxGeometry x="20" y="20" width="150" height="60" as="geometry" />
        </mxCell>
        <mxCell id="XmYnf2hd-i7tS0sABOMN-210" value="" style="html=1;dashed=0;whitespace=wrap;fillColor=#2875E2;strokeColor=#ffffff;points=[[0.005,0.63,0],[0.1,0.2,0],[0.9,0.2,0],[0.5,0,0],[0.995,0.63,0],[0.72,0.99,0],[0.5,1,0],[0.28,0.99,0]];shape=mxgraph.kubernetes.icon;prIcon=pod;rounded=1;" vertex="1" parent="XmYnf2hd-i7tS0sABOMN-208">
          <mxGeometry width="50" height="48" as="geometry" />
        </mxCell>
        <mxCell id="XmYnf2hd-i7tS0sABOMN-211" value="&lt;div style=&quot;font-size: 14px&quot;&gt;&lt;b style=&quot;font-size: 14px&quot;&gt;Email service&lt;/b&gt;&lt;/div&gt;" style="text;html=1;strokeColor=none;fillColor=none;align=center;verticalAlign=middle;whiteSpace=wrap;fontSize=14;rounded=1;" vertex="1" parent="XmYnf2hd-i7tS0sABOMN-208">
          <mxGeometry x="25" y="30" width="140" height="40" as="geometry" />
        </mxCell>
        <mxCell id="XmYnf2hd-i7tS0sABOMN-212" value="" style="group;rounded=1;" vertex="1" connectable="0" parent="1">
          <mxGeometry x="860" y="220" width="190" height="80" as="geometry" />
        </mxCell>
        <mxCell id="XmYnf2hd-i7tS0sABOMN-213" value="" style="whiteSpace=wrap;html=1;fillColor=#dae8fc;strokeColor=#6c8ebf;rounded=1;" vertex="1" parent="XmYnf2hd-i7tS0sABOMN-212">
          <mxGeometry x="20" y="20" width="150" height="60" as="geometry" />
        </mxCell>
        <mxCell id="XmYnf2hd-i7tS0sABOMN-214" value="" style="html=1;dashed=0;whitespace=wrap;fillColor=#2875E2;strokeColor=#ffffff;points=[[0.005,0.63,0],[0.1,0.2,0],[0.9,0.2,0],[0.5,0,0],[0.995,0.63,0],[0.72,0.99,0],[0.5,1,0],[0.28,0.99,0]];shape=mxgraph.kubernetes.icon;prIcon=pod;rounded=1;" vertex="1" parent="XmYnf2hd-i7tS0sABOMN-212">
          <mxGeometry width="50" height="48" as="geometry" />
        </mxCell>
        <mxCell id="XmYnf2hd-i7tS0sABOMN-215" value="&lt;div style=&quot;font-size: 14px&quot;&gt;&lt;b style=&quot;font-size: 14px&quot;&gt;Postcodes service&lt;/b&gt;&lt;/div&gt;" style="text;html=1;strokeColor=none;fillColor=none;align=center;verticalAlign=middle;whiteSpace=wrap;fontSize=14;rounded=1;" vertex="1" parent="XmYnf2hd-i7tS0sABOMN-212">
          <mxGeometry x="25" y="30" width="140" height="40" as="geometry" />
        </mxCell>
        <mxCell id="XmYnf2hd-i7tS0sABOMN-217" style="edgeStyle=orthogonalEdgeStyle;orthogonalLoop=1;jettySize=auto;html=1;entryX=0.5;entryY=0;entryDx=0;entryDy=0;fontSize=14;fontColor=#000000;horizontal=0;startArrow=classic;startFill=1;" edge="1" parent="1">
          <mxGeometry relative="1" as="geometry">
            <mxPoint x="565" y="140" as="sourcePoint" />
            <mxPoint x="190" y="240" as="targetPoint" />
            <Array as="points">
              <mxPoint x="565" y="140" />
              <mxPoint x="565" y="190" />
              <mxPoint x="190" y="190" />
            </Array>
          </mxGeometry>
        </mxCell>
        <mxCell id="XmYnf2hd-i7tS0sABOMN-218" style="edgeStyle=orthogonalEdgeStyle;orthogonalLoop=1;jettySize=auto;html=1;exitX=0.5;exitY=1;exitDx=0;exitDy=0;entryX=0.5;entryY=0;entryDx=0;entryDy=0;fontSize=14;fontColor=#000000;" edge="1" parent="1" source="XmYnf2hd-i7tS0sABOMN-183" target="XmYnf2hd-i7tS0sABOMN-193">
          <mxGeometry relative="1" as="geometry" />
        </mxCell>
        <mxCell id="XmYnf2hd-i7tS0sABOMN-219" style="edgeStyle=orthogonalEdgeStyle;orthogonalLoop=1;jettySize=auto;html=1;exitX=0.5;exitY=1;exitDx=0;exitDy=0;entryX=0.5;entryY=0;entryDx=0;entryDy=0;fontSize=14;fontColor=#000000;" edge="1" parent="1" source="XmYnf2hd-i7tS0sABOMN-183" target="XmYnf2hd-i7tS0sABOMN-197">
          <mxGeometry relative="1" as="geometry" />
        </mxCell>
        <mxCell id="XmYnf2hd-i7tS0sABOMN-220" style="edgeStyle=orthogonalEdgeStyle;orthogonalLoop=1;jettySize=auto;html=1;exitX=0.5;exitY=1;exitDx=0;exitDy=0;entryX=0.5;entryY=0;entryDx=0;entryDy=0;fontSize=14;fontColor=#000000;" edge="1" parent="1" source="XmYnf2hd-i7tS0sABOMN-183" target="XmYnf2hd-i7tS0sABOMN-201">
          <mxGeometry relative="1" as="geometry" />
        </mxCell>
        <mxCell id="XmYnf2hd-i7tS0sABOMN-225" style="edgeStyle=orthogonalEdgeStyle;orthogonalLoop=1;jettySize=auto;html=1;exitX=0.5;exitY=1;exitDx=0;exitDy=0;entryX=0.5;entryY=0;entryDx=0;entryDy=0;fontSize=14;fontColor=#000000;startArrow=classic;startFill=1;" edge="1" parent="1" source="XmYnf2hd-i7tS0sABOMN-189" target="XmYnf2hd-i7tS0sABOMN-293">
          <mxGeometry relative="1" as="geometry">
            <mxPoint x="185" y="340" as="targetPoint" />
          </mxGeometry>
        </mxCell>
        <mxCell id="XmYnf2hd-i7tS0sABOMN-230" value="" style="group;rounded=1;" vertex="1" connectable="0" parent="1">
          <mxGeometry x="220" y="500" width="170" height="80" as="geometry" />
        </mxCell>
        <mxCell id="XmYnf2hd-i7tS0sABOMN-231" value="" style="whiteSpace=wrap;html=1;fillColor=#dae8fc;strokeColor=#6c8ebf;rounded=1;" vertex="1" parent="XmYnf2hd-i7tS0sABOMN-230">
          <mxGeometry x="20" y="90" width="150" height="60" as="geometry" />
        </mxCell>
        <mxCell id="XmYnf2hd-i7tS0sABOMN-233" value="&lt;div style=&quot;font-size: 14px&quot;&gt;&lt;b style=&quot;font-size: 14px&quot;&gt;Enquiry service&lt;/b&gt;&lt;/div&gt;" style="text;html=1;strokeColor=none;fillColor=none;align=center;verticalAlign=middle;whiteSpace=wrap;fontSize=14;rounded=1;" vertex="1" parent="XmYnf2hd-i7tS0sABOMN-230">
          <mxGeometry x="25" y="100" width="140" height="40" as="geometry" />
        </mxCell>
        <mxCell id="XmYnf2hd-i7tS0sABOMN-235" style="edgeStyle=orthogonalEdgeStyle;orthogonalLoop=1;jettySize=auto;html=1;entryX=0;entryY=0.5;entryDx=0;entryDy=0;fontSize=14;fontColor=#000000;startArrow=none;startFill=0;strokeWidth=1;fillColor=#f8cecc;" edge="1" parent="1" target="XmYnf2hd-i7tS0sABOMN-231">
          <mxGeometry relative="1" as="geometry">
            <mxPoint x="490" y="110" as="sourcePoint" />
            <mxPoint x="120" y="550" as="targetPoint" />
            <Array as="points">
              <mxPoint x="-120" y="110" />
              <mxPoint x="-120" y="620" />
            </Array>
          </mxGeometry>
        </mxCell>
        <mxCell id="XmYnf2hd-i7tS0sABOMN-242" style="edgeStyle=orthogonalEdgeStyle;orthogonalLoop=1;jettySize=auto;html=1;exitX=1;exitY=0.5;exitDx=0;exitDy=0;exitPerimeter=0;fontSize=14;fontColor=#000000;startArrow=classic;startFill=1;endArrow=none;endFill=0;dashed=1;" edge="1" parent="1" source="XmYnf2hd-i7tS0sABOMN-239">
          <mxGeometry relative="1" as="geometry">
            <mxPoint x="570" y="550" as="targetPoint" />
          </mxGeometry>
        </mxCell>
        <mxCell id="XmYnf2hd-i7tS0sABOMN-239" value="" style="verticalLabelPosition=bottom;html=1;verticalAlign=top;align=center;strokeColor=none;shape=mxgraph.azure.storage_queue;fontSize=14;fontColor=#000000;fillColor=#2875E2;rounded=1;" vertex="1" parent="1">
          <mxGeometry x="460" y="527.5" width="50" height="45" as="geometry" />
        </mxCell>
        <mxCell id="XmYnf2hd-i7tS0sABOMN-240" value="" style="verticalLabelPosition=bottom;html=1;verticalAlign=top;align=center;strokeColor=none;shape=mxgraph.azure.storage_queue;fontSize=14;fontColor=#000000;fillColor=#2875E2;rounded=1;" vertex="1" parent="1">
          <mxGeometry x="460" y="685" width="50" height="45" as="geometry" />
        </mxCell>
        <mxCell id="XmYnf2hd-i7tS0sABOMN-244" style="edgeStyle=orthogonalEdgeStyle;orthogonalLoop=1;jettySize=auto;html=1;entryX=0;entryY=0.5;entryDx=0;entryDy=0;entryPerimeter=0;fontSize=14;fontColor=#000000;startArrow=none;startFill=0;endArrow=classic;endFill=1;" edge="1" parent="1" target="XmYnf2hd-i7tS0sABOMN-239">
          <mxGeometry relative="1" as="geometry">
            <mxPoint x="390" y="610" as="sourcePoint" />
          </mxGeometry>
        </mxCell>
        <mxCell id="XmYnf2hd-i7tS0sABOMN-246" style="edgeStyle=orthogonalEdgeStyle;orthogonalLoop=1;jettySize=auto;html=1;exitX=0.5;exitY=1;exitDx=0;exitDy=0;entryX=0.5;entryY=0;entryDx=0;entryDy=0;fontSize=14;fontColor=#000000;" edge="1" parent="1" source="XmYnf2hd-i7tS0sABOMN-183" target="XmYnf2hd-i7tS0sABOMN-213">
          <mxGeometry relative="1" as="geometry">
            <mxPoint x="485" y="150" as="sourcePoint" />
            <mxPoint x="765" y="250" as="targetPoint" />
            <Array as="points">
              <mxPoint x="565" y="190" />
              <mxPoint x="955" y="190" />
            </Array>
          </mxGeometry>
        </mxCell>
        <mxCell id="XmYnf2hd-i7tS0sABOMN-252" value="" style="group;rounded=1;" vertex="1" connectable="0" parent="1">
          <mxGeometry x="1080" y="220" width="170" height="80" as="geometry" />
        </mxCell>
        <mxCell id="XmYnf2hd-i7tS0sABOMN-253" value="" style="whiteSpace=wrap;html=1;fillColor=#dae8fc;strokeColor=#6c8ebf;rounded=1;" vertex="1" parent="XmYnf2hd-i7tS0sABOMN-252">
          <mxGeometry x="20" y="20" width="150" height="60" as="geometry" />
        </mxCell>
        <mxCell id="XmYnf2hd-i7tS0sABOMN-254" value="" style="html=1;dashed=0;whitespace=wrap;fillColor=#2875E2;strokeColor=#ffffff;points=[[0.005,0.63,0],[0.1,0.2,0],[0.9,0.2,0],[0.5,0,0],[0.995,0.63,0],[0.72,0.99,0],[0.5,1,0],[0.28,0.99,0]];shape=mxgraph.kubernetes.icon;prIcon=pod;rounded=1;" vertex="1" parent="XmYnf2hd-i7tS0sABOMN-252">
          <mxGeometry width="50" height="48" as="geometry" />
        </mxCell>
        <mxCell id="XmYnf2hd-i7tS0sABOMN-255" value="&lt;div style=&quot;font-size: 14px&quot;&gt;&lt;b style=&quot;font-size: 14px&quot;&gt;Search service&lt;/b&gt;&lt;/div&gt;" style="text;html=1;strokeColor=none;fillColor=none;align=center;verticalAlign=middle;whiteSpace=wrap;fontSize=14;rounded=1;" vertex="1" parent="XmYnf2hd-i7tS0sABOMN-252">
          <mxGeometry x="25" y="30" width="140" height="40" as="geometry" />
        </mxCell>
        <mxCell id="XmYnf2hd-i7tS0sABOMN-332" value="" style="html=1;aspect=fixed;strokeColor=none;shadow=0;align=center;verticalAlign=top;fillColor=#3B8DF1;shape=mxgraph.gcp2.cloud_monitoring;fontSize=14;fontColor=#000000;rounded=1;" vertex="1" parent="XmYnf2hd-i7tS0sABOMN-252">
          <mxGeometry x="150" y="60" width="18" height="20" as="geometry" />
        </mxCell>
        <mxCell id="XmYnf2hd-i7tS0sABOMN-256" style="edgeStyle=orthogonalEdgeStyle;orthogonalLoop=1;jettySize=auto;html=1;entryX=0.5;entryY=0;entryDx=0;entryDy=0;fontSize=14;fontColor=#000000;" edge="1" parent="1">
          <mxGeometry relative="1" as="geometry">
            <mxPoint x="565" y="140" as="sourcePoint" />
            <mxPoint x="1180" y="240" as="targetPoint" />
            <Array as="points">
              <mxPoint x="565" y="150" />
              <mxPoint x="565" y="190" />
              <mxPoint x="1180" y="190" />
            </Array>
          </mxGeometry>
        </mxCell>
        <mxCell id="XmYnf2hd-i7tS0sABOMN-257" value="" style="edgeStyle=orthogonalEdgeStyle;orthogonalLoop=1;jettySize=auto;html=1;fontSize=14;fontColor=#000000;startArrow=classic;startFill=1;endArrow=classic;endFill=1;entryX=0.5;entryY=0;entryDx=0;entryDy=0;" edge="1" parent="1" target="XmYnf2hd-i7tS0sABOMN-315">
          <mxGeometry relative="1" as="geometry">
            <mxPoint x="1175" y="300" as="sourcePoint" />
          </mxGeometry>
        </mxCell>
        <mxCell id="XmYnf2hd-i7tS0sABOMN-259" value="" style="edgeStyle=orthogonalEdgeStyle;orthogonalLoop=1;jettySize=auto;html=1;fontSize=14;fontColor=#000000;startArrow=classic;startFill=1;endArrow=classic;endFill=1;entryX=0;entryY=0.5;entryDx=0;entryDy=0;" edge="1" parent="1" source="XmYnf2hd-i7tS0sABOMN-209" target="XmYnf2hd-i7tS0sABOMN-263">
          <mxGeometry relative="1" as="geometry" />
        </mxCell>
        <mxCell id="XmYnf2hd-i7tS0sABOMN-262" value="" style="group;rounded=1;" vertex="1" connectable="0" parent="1">
          <mxGeometry x="770" y="500" width="170" height="80" as="geometry" />
        </mxCell>
        <mxCell id="XmYnf2hd-i7tS0sABOMN-263" value="" style="whiteSpace=wrap;html=1;fillColor=#f8cecc;strokeColor=#b85450;rounded=1;" vertex="1" parent="XmYnf2hd-i7tS0sABOMN-262">
          <mxGeometry x="20" y="20" width="150" height="60" as="geometry" />
        </mxCell>
        <mxCell id="XmYnf2hd-i7tS0sABOMN-265" value="&lt;div style=&quot;font-size: 14px&quot;&gt;&lt;b style=&quot;font-size: 14px&quot;&gt;Sendgrid&amp;nbsp;&lt;/b&gt;&lt;/div&gt;" style="text;html=1;strokeColor=none;fillColor=none;align=center;verticalAlign=middle;whiteSpace=wrap;fontSize=14;rounded=1;" vertex="1" parent="XmYnf2hd-i7tS0sABOMN-262">
          <mxGeometry x="25" y="30" width="140" height="40" as="geometry" />
        </mxCell>
        <mxCell id="XmYnf2hd-i7tS0sABOMN-258" value="" style="html=1;dashed=0;whitespace=wrap;fillColor=#2875E2;strokeColor=#ffffff;points=[[0.005,0.63,0],[0.1,0.2,0],[0.9,0.2,0],[0.5,0,0],[0.995,0.63,0],[0.72,0.99,0],[0.5,1,0],[0.28,0.99,0]];shape=mxgraph.kubernetes.icon;prIcon=api;fontSize=14;fontColor=#000000;rounded=1;" vertex="1" parent="XmYnf2hd-i7tS0sABOMN-262">
          <mxGeometry width="50" height="48" as="geometry" />
        </mxCell>
        <mxCell id="XmYnf2hd-i7tS0sABOMN-266" value="" style="group;rounded=1;" vertex="1" connectable="0" parent="1">
          <mxGeometry x="770" y="657" width="170" height="80" as="geometry" />
        </mxCell>
        <mxCell id="XmYnf2hd-i7tS0sABOMN-267" value="" style="whiteSpace=wrap;html=1;fillColor=#f8cecc;strokeColor=#b85450;rounded=1;" vertex="1" parent="XmYnf2hd-i7tS0sABOMN-266">
          <mxGeometry x="20" y="20" width="150" height="60" as="geometry" />
        </mxCell>
        <mxCell id="XmYnf2hd-i7tS0sABOMN-268" value="&lt;div style=&quot;font-size: 14px&quot;&gt;&lt;b style=&quot;font-size: 14px&quot;&gt;Podio&lt;/b&gt;&lt;/div&gt;" style="text;html=1;strokeColor=none;fillColor=none;align=center;verticalAlign=middle;whiteSpace=wrap;fontSize=14;rounded=1;" vertex="1" parent="XmYnf2hd-i7tS0sABOMN-266">
          <mxGeometry x="25" y="30" width="140" height="40" as="geometry" />
        </mxCell>
        <mxCell id="XmYnf2hd-i7tS0sABOMN-269" value="" style="html=1;dashed=0;whitespace=wrap;fillColor=#2875E2;strokeColor=#ffffff;points=[[0.005,0.63,0],[0.1,0.2,0],[0.9,0.2,0],[0.5,0,0],[0.995,0.63,0],[0.72,0.99,0],[0.5,1,0],[0.28,0.99,0]];shape=mxgraph.kubernetes.icon;prIcon=api;fontSize=14;fontColor=#000000;rounded=1;" vertex="1" parent="XmYnf2hd-i7tS0sABOMN-266">
          <mxGeometry width="50" height="48" as="geometry" />
        </mxCell>
        <mxCell id="XmYnf2hd-i7tS0sABOMN-272" style="edgeStyle=orthogonalEdgeStyle;orthogonalLoop=1;jettySize=auto;html=1;exitX=1;exitY=0.5;exitDx=0;exitDy=0;entryX=0;entryY=0.5;entryDx=0;entryDy=0;fontSize=14;fontColor=#000000;startArrow=classic;startFill=1;endArrow=classic;endFill=1;" edge="1" parent="1" source="XmYnf2hd-i7tS0sABOMN-205" target="XmYnf2hd-i7tS0sABOMN-267">
          <mxGeometry relative="1" as="geometry" />
        </mxCell>
        <mxCell id="XmYnf2hd-i7tS0sABOMN-273" style="edgeStyle=orthogonalEdgeStyle;orthogonalLoop=1;jettySize=auto;html=1;exitX=1;exitY=0.75;exitDx=0;exitDy=0;entryX=0;entryY=0.5;entryDx=0;entryDy=0;entryPerimeter=0;fontSize=14;fontColor=#000000;startArrow=none;startFill=0;endArrow=classic;endFill=1;" edge="1" parent="1" source="XmYnf2hd-i7tS0sABOMN-231" target="XmYnf2hd-i7tS0sABOMN-240">
          <mxGeometry relative="1" as="geometry" />
        </mxCell>
        <mxCell id="XmYnf2hd-i7tS0sABOMN-274" value="" style="group;rounded=1;" vertex="1" connectable="0" parent="1">
          <mxGeometry x="730" y="60" width="170" height="80" as="geometry" />
        </mxCell>
        <mxCell id="XmYnf2hd-i7tS0sABOMN-275" value="" style="whiteSpace=wrap;html=1;fillColor=#f8cecc;strokeColor=#b85450;rounded=1;" vertex="1" parent="XmYnf2hd-i7tS0sABOMN-274">
          <mxGeometry x="20" y="20" width="150" height="60" as="geometry" />
        </mxCell>
        <mxCell id="XmYnf2hd-i7tS0sABOMN-276" value="&lt;div style=&quot;font-size: 14px&quot;&gt;&lt;b style=&quot;font-size: 14px&quot;&gt;Google Places&lt;/b&gt;&lt;/div&gt;" style="text;html=1;strokeColor=none;fillColor=none;align=center;verticalAlign=middle;whiteSpace=wrap;fontSize=14;rounded=1;" vertex="1" parent="XmYnf2hd-i7tS0sABOMN-274">
          <mxGeometry x="25" y="30" width="140" height="40" as="geometry" />
        </mxCell>
        <mxCell id="XmYnf2hd-i7tS0sABOMN-277" value="" style="html=1;dashed=0;whitespace=wrap;fillColor=#2875E2;strokeColor=#ffffff;points=[[0.005,0.63,0],[0.1,0.2,0],[0.9,0.2,0],[0.5,0,0],[0.995,0.63,0],[0.72,0.99,0],[0.5,1,0],[0.28,0.99,0]];shape=mxgraph.kubernetes.icon;prIcon=api;fontSize=14;fontColor=#000000;rounded=1;" vertex="1" parent="XmYnf2hd-i7tS0sABOMN-274">
          <mxGeometry width="50" height="48" as="geometry" />
        </mxCell>
        <mxCell id="XmYnf2hd-i7tS0sABOMN-279" style="edgeStyle=orthogonalEdgeStyle;orthogonalLoop=1;jettySize=auto;html=1;exitX=1;exitY=0.5;exitDx=0;exitDy=0;entryX=0;entryY=0.5;entryDx=0;entryDy=0;fontSize=14;fontColor=#000000;startArrow=classic;startFill=1;endArrow=classic;endFill=1;" edge="1" parent="1" source="XmYnf2hd-i7tS0sABOMN-183" target="XmYnf2hd-i7tS0sABOMN-275">
          <mxGeometry relative="1" as="geometry" />
        </mxCell>
        <mxCell id="XmYnf2hd-i7tS0sABOMN-280" value="" style="edgeStyle=orthogonalEdgeStyle;orthogonalLoop=1;jettySize=auto;html=1;fontSize=14;fontColor=#000000;startArrow=classic;startFill=1;endArrow=classic;endFill=1;" edge="1" parent="1" source="XmYnf2hd-i7tS0sABOMN-195" target="XmYnf2hd-i7tS0sABOMN-191">
          <mxGeometry relative="1" as="geometry" />
        </mxCell>
        <mxCell id="XmYnf2hd-i7tS0sABOMN-282" value="" style="group;rounded=1;" vertex="1" connectable="0" parent="1">
          <mxGeometry x="-100" y="220" width="170" height="80" as="geometry" />
        </mxCell>
        <mxCell id="XmYnf2hd-i7tS0sABOMN-283" value="" style="whiteSpace=wrap;html=1;fillColor=#dae8fc;strokeColor=#6c8ebf;rounded=1;" vertex="1" parent="XmYnf2hd-i7tS0sABOMN-282">
          <mxGeometry x="20" y="20" width="150" height="60" as="geometry" />
        </mxCell>
        <mxCell id="XmYnf2hd-i7tS0sABOMN-284" value="" style="html=1;dashed=0;whitespace=wrap;fillColor=#2875E2;strokeColor=#ffffff;points=[[0.005,0.63,0],[0.1,0.2,0],[0.9,0.2,0],[0.5,0,0],[0.995,0.63,0],[0.72,0.99,0],[0.5,1,0],[0.28,0.99,0]];shape=mxgraph.kubernetes.icon;prIcon=pod;rounded=1;" vertex="1" parent="XmYnf2hd-i7tS0sABOMN-282">
          <mxGeometry width="50" height="48" as="geometry" />
        </mxCell>
        <mxCell id="XmYnf2hd-i7tS0sABOMN-285" value="&lt;div style=&quot;font-size: 14px&quot;&gt;&lt;b style=&quot;font-size: 14px&quot;&gt;Yield service&lt;/b&gt;&lt;/div&gt;" style="text;html=1;strokeColor=none;fillColor=none;align=center;verticalAlign=middle;whiteSpace=wrap;fontSize=14;rounded=1;" vertex="1" parent="XmYnf2hd-i7tS0sABOMN-282">
          <mxGeometry x="25" y="30" width="140" height="40" as="geometry" />
        </mxCell>
        <mxCell id="XmYnf2hd-i7tS0sABOMN-328" value="" style="html=1;aspect=fixed;strokeColor=none;shadow=0;align=center;verticalAlign=top;fillColor=#3B8DF1;shape=mxgraph.gcp2.cloud_monitoring;fontSize=14;fontColor=#000000;rounded=1;" vertex="1" parent="XmYnf2hd-i7tS0sABOMN-282">
          <mxGeometry x="150" y="60" width="18" height="20" as="geometry" />
        </mxCell>
        <mxCell id="XmYnf2hd-i7tS0sABOMN-286" style="edgeStyle=orthogonalEdgeStyle;orthogonalLoop=1;jettySize=auto;html=1;entryX=0.5;entryY=0;entryDx=0;entryDy=0;fontSize=14;fontColor=#000000;horizontal=0;startArrow=classic;startFill=1;exitX=0.5;exitY=1;exitDx=0;exitDy=0;" edge="1" parent="1" source="XmYnf2hd-i7tS0sABOMN-183" target="XmYnf2hd-i7tS0sABOMN-283">
          <mxGeometry relative="1" as="geometry">
            <mxPoint x="575" y="150" as="sourcePoint" />
            <mxPoint x="200" y="250" as="targetPoint" />
            <Array as="points">
              <mxPoint x="565" y="190" />
              <mxPoint x="-5" y="190" />
            </Array>
          </mxGeometry>
        </mxCell>
        <mxCell id="XmYnf2hd-i7tS0sABOMN-287" style="edgeStyle=orthogonalEdgeStyle;orthogonalLoop=1;jettySize=auto;html=1;exitX=1;exitY=0.5;exitDx=0;exitDy=0;entryX=0;entryY=0.5;entryDx=0;entryDy=0;fontSize=14;fontColor=#000000;startArrow=classic;startFill=1;endArrow=classic;endFill=1;" edge="1" parent="1" source="XmYnf2hd-i7tS0sABOMN-285" target="XmYnf2hd-i7tS0sABOMN-189">
          <mxGeometry relative="1" as="geometry" />
        </mxCell>
        <mxCell id="XmYnf2hd-i7tS0sABOMN-288" value="" style="group;rounded=1;" vertex="1" connectable="0" parent="1">
          <mxGeometry x="-100" y="350" width="170" height="80" as="geometry" />
        </mxCell>
        <mxCell id="XmYnf2hd-i7tS0sABOMN-289" value="" style="whiteSpace=wrap;html=1;fillColor=#f8cecc;strokeColor=#b85450;rounded=1;" vertex="1" parent="XmYnf2hd-i7tS0sABOMN-288">
          <mxGeometry x="20" y="20" width="150" height="60" as="geometry" />
        </mxCell>
        <mxCell id="XmYnf2hd-i7tS0sABOMN-290" value="&lt;div style=&quot;font-size: 14px&quot;&gt;&lt;b style=&quot;font-size: 14px&quot;&gt;PropertyData&lt;/b&gt;&lt;/div&gt;" style="text;html=1;strokeColor=none;fillColor=none;align=center;verticalAlign=middle;whiteSpace=wrap;fontSize=14;rounded=1;" vertex="1" parent="XmYnf2hd-i7tS0sABOMN-288">
          <mxGeometry x="25" y="30" width="140" height="40" as="geometry" />
        </mxCell>
        <mxCell id="XmYnf2hd-i7tS0sABOMN-291" value="" style="html=1;dashed=0;whitespace=wrap;fillColor=#2875E2;strokeColor=#ffffff;points=[[0.005,0.63,0],[0.1,0.2,0],[0.9,0.2,0],[0.5,0,0],[0.995,0.63,0],[0.72,0.99,0],[0.5,1,0],[0.28,0.99,0]];shape=mxgraph.kubernetes.icon;prIcon=api;fontSize=14;fontColor=#000000;rounded=1;" vertex="1" parent="XmYnf2hd-i7tS0sABOMN-288">
          <mxGeometry width="50" height="48" as="geometry" />
        </mxCell>
        <mxCell id="XmYnf2hd-i7tS0sABOMN-292" value="" style="group;rounded=1;" vertex="1" connectable="0" parent="1">
          <mxGeometry x="90" y="350" width="170" height="80" as="geometry" />
        </mxCell>
        <mxCell id="XmYnf2hd-i7tS0sABOMN-293" value="" style="whiteSpace=wrap;html=1;fillColor=#f8cecc;strokeColor=#b85450;rounded=1;" vertex="1" parent="XmYnf2hd-i7tS0sABOMN-292">
          <mxGeometry x="20" y="20" width="150" height="60" as="geometry" />
        </mxCell>
        <mxCell id="XmYnf2hd-i7tS0sABOMN-294" value="&lt;div style=&quot;font-size: 14px&quot;&gt;&lt;b&gt;PropertyData&lt;/b&gt;&lt;br&gt;&lt;/div&gt;" style="text;html=1;strokeColor=none;fillColor=none;align=center;verticalAlign=middle;whiteSpace=wrap;fontSize=14;rounded=1;" vertex="1" parent="XmYnf2hd-i7tS0sABOMN-292">
          <mxGeometry x="25" y="30" width="140" height="40" as="geometry" />
        </mxCell>
        <mxCell id="XmYnf2hd-i7tS0sABOMN-295" value="" style="html=1;dashed=0;whitespace=wrap;fillColor=#2875E2;strokeColor=#ffffff;points=[[0.005,0.63,0],[0.1,0.2,0],[0.9,0.2,0],[0.5,0,0],[0.995,0.63,0],[0.72,0.99,0],[0.5,1,0],[0.28,0.99,0]];shape=mxgraph.kubernetes.icon;prIcon=api;fontSize=14;fontColor=#000000;rounded=1;" vertex="1" parent="XmYnf2hd-i7tS0sABOMN-292">
          <mxGeometry width="50" height="48" as="geometry" />
        </mxCell>
        <mxCell id="XmYnf2hd-i7tS0sABOMN-232" value="" style="html=1;dashed=0;whitespace=wrap;fillColor=#2875E2;strokeColor=#ffffff;points=[[0.005,0.63,0],[0.1,0.2,0],[0.9,0.2,0],[0.5,0,0],[0.995,0.63,0],[0.72,0.99,0],[0.5,1,0],[0.28,0.99,0]];shape=mxgraph.kubernetes.icon;prIcon=pod;rounded=1;" vertex="1" parent="1">
          <mxGeometry x="220" y="560" width="50" height="48" as="geometry" />
        </mxCell>
        <mxCell id="XmYnf2hd-i7tS0sABOMN-297" value="" style="group;rounded=1;" vertex="1" connectable="0" parent="1">
          <mxGeometry x="280" y="350" width="170" height="80" as="geometry" />
        </mxCell>
        <mxCell id="XmYnf2hd-i7tS0sABOMN-298" value="" style="whiteSpace=wrap;html=1;fillColor=#f8cecc;strokeColor=#b85450;rounded=1;" vertex="1" parent="XmYnf2hd-i7tS0sABOMN-297">
          <mxGeometry x="20" y="20" width="150" height="60" as="geometry" />
        </mxCell>
        <mxCell id="XmYnf2hd-i7tS0sABOMN-299" value="&lt;div style=&quot;font-size: 14px&quot;&gt;&lt;b&gt;PropertyData&lt;/b&gt;&lt;br&gt;&lt;/div&gt;" style="text;html=1;strokeColor=none;fillColor=none;align=center;verticalAlign=middle;whiteSpace=wrap;fontSize=14;rounded=1;" vertex="1" parent="XmYnf2hd-i7tS0sABOMN-297">
          <mxGeometry x="25" y="30" width="140" height="40" as="geometry" />
        </mxCell>
        <mxCell id="XmYnf2hd-i7tS0sABOMN-300" value="" style="html=1;dashed=0;whitespace=wrap;fillColor=#2875E2;strokeColor=#ffffff;points=[[0.005,0.63,0],[0.1,0.2,0],[0.9,0.2,0],[0.5,0,0],[0.995,0.63,0],[0.72,0.99,0],[0.5,1,0],[0.28,0.99,0]];shape=mxgraph.kubernetes.icon;prIcon=api;fontSize=14;fontColor=#000000;rounded=1;" vertex="1" parent="XmYnf2hd-i7tS0sABOMN-297">
          <mxGeometry width="50" height="48" as="geometry" />
        </mxCell>
        <mxCell id="XmYnf2hd-i7tS0sABOMN-301" value="" style="group;rounded=1;" vertex="1" connectable="0" parent="1">
          <mxGeometry x="470" y="350" width="170" height="80" as="geometry" />
        </mxCell>
        <mxCell id="XmYnf2hd-i7tS0sABOMN-302" value="" style="whiteSpace=wrap;html=1;fillColor=#f8cecc;strokeColor=#b85450;rounded=1;" vertex="1" parent="XmYnf2hd-i7tS0sABOMN-301">
          <mxGeometry x="20" y="20" width="150" height="60" as="geometry" />
        </mxCell>
        <mxCell id="XmYnf2hd-i7tS0sABOMN-303" value="&lt;div style=&quot;font-size: 14px&quot;&gt;&lt;b&gt;PropertyData&lt;/b&gt;&lt;br&gt;&lt;/div&gt;" style="text;html=1;strokeColor=none;fillColor=none;align=center;verticalAlign=middle;whiteSpace=wrap;fontSize=14;rounded=1;" vertex="1" parent="XmYnf2hd-i7tS0sABOMN-301">
          <mxGeometry x="25" y="30" width="140" height="40" as="geometry" />
        </mxCell>
        <mxCell id="XmYnf2hd-i7tS0sABOMN-304" value="" style="html=1;dashed=0;whitespace=wrap;fillColor=#2875E2;strokeColor=#ffffff;points=[[0.005,0.63,0],[0.1,0.2,0],[0.9,0.2,0],[0.5,0,0],[0.995,0.63,0],[0.72,0.99,0],[0.5,1,0],[0.28,0.99,0]];shape=mxgraph.kubernetes.icon;prIcon=api;fontSize=14;fontColor=#000000;rounded=1;" vertex="1" parent="XmYnf2hd-i7tS0sABOMN-301">
          <mxGeometry width="50" height="48" as="geometry" />
        </mxCell>
        <mxCell id="XmYnf2hd-i7tS0sABOMN-305" value="" style="group;rounded=1;" vertex="1" connectable="0" parent="1">
          <mxGeometry x="660" y="350" width="170" height="80" as="geometry" />
        </mxCell>
        <mxCell id="XmYnf2hd-i7tS0sABOMN-306" value="" style="whiteSpace=wrap;html=1;fillColor=#f8cecc;strokeColor=#b85450;rounded=1;" vertex="1" parent="XmYnf2hd-i7tS0sABOMN-305">
          <mxGeometry x="20" y="20" width="150" height="60" as="geometry" />
        </mxCell>
        <mxCell id="XmYnf2hd-i7tS0sABOMN-307" value="&lt;div style=&quot;font-size: 14px&quot;&gt;&lt;b style=&quot;font-size: 14px&quot;&gt;Land Registry&lt;/b&gt;&lt;/div&gt;" style="text;html=1;strokeColor=none;fillColor=none;align=center;verticalAlign=middle;whiteSpace=wrap;fontSize=14;rounded=1;" vertex="1" parent="XmYnf2hd-i7tS0sABOMN-305">
          <mxGeometry x="25" y="30" width="140" height="40" as="geometry" />
        </mxCell>
        <mxCell id="XmYnf2hd-i7tS0sABOMN-308" value="" style="html=1;dashed=0;whitespace=wrap;fillColor=#2875E2;strokeColor=#ffffff;points=[[0.005,0.63,0],[0.1,0.2,0],[0.9,0.2,0],[0.5,0,0],[0.995,0.63,0],[0.72,0.99,0],[0.5,1,0],[0.28,0.99,0]];shape=mxgraph.kubernetes.icon;prIcon=api;fontSize=14;fontColor=#000000;rounded=1;" vertex="1" parent="XmYnf2hd-i7tS0sABOMN-305">
          <mxGeometry width="50" height="48" as="geometry" />
        </mxCell>
        <mxCell id="XmYnf2hd-i7tS0sABOMN-310" style="edgeStyle=orthogonalEdgeStyle;orthogonalLoop=1;jettySize=auto;html=1;exitX=0.5;exitY=1;exitDx=0;exitDy=0;entryX=0.5;entryY=0;entryDx=0;entryDy=0;fontSize=14;fontColor=#000000;startArrow=classic;startFill=1;endArrow=classic;endFill=1;" edge="1" parent="1" source="XmYnf2hd-i7tS0sABOMN-283" target="XmYnf2hd-i7tS0sABOMN-289">
          <mxGeometry relative="1" as="geometry" />
        </mxCell>
        <mxCell id="XmYnf2hd-i7tS0sABOMN-311" style="edgeStyle=orthogonalEdgeStyle;orthogonalLoop=1;jettySize=auto;html=1;exitX=0.5;exitY=1;exitDx=0;exitDy=0;fontSize=14;fontColor=#000000;startArrow=classic;startFill=1;endArrow=classic;endFill=1;" edge="1" parent="1" source="XmYnf2hd-i7tS0sABOMN-193" target="XmYnf2hd-i7tS0sABOMN-298">
          <mxGeometry relative="1" as="geometry" />
        </mxCell>
        <mxCell id="XmYnf2hd-i7tS0sABOMN-312" style="edgeStyle=orthogonalEdgeStyle;orthogonalLoop=1;jettySize=auto;html=1;exitX=0.5;exitY=1;exitDx=0;exitDy=0;entryX=0.5;entryY=0;entryDx=0;entryDy=0;fontSize=14;fontColor=#000000;startArrow=classic;startFill=1;endArrow=classic;endFill=1;" edge="1" parent="1" source="XmYnf2hd-i7tS0sABOMN-197" target="XmYnf2hd-i7tS0sABOMN-302">
          <mxGeometry relative="1" as="geometry" />
        </mxCell>
        <mxCell id="XmYnf2hd-i7tS0sABOMN-313" style="edgeStyle=orthogonalEdgeStyle;orthogonalLoop=1;jettySize=auto;html=1;exitX=0.5;exitY=1;exitDx=0;exitDy=0;entryX=0.5;entryY=0;entryDx=0;entryDy=0;fontSize=14;fontColor=#000000;startArrow=classic;startFill=1;endArrow=classic;endFill=1;" edge="1" parent="1" source="XmYnf2hd-i7tS0sABOMN-201" target="XmYnf2hd-i7tS0sABOMN-306">
          <mxGeometry relative="1" as="geometry" />
        </mxCell>
        <mxCell id="XmYnf2hd-i7tS0sABOMN-314" value="" style="group;rounded=1;" vertex="1" connectable="0" parent="1">
          <mxGeometry x="1080" y="360" width="170" height="80" as="geometry" />
        </mxCell>
        <mxCell id="XmYnf2hd-i7tS0sABOMN-315" value="" style="whiteSpace=wrap;html=1;fillColor=#f8cecc;strokeColor=#b85450;rounded=1;" vertex="1" parent="XmYnf2hd-i7tS0sABOMN-314">
          <mxGeometry x="20" y="20" width="150" height="60" as="geometry" />
        </mxCell>
        <mxCell id="XmYnf2hd-i7tS0sABOMN-316" value="&lt;div style=&quot;font-size: 14px&quot;&gt;&lt;b style=&quot;font-size: 14px&quot;&gt;Elastic Search&lt;/b&gt;&lt;/div&gt;" style="text;html=1;strokeColor=none;fillColor=none;align=center;verticalAlign=middle;whiteSpace=wrap;fontSize=14;rounded=1;" vertex="1" parent="XmYnf2hd-i7tS0sABOMN-314">
          <mxGeometry x="25" y="30" width="140" height="40" as="geometry" />
        </mxCell>
        <mxCell id="XmYnf2hd-i7tS0sABOMN-247" value="" style="html=1;dashed=0;whitespace=wrap;fillColor=#2875E2;strokeColor=#ffffff;points=[[0.005,0.63,0],[0.1,0.2,0],[0.9,0.2,0],[0.5,0,0],[0.995,0.63,0],[0.72,0.99,0],[0.5,1,0],[0.28,0.99,0]];shape=mxgraph.kubernetes.icon;prIcon=pv;fontSize=14;fontColor=#000000;rounded=1;" vertex="1" parent="XmYnf2hd-i7tS0sABOMN-314">
          <mxGeometry x="-1" y="-5" width="50" height="48" as="geometry" />
        </mxCell>
        <mxCell id="XmYnf2hd-i7tS0sABOMN-251" value="" style="html=1;aspect=fixed;strokeColor=none;shadow=0;align=center;verticalAlign=top;fillColor=#3B8DF1;shape=mxgraph.gcp2.cloud_monitoring;fontSize=14;fontColor=#000000;rounded=1;" vertex="1" parent="1">
          <mxGeometry x="1010" y="280" width="18" height="20" as="geometry" />
        </mxCell>
        <mxCell id="XmYnf2hd-i7tS0sABOMN-327" value="" style="html=1;aspect=fixed;strokeColor=none;shadow=0;align=center;verticalAlign=top;fillColor=#3B8DF1;shape=mxgraph.gcp2.cloud_monitoring;fontSize=14;fontColor=#000000;rounded=1;" vertex="1" parent="1">
          <mxGeometry x="430" y="280" width="18" height="20" as="geometry" />
        </mxCell>
        <mxCell id="XmYnf2hd-i7tS0sABOMN-333" value="" style="edgeStyle=orthogonalEdgeStyle;orthogonalLoop=1;jettySize=auto;html=1;dashed=1;fontSize=14;fontColor=#000000;startArrow=none;startFill=0;endArrow=classic;endFill=1;strokeWidth=1;" edge="1" parent="1" source="XmYnf2hd-i7tS0sABOMN-205" target="XmYnf2hd-i7tS0sABOMN-240">
          <mxGeometry relative="1" as="geometry" />
        </mxCell>
        <mxCell id="XmYnf2hd-i7tS0sABOMN-334" style="edgeStyle=orthogonalEdgeStyle;orthogonalLoop=1;jettySize=auto;html=1;exitX=0.75;exitY=1;exitDx=0;exitDy=0;entryX=0;entryY=0.5;entryDx=0;entryDy=0;fontSize=14;fontColor=#000000;startArrow=classic;startFill=1;endArrow=classic;endFill=1;strokeColor=#000000;strokeWidth=1;" edge="1" parent="1" source="XmYnf2hd-i7tS0sABOMN-193" target="XmYnf2hd-i7tS0sABOMN-213">
          <mxGeometry relative="1" as="geometry">
            <Array as="points">
              <mxPoint x="413" y="320" />
              <mxPoint x="850" y="320" />
              <mxPoint x="850" y="270" />
            </Array>
          </mxGeometry>
        </mxCell>
        <mxCell id="XmYnf2hd-i7tS0sABOMN-335" style="edgeStyle=orthogonalEdgeStyle;orthogonalLoop=1;jettySize=auto;html=1;exitX=0.75;exitY=1;exitDx=0;exitDy=0;entryX=0.5;entryY=1;entryDx=0;entryDy=0;fontSize=14;fontColor=#000000;startArrow=classic;startFill=1;endArrow=classic;endFill=1;strokeColor=#000000;strokeWidth=1;" edge="1" parent="1" source="XmYnf2hd-i7tS0sABOMN-283" target="XmYnf2hd-i7tS0sABOMN-213">
          <mxGeometry relative="1" as="geometry">
            <Array as="points">
              <mxPoint x="33" y="330" />
              <mxPoint x="955" y="330" />
            </Array>
          </mxGeometry>
        </mxCell>
        <mxCell id="XmYnf2hd-i7tS0sABOMN-347" value="" style="group;rounded=1;" vertex="1" connectable="0" parent="1">
          <mxGeometry x="1290" y="220" width="170" height="80" as="geometry" />
        </mxCell>
        <mxCell id="XmYnf2hd-i7tS0sABOMN-348" value="" style="whiteSpace=wrap;html=1;fillColor=#dae8fc;strokeColor=#6c8ebf;rounded=1;" vertex="1" parent="XmYnf2hd-i7tS0sABOMN-347">
          <mxGeometry x="20" y="20" width="150" height="60" as="geometry" />
        </mxCell>
        <mxCell id="XmYnf2hd-i7tS0sABOMN-349" value="" style="html=1;dashed=0;whitespace=wrap;fillColor=#2875E2;strokeColor=#ffffff;points=[[0.005,0.63,0],[0.1,0.2,0],[0.9,0.2,0],[0.5,0,0],[0.995,0.63,0],[0.72,0.99,0],[0.5,1,0],[0.28,0.99,0]];shape=mxgraph.kubernetes.icon;prIcon=pod;rounded=1;" vertex="1" parent="XmYnf2hd-i7tS0sABOMN-347">
          <mxGeometry width="50" height="48" as="geometry" />
        </mxCell>
        <mxCell id="XmYnf2hd-i7tS0sABOMN-350" value="&lt;div style=&quot;font-size: 14px&quot;&gt;&lt;b style=&quot;font-size: 14px&quot;&gt;Export service&lt;/b&gt;&lt;/div&gt;" style="text;html=1;strokeColor=none;fillColor=none;align=center;verticalAlign=middle;whiteSpace=wrap;fontSize=14;rounded=1;" vertex="1" parent="XmYnf2hd-i7tS0sABOMN-347">
          <mxGeometry x="25" y="30" width="140" height="40" as="geometry" />
        </mxCell>
        <mxCell id="XmYnf2hd-i7tS0sABOMN-351" value="" style="html=1;aspect=fixed;strokeColor=none;shadow=0;align=center;verticalAlign=top;fillColor=#3B8DF1;shape=mxgraph.gcp2.cloud_monitoring;fontSize=14;fontColor=#000000;rounded=1;" vertex="1" parent="XmYnf2hd-i7tS0sABOMN-347">
          <mxGeometry x="150" y="60" width="18" height="20" as="geometry" />
        </mxCell>
        <mxCell id="XmYnf2hd-i7tS0sABOMN-352" style="edgeStyle=orthogonalEdgeStyle;orthogonalLoop=1;jettySize=auto;html=1;exitX=0.5;exitY=1;exitDx=0;exitDy=0;entryX=1;entryY=0.5;entryDx=0;entryDy=0;fontSize=21;fontColor=#000000;startArrow=classic;startFill=1;endArrow=classic;endFill=1;strokeColor=#000000;strokeWidth=1;" edge="1" parent="1" source="XmYnf2hd-i7tS0sABOMN-348" target="XmYnf2hd-i7tS0sABOMN-315">
          <mxGeometry relative="1" as="geometry" />
        </mxCell>
        <mxCell id="XmYnf2hd-i7tS0sABOMN-354" value="" style="edgeStyle=orthogonalEdgeStyle;orthogonalLoop=1;jettySize=auto;html=1;fontSize=21;fontColor=#000000;startArrow=classic;startFill=1;endArrow=classic;endFill=1;strokeColor=#000000;strokeWidth=1;exitX=0.5;exitY=0;exitDx=0;exitDy=0;" edge="1" parent="1" source="XmYnf2hd-i7tS0sABOMN-357">
          <mxGeometry relative="1" as="geometry">
            <mxPoint x="1165.0588235294117" y="510" as="sourcePoint" />
            <mxPoint x="1165" y="440" as="targetPoint" />
          </mxGeometry>
        </mxCell>
        <mxCell id="XmYnf2hd-i7tS0sABOMN-356" value="" style="group;rounded=1;" vertex="1" connectable="0" parent="1">
          <mxGeometry x="990" y="500" width="170" height="80" as="geometry" />
        </mxCell>
        <mxCell id="XmYnf2hd-i7tS0sABOMN-357" value="" style="whiteSpace=wrap;html=1;fillColor=#f5f5f5;strokeColor=#666666;fontColor=#333333;rounded=1;" vertex="1" parent="XmYnf2hd-i7tS0sABOMN-356">
          <mxGeometry x="20" y="20" width="150" height="60" as="geometry" />
        </mxCell>
        <mxCell id="XmYnf2hd-i7tS0sABOMN-358" value="&lt;div style=&quot;font-size: 14px&quot;&gt;&lt;b style=&quot;font-size: 14px&quot;&gt;Data feed&lt;/b&gt;&lt;/div&gt;" style="text;html=1;strokeColor=none;fillColor=none;align=center;verticalAlign=middle;whiteSpace=wrap;fontSize=14;rounded=1;" vertex="1" parent="XmYnf2hd-i7tS0sABOMN-356">
          <mxGeometry x="25" y="30" width="140" height="40" as="geometry" />
        </mxCell>
        <mxCell id="XmYnf2hd-i7tS0sABOMN-361" value="" style="outlineConnect=0;dashed=0;verticalLabelPosition=bottom;verticalAlign=top;align=center;html=1;shape=mxgraph.aws3.data_pipeline;fillColor=#F58534;gradientColor=none;fontSize=21;fontColor=#000000;rounded=1;" vertex="1" parent="XmYnf2hd-i7tS0sABOMN-356">
          <mxGeometry width="38.5" height="46.2" as="geometry" />
        </mxCell>
        <mxCell id="XmYnf2hd-i7tS0sABOMN-363" value="" style="group;rounded=1;" vertex="1" connectable="0" parent="1">
          <mxGeometry x="1210" y="500" width="170" height="80" as="geometry" />
        </mxCell>
        <mxCell id="XmYnf2hd-i7tS0sABOMN-364" value="" style="whiteSpace=wrap;html=1;fillColor=#dae8fc;strokeColor=#6c8ebf;rounded=1;" vertex="1" parent="XmYnf2hd-i7tS0sABOMN-363">
          <mxGeometry x="20" y="20" width="150" height="60" as="geometry" />
        </mxCell>
        <mxCell id="XmYnf2hd-i7tS0sABOMN-366" value="&lt;div style=&quot;font-size: 14px&quot;&gt;&lt;b&gt;Data seed&lt;/b&gt;&lt;/div&gt;" style="text;html=1;strokeColor=none;fillColor=none;align=center;verticalAlign=middle;whiteSpace=wrap;fontSize=14;rounded=1;" vertex="1" parent="XmYnf2hd-i7tS0sABOMN-363">
          <mxGeometry x="25" y="30" width="140" height="40" as="geometry" />
        </mxCell>
        <mxCell id="XmYnf2hd-i7tS0sABOMN-360" value="" style="html=1;dashed=0;whitespace=wrap;fillColor=#2875E2;strokeColor=#ffffff;points=[[0.005,0.63,0],[0.1,0.2,0],[0.9,0.2,0],[0.5,0,0],[0.995,0.63,0],[0.72,0.99,0],[0.5,1,0],[0.28,0.99,0]];shape=mxgraph.kubernetes.icon;prIcon=sched;fontSize=21;fontColor=#000000;rounded=1;" vertex="1" parent="XmYnf2hd-i7tS0sABOMN-363">
          <mxGeometry width="50" height="48" as="geometry" />
        </mxCell>
        <mxCell id="XmYnf2hd-i7tS0sABOMN-367" style="edgeStyle=orthogonalEdgeStyle;orthogonalLoop=1;jettySize=auto;html=1;exitX=0.75;exitY=1;exitDx=0;exitDy=0;entryX=0.5;entryY=0;entryDx=0;entryDy=0;fontSize=21;fontColor=#000000;startArrow=classic;startFill=1;endArrow=classic;endFill=1;strokeColor=#000000;strokeWidth=1;" edge="1" parent="1" source="XmYnf2hd-i7tS0sABOMN-315" target="XmYnf2hd-i7tS0sABOMN-364">
          <mxGeometry relative="1" as="geometry" />
        </mxCell>
        <mxCell id="XmYnf2hd-i7tS0sABOMN-368" value="" style="group;rounded=1;" vertex="1" connectable="0" parent="1">
          <mxGeometry x="1210" y="657" width="170" height="80" as="geometry" />
        </mxCell>
        <mxCell id="XmYnf2hd-i7tS0sABOMN-369" value="" style="whiteSpace=wrap;html=1;fillColor=#f8cecc;strokeColor=#b85450;rounded=1;" vertex="1" parent="XmYnf2hd-i7tS0sABOMN-368">
          <mxGeometry x="20" y="20" width="150" height="60" as="geometry" />
        </mxCell>
        <mxCell id="XmYnf2hd-i7tS0sABOMN-370" value="&lt;div style=&quot;font-size: 14px&quot;&gt;&lt;b&gt;PropertyData&lt;/b&gt;&lt;/div&gt;" style="text;html=1;strokeColor=none;fillColor=none;align=center;verticalAlign=middle;whiteSpace=wrap;fontSize=14;rounded=1;" vertex="1" parent="XmYnf2hd-i7tS0sABOMN-368">
          <mxGeometry x="25" y="30" width="140" height="40" as="geometry" />
        </mxCell>
        <mxCell id="XmYnf2hd-i7tS0sABOMN-371" value="" style="html=1;dashed=0;whitespace=wrap;fillColor=#2875E2;strokeColor=#ffffff;points=[[0.005,0.63,0],[0.1,0.2,0],[0.9,0.2,0],[0.5,0,0],[0.995,0.63,0],[0.72,0.99,0],[0.5,1,0],[0.28,0.99,0]];shape=mxgraph.kubernetes.icon;prIcon=api;fontSize=14;fontColor=#000000;rounded=1;" vertex="1" parent="XmYnf2hd-i7tS0sABOMN-368">
          <mxGeometry width="50" height="48" as="geometry" />
        </mxCell>
        <mxCell id="XmYnf2hd-i7tS0sABOMN-372" value="" style="edgeStyle=orthogonalEdgeStyle;orthogonalLoop=1;jettySize=auto;html=1;fontSize=21;fontColor=#000000;startArrow=classic;startFill=1;endArrow=classic;endFill=1;strokeColor=#000000;strokeWidth=1;entryX=0.5;entryY=0;entryDx=0;entryDy=0;" edge="1" parent="1" target="XmYnf2hd-i7tS0sABOMN-369">
          <mxGeometry relative="1" as="geometry">
            <mxPoint x="1305" y="580" as="sourcePoint" />
            <mxPoint x="1305" y="670" as="targetPoint" />
          </mxGeometry>
        </mxCell>
        <mxCell id="XmYnf2hd-i7tS0sABOMN-373" value="" style="group;rounded=1;" vertex="1" connectable="0" parent="1">
          <mxGeometry x="990" y="657" width="170" height="80" as="geometry" />
        </mxCell>
        <mxCell id="XmYnf2hd-i7tS0sABOMN-374" value="" style="whiteSpace=wrap;html=1;fillColor=#f8cecc;strokeColor=#b85450;rounded=1;" vertex="1" parent="XmYnf2hd-i7tS0sABOMN-373">
          <mxGeometry x="20" y="20" width="150" height="60" as="geometry" />
        </mxCell>
        <mxCell id="XmYnf2hd-i7tS0sABOMN-375" value="&lt;div style=&quot;font-size: 14px&quot;&gt;&lt;b style=&quot;font-size: 14px&quot;&gt;Data export&lt;/b&gt;&lt;/div&gt;" style="text;html=1;strokeColor=none;fillColor=none;align=center;verticalAlign=middle;whiteSpace=wrap;fontSize=14;rounded=1;" vertex="1" parent="XmYnf2hd-i7tS0sABOMN-373">
          <mxGeometry x="25" y="30" width="140" height="40" as="geometry" />
        </mxCell>
        <mxCell id="XmYnf2hd-i7tS0sABOMN-376" value="" style="html=1;dashed=0;whitespace=wrap;fillColor=#2875E2;strokeColor=#ffffff;points=[[0.005,0.63,0],[0.1,0.2,0],[0.9,0.2,0],[0.5,0,0],[0.995,0.63,0],[0.72,0.99,0],[0.5,1,0],[0.28,0.99,0]];shape=mxgraph.kubernetes.icon;prIcon=api;fontSize=14;fontColor=#000000;rounded=1;" vertex="1" parent="XmYnf2hd-i7tS0sABOMN-373">
          <mxGeometry width="50" height="48" as="geometry" />
        </mxCell>
        <mxCell id="cg-Igqc4C9Bn1dga1ePL-1" value="" style="edgeStyle=orthogonalEdgeStyle;rounded=0;orthogonalLoop=1;jettySize=auto;html=1;fontSize=21;fontColor=#000000;startArrow=none;startFill=0;endArrow=classic;endFill=1;strokeColor=#000000;strokeWidth=1;exitX=0.5;exitY=0;exitDx=0;exitDy=0;" edge="1" parent="1" source="XmYnf2hd-i7tS0sABOMN-374">
          <mxGeometry relative="1" as="geometry">
            <mxPoint x="1085" y="670" as="sourcePoint" />
            <mxPoint x="1085" y="580" as="targetPoint" />
          </mxGeometry>
        </mxCell>
      </root>
    </mxGraphModel>
  </diagram>
  <diagram name="Copy of current-architecture" id="sIry8HQPpuZzZutrZcrx">
    <mxGraphModel dx="2430" dy="942" grid="1" gridSize="10" guides="1" tooltips="1" connect="1" arrows="1" fold="1" page="1" pageScale="1" pageWidth="850" pageHeight="1100" math="0" shadow="0">
      <root>
        <mxCell id="zCkMb1hAaJskj9UZId1U-0" />
        <mxCell id="zCkMb1hAaJskj9UZId1U-1" parent="zCkMb1hAaJskj9UZId1U-0" />
        <mxCell id="zCkMb1hAaJskj9UZId1U-2" value="" style="group;rounded=1;" vertex="1" connectable="0" parent="zCkMb1hAaJskj9UZId1U-1">
          <mxGeometry x="470" y="60" width="170" height="80" as="geometry" />
        </mxCell>
        <mxCell id="zCkMb1hAaJskj9UZId1U-3" value="" style="whiteSpace=wrap;html=1;fillColor=#dae8fc;strokeColor=#6c8ebf;rounded=1;" vertex="1" parent="zCkMb1hAaJskj9UZId1U-2">
          <mxGeometry x="20" y="20" width="150" height="60" as="geometry" />
        </mxCell>
        <mxCell id="zCkMb1hAaJskj9UZId1U-4" value="" style="html=1;dashed=0;whitespace=wrap;fillColor=#2875E2;strokeColor=#ffffff;points=[[0.005,0.63,0],[0.1,0.2,0],[0.9,0.2,0],[0.5,0,0],[0.995,0.63,0],[0.72,0.99,0],[0.5,1,0],[0.28,0.99,0]];shape=mxgraph.kubernetes.icon;prIcon=pod;rounded=1;" vertex="1" parent="zCkMb1hAaJskj9UZId1U-2">
          <mxGeometry width="50" height="48" as="geometry" />
        </mxCell>
        <mxCell id="zCkMb1hAaJskj9UZId1U-5" value="&lt;div style=&quot;font-size: 14px;&quot;&gt;&lt;b style=&quot;font-size: 14px;&quot;&gt;Frontend service&lt;/b&gt;&lt;/div&gt;" style="text;html=1;strokeColor=none;fillColor=none;align=center;verticalAlign=middle;whiteSpace=wrap;fontSize=14;rounded=1;" vertex="1" parent="zCkMb1hAaJskj9UZId1U-2">
          <mxGeometry x="25" y="30" width="140" height="40" as="geometry" />
        </mxCell>
        <mxCell id="zCkMb1hAaJskj9UZId1U-25" value="" style="group;rounded=1;" vertex="1" connectable="0" parent="zCkMb1hAaJskj9UZId1U-1">
          <mxGeometry x="1240" y="957" width="170" height="80" as="geometry" />
        </mxCell>
        <mxCell id="zCkMb1hAaJskj9UZId1U-26" value="" style="whiteSpace=wrap;html=1;fillColor=#dae8fc;strokeColor=#6c8ebf;rounded=1;" vertex="1" parent="zCkMb1hAaJskj9UZId1U-25">
          <mxGeometry x="20" y="20" width="150" height="60" as="geometry" />
        </mxCell>
        <mxCell id="zCkMb1hAaJskj9UZId1U-27" value="" style="html=1;dashed=0;whitespace=wrap;fillColor=#2875E2;strokeColor=#ffffff;points=[[0.005,0.63,0],[0.1,0.2,0],[0.9,0.2,0],[0.5,0,0],[0.995,0.63,0],[0.72,0.99,0],[0.5,1,0],[0.28,0.99,0]];shape=mxgraph.kubernetes.icon;prIcon=pod;rounded=1;" vertex="1" parent="zCkMb1hAaJskj9UZId1U-25">
          <mxGeometry width="50" height="48" as="geometry" />
        </mxCell>
        <mxCell id="zCkMb1hAaJskj9UZId1U-28" value="&lt;div style=&quot;font-size: 14px&quot;&gt;&lt;b style=&quot;font-size: 14px&quot;&gt;CRM service&lt;/b&gt;&lt;/div&gt;" style="text;html=1;strokeColor=none;fillColor=none;align=center;verticalAlign=middle;whiteSpace=wrap;fontSize=14;rounded=1;" vertex="1" parent="zCkMb1hAaJskj9UZId1U-25">
          <mxGeometry x="25" y="30" width="140" height="40" as="geometry" />
        </mxCell>
        <mxCell id="zCkMb1hAaJskj9UZId1U-29" value="" style="group;rounded=1;" vertex="1" connectable="0" parent="zCkMb1hAaJskj9UZId1U-1">
          <mxGeometry x="650" y="590" width="170" height="80" as="geometry" />
        </mxCell>
        <mxCell id="zCkMb1hAaJskj9UZId1U-30" value="" style="whiteSpace=wrap;html=1;fillColor=#dae8fc;strokeColor=#6c8ebf;rounded=1;" vertex="1" parent="zCkMb1hAaJskj9UZId1U-29">
          <mxGeometry x="20" y="20" width="150" height="60" as="geometry" />
        </mxCell>
        <mxCell id="zCkMb1hAaJskj9UZId1U-31" value="" style="html=1;dashed=0;whitespace=wrap;fillColor=#2875E2;strokeColor=#ffffff;points=[[0.005,0.63,0],[0.1,0.2,0],[0.9,0.2,0],[0.5,0,0],[0.995,0.63,0],[0.72,0.99,0],[0.5,1,0],[0.28,0.99,0]];shape=mxgraph.kubernetes.icon;prIcon=pod;rounded=1;" vertex="1" parent="zCkMb1hAaJskj9UZId1U-29">
          <mxGeometry width="50" height="48" as="geometry" />
        </mxCell>
        <mxCell id="zCkMb1hAaJskj9UZId1U-32" value="&lt;div style=&quot;font-size: 14px&quot;&gt;&lt;b style=&quot;font-size: 14px&quot;&gt;Email service&lt;/b&gt;&lt;/div&gt;" style="text;html=1;strokeColor=none;fillColor=none;align=center;verticalAlign=middle;whiteSpace=wrap;fontSize=14;rounded=1;" vertex="1" parent="zCkMb1hAaJskj9UZId1U-29">
          <mxGeometry x="25" y="30" width="140" height="40" as="geometry" />
        </mxCell>
        <mxCell id="zCkMb1hAaJskj9UZId1U-33" value="" style="group;rounded=1;" vertex="1" connectable="0" parent="zCkMb1hAaJskj9UZId1U-1">
          <mxGeometry x="1050" y="110" width="190" height="80" as="geometry" />
        </mxCell>
        <mxCell id="zCkMb1hAaJskj9UZId1U-34" value="" style="whiteSpace=wrap;html=1;fillColor=#dae8fc;strokeColor=#6c8ebf;rounded=1;" vertex="1" parent="zCkMb1hAaJskj9UZId1U-33">
          <mxGeometry x="20" y="20" width="150" height="60" as="geometry" />
        </mxCell>
        <mxCell id="zCkMb1hAaJskj9UZId1U-35" value="" style="html=1;dashed=0;whitespace=wrap;fillColor=#2875E2;strokeColor=#ffffff;points=[[0.005,0.63,0],[0.1,0.2,0],[0.9,0.2,0],[0.5,0,0],[0.995,0.63,0],[0.72,0.99,0],[0.5,1,0],[0.28,0.99,0]];shape=mxgraph.kubernetes.icon;prIcon=pod;rounded=1;" vertex="1" parent="zCkMb1hAaJskj9UZId1U-33">
          <mxGeometry width="50" height="48" as="geometry" />
        </mxCell>
        <mxCell id="zCkMb1hAaJskj9UZId1U-36" value="&lt;div style=&quot;font-size: 14px&quot;&gt;&lt;b style=&quot;font-size: 14px&quot;&gt;Postcodes service&lt;/b&gt;&lt;/div&gt;" style="text;html=1;strokeColor=none;fillColor=none;align=center;verticalAlign=middle;whiteSpace=wrap;fontSize=14;rounded=1;" vertex="1" parent="zCkMb1hAaJskj9UZId1U-33">
          <mxGeometry x="25" y="30" width="140" height="40" as="geometry" />
        </mxCell>
        <mxCell id="zCkMb1hAaJskj9UZId1U-48" value="" style="verticalLabelPosition=bottom;html=1;verticalAlign=top;align=center;strokeColor=none;shape=mxgraph.azure.storage_queue;fontSize=14;fontColor=#000000;fillColor=#2875E2;rounded=1;" vertex="1" parent="zCkMb1hAaJskj9UZId1U-1">
          <mxGeometry x="1150" y="985" width="50" height="45" as="geometry" />
        </mxCell>
        <mxCell id="zCkMb1hAaJskj9UZId1U-51" value="" style="group;rounded=1;" vertex="1" connectable="0" parent="zCkMb1hAaJskj9UZId1U-1">
          <mxGeometry x="1601" y="220" width="170" height="80" as="geometry" />
        </mxCell>
        <mxCell id="zCkMb1hAaJskj9UZId1U-52" value="" style="whiteSpace=wrap;html=1;fillColor=#dae8fc;strokeColor=#6c8ebf;rounded=1;" vertex="1" parent="zCkMb1hAaJskj9UZId1U-51">
          <mxGeometry x="20" y="20" width="150" height="60" as="geometry" />
        </mxCell>
        <mxCell id="zCkMb1hAaJskj9UZId1U-53" value="" style="html=1;dashed=0;whitespace=wrap;fillColor=#2875E2;strokeColor=#ffffff;points=[[0.005,0.63,0],[0.1,0.2,0],[0.9,0.2,0],[0.5,0,0],[0.995,0.63,0],[0.72,0.99,0],[0.5,1,0],[0.28,0.99,0]];shape=mxgraph.kubernetes.icon;prIcon=pod;rounded=1;" vertex="1" parent="zCkMb1hAaJskj9UZId1U-51">
          <mxGeometry width="50" height="48" as="geometry" />
        </mxCell>
        <mxCell id="zCkMb1hAaJskj9UZId1U-54" value="&lt;div style=&quot;font-size: 14px&quot;&gt;&lt;b style=&quot;font-size: 14px&quot;&gt;Search service&lt;/b&gt;&lt;/div&gt;" style="text;html=1;strokeColor=none;fillColor=none;align=center;verticalAlign=middle;whiteSpace=wrap;fontSize=14;rounded=1;" vertex="1" parent="zCkMb1hAaJskj9UZId1U-51">
          <mxGeometry x="25" y="30" width="140" height="40" as="geometry" />
        </mxCell>
        <mxCell id="zCkMb1hAaJskj9UZId1U-55" value="" style="html=1;aspect=fixed;strokeColor=none;shadow=0;align=center;verticalAlign=top;fillColor=#3B8DF1;shape=mxgraph.gcp2.cloud_monitoring;fontSize=14;fontColor=#000000;rounded=1;" vertex="1" parent="zCkMb1hAaJskj9UZId1U-51">
          <mxGeometry x="150" y="60" width="18" height="20" as="geometry" />
        </mxCell>
        <mxCell id="zCkMb1hAaJskj9UZId1U-57" value="" style="edgeStyle=orthogonalEdgeStyle;orthogonalLoop=1;jettySize=auto;html=1;fontSize=14;fontColor=#000000;startArrow=classic;startFill=1;endArrow=classic;endFill=1;entryX=0.5;entryY=0;entryDx=0;entryDy=0;" edge="1" parent="zCkMb1hAaJskj9UZId1U-1" target="zCkMb1hAaJskj9UZId1U-108">
          <mxGeometry relative="1" as="geometry">
            <mxPoint x="1696" y="300" as="sourcePoint" />
          </mxGeometry>
        </mxCell>
        <mxCell id="zCkMb1hAaJskj9UZId1U-59" value="" style="group;rounded=1;" vertex="1" connectable="0" parent="zCkMb1hAaJskj9UZId1U-1">
          <mxGeometry x="650" y="720" width="170" height="80" as="geometry" />
        </mxCell>
        <mxCell id="zCkMb1hAaJskj9UZId1U-60" value="" style="whiteSpace=wrap;html=1;fillColor=#f8cecc;strokeColor=#b85450;rounded=1;" vertex="1" parent="zCkMb1hAaJskj9UZId1U-59">
          <mxGeometry x="20" y="20" width="150" height="60" as="geometry" />
        </mxCell>
        <mxCell id="zCkMb1hAaJskj9UZId1U-61" value="&lt;div style=&quot;font-size: 14px&quot;&gt;&lt;b style=&quot;font-size: 14px&quot;&gt;Sendgrid&amp;nbsp;&lt;/b&gt;&lt;/div&gt;" style="text;html=1;strokeColor=none;fillColor=none;align=center;verticalAlign=middle;whiteSpace=wrap;fontSize=14;rounded=1;" vertex="1" parent="zCkMb1hAaJskj9UZId1U-59">
          <mxGeometry x="25" y="30" width="140" height="40" as="geometry" />
        </mxCell>
        <mxCell id="zCkMb1hAaJskj9UZId1U-62" value="" style="html=1;dashed=0;whitespace=wrap;fillColor=#2875E2;strokeColor=#ffffff;points=[[0.005,0.63,0],[0.1,0.2,0],[0.9,0.2,0],[0.5,0,0],[0.995,0.63,0],[0.72,0.99,0],[0.5,1,0],[0.28,0.99,0]];shape=mxgraph.kubernetes.icon;prIcon=api;fontSize=14;fontColor=#000000;rounded=1;" vertex="1" parent="zCkMb1hAaJskj9UZId1U-59">
          <mxGeometry width="50" height="48" as="geometry" />
        </mxCell>
        <mxCell id="zCkMb1hAaJskj9UZId1U-63" value="" style="group;rounded=1;" vertex="1" connectable="0" parent="zCkMb1hAaJskj9UZId1U-1">
          <mxGeometry x="1460" y="957" width="170" height="80" as="geometry" />
        </mxCell>
        <mxCell id="zCkMb1hAaJskj9UZId1U-64" value="" style="whiteSpace=wrap;html=1;fillColor=#f8cecc;strokeColor=#b85450;rounded=1;" vertex="1" parent="zCkMb1hAaJskj9UZId1U-63">
          <mxGeometry x="20" y="20" width="150" height="60" as="geometry" />
        </mxCell>
        <mxCell id="zCkMb1hAaJskj9UZId1U-65" value="&lt;div style=&quot;font-size: 14px&quot;&gt;&lt;b style=&quot;font-size: 14px&quot;&gt;Podio&lt;/b&gt;&lt;/div&gt;" style="text;html=1;strokeColor=none;fillColor=none;align=center;verticalAlign=middle;whiteSpace=wrap;fontSize=14;rounded=1;" vertex="1" parent="zCkMb1hAaJskj9UZId1U-63">
          <mxGeometry x="25" y="30" width="140" height="40" as="geometry" />
        </mxCell>
        <mxCell id="zCkMb1hAaJskj9UZId1U-66" value="" style="html=1;dashed=0;whitespace=wrap;fillColor=#2875E2;strokeColor=#ffffff;points=[[0.005,0.63,0],[0.1,0.2,0],[0.9,0.2,0],[0.5,0,0],[0.995,0.63,0],[0.72,0.99,0],[0.5,1,0],[0.28,0.99,0]];shape=mxgraph.kubernetes.icon;prIcon=api;fontSize=14;fontColor=#000000;rounded=1;" vertex="1" parent="zCkMb1hAaJskj9UZId1U-63">
          <mxGeometry width="50" height="48" as="geometry" />
        </mxCell>
        <mxCell id="zCkMb1hAaJskj9UZId1U-67" style="edgeStyle=orthogonalEdgeStyle;orthogonalLoop=1;jettySize=auto;html=1;exitX=1;exitY=0.5;exitDx=0;exitDy=0;entryX=0;entryY=0.5;entryDx=0;entryDy=0;fontSize=14;fontColor=#000000;startArrow=classic;startFill=1;endArrow=classic;endFill=1;" edge="1" parent="zCkMb1hAaJskj9UZId1U-1" source="zCkMb1hAaJskj9UZId1U-26" target="zCkMb1hAaJskj9UZId1U-64">
          <mxGeometry relative="1" as="geometry" />
        </mxCell>
        <mxCell id="zCkMb1hAaJskj9UZId1U-69" value="" style="group;rounded=1;" vertex="1" connectable="0" parent="zCkMb1hAaJskj9UZId1U-1">
          <mxGeometry x="730" y="60" width="170" height="80" as="geometry" />
        </mxCell>
        <mxCell id="zCkMb1hAaJskj9UZId1U-70" value="" style="whiteSpace=wrap;html=1;fillColor=#f8cecc;strokeColor=#b85450;rounded=1;" vertex="1" parent="zCkMb1hAaJskj9UZId1U-69">
          <mxGeometry x="20" y="20" width="150" height="60" as="geometry" />
        </mxCell>
        <mxCell id="zCkMb1hAaJskj9UZId1U-71" value="&lt;div style=&quot;font-size: 14px&quot;&gt;&lt;b style=&quot;font-size: 14px&quot;&gt;Google Places&lt;/b&gt;&lt;/div&gt;" style="text;html=1;strokeColor=none;fillColor=none;align=center;verticalAlign=middle;whiteSpace=wrap;fontSize=14;rounded=1;" vertex="1" parent="zCkMb1hAaJskj9UZId1U-69">
          <mxGeometry x="25" y="30" width="140" height="40" as="geometry" />
        </mxCell>
        <mxCell id="zCkMb1hAaJskj9UZId1U-72" value="" style="html=1;dashed=0;whitespace=wrap;fillColor=#2875E2;strokeColor=#ffffff;points=[[0.005,0.63,0],[0.1,0.2,0],[0.9,0.2,0],[0.5,0,0],[0.995,0.63,0],[0.72,0.99,0],[0.5,1,0],[0.28,0.99,0]];shape=mxgraph.kubernetes.icon;prIcon=api;fontSize=14;fontColor=#000000;rounded=1;" vertex="1" parent="zCkMb1hAaJskj9UZId1U-69">
          <mxGeometry width="50" height="48" as="geometry" />
        </mxCell>
        <mxCell id="zCkMb1hAaJskj9UZId1U-73" style="edgeStyle=orthogonalEdgeStyle;orthogonalLoop=1;jettySize=auto;html=1;exitX=1;exitY=0.5;exitDx=0;exitDy=0;entryX=0;entryY=0.5;entryDx=0;entryDy=0;fontSize=14;fontColor=#000000;startArrow=classic;startFill=1;endArrow=classic;endFill=1;" edge="1" parent="zCkMb1hAaJskj9UZId1U-1" source="zCkMb1hAaJskj9UZId1U-3" target="zCkMb1hAaJskj9UZId1U-70">
          <mxGeometry relative="1" as="geometry" />
        </mxCell>
        <mxCell id="zCkMb1hAaJskj9UZId1U-107" value="" style="group;rounded=1;" vertex="1" connectable="0" parent="zCkMb1hAaJskj9UZId1U-1">
          <mxGeometry x="1601" y="360" width="170" height="80" as="geometry" />
        </mxCell>
        <mxCell id="zCkMb1hAaJskj9UZId1U-108" value="" style="whiteSpace=wrap;html=1;fillColor=#f8cecc;strokeColor=#b85450;rounded=1;" vertex="1" parent="zCkMb1hAaJskj9UZId1U-107">
          <mxGeometry x="20" y="20" width="150" height="60" as="geometry" />
        </mxCell>
        <mxCell id="zCkMb1hAaJskj9UZId1U-109" value="&lt;div style=&quot;font-size: 14px&quot;&gt;&lt;b style=&quot;font-size: 14px&quot;&gt;Elastic Search&lt;/b&gt;&lt;/div&gt;" style="text;html=1;strokeColor=none;fillColor=none;align=center;verticalAlign=middle;whiteSpace=wrap;fontSize=14;rounded=1;" vertex="1" parent="zCkMb1hAaJskj9UZId1U-107">
          <mxGeometry x="25" y="30" width="140" height="40" as="geometry" />
        </mxCell>
        <mxCell id="zCkMb1hAaJskj9UZId1U-110" value="" style="html=1;dashed=0;whitespace=wrap;fillColor=#2875E2;strokeColor=#ffffff;points=[[0.005,0.63,0],[0.1,0.2,0],[0.9,0.2,0],[0.5,0,0],[0.995,0.63,0],[0.72,0.99,0],[0.5,1,0],[0.28,0.99,0]];shape=mxgraph.kubernetes.icon;prIcon=pv;fontSize=14;fontColor=#000000;rounded=1;" vertex="1" parent="zCkMb1hAaJskj9UZId1U-107">
          <mxGeometry x="-1" y="-5" width="50" height="48" as="geometry" />
        </mxCell>
        <mxCell id="zCkMb1hAaJskj9UZId1U-111" value="" style="html=1;aspect=fixed;strokeColor=none;shadow=0;align=center;verticalAlign=top;fillColor=#3B8DF1;shape=mxgraph.gcp2.cloud_monitoring;fontSize=14;fontColor=#000000;rounded=1;" vertex="1" parent="zCkMb1hAaJskj9UZId1U-1">
          <mxGeometry x="1200" y="170" width="18" height="20" as="geometry" />
        </mxCell>
        <mxCell id="zCkMb1hAaJskj9UZId1U-113" value="" style="edgeStyle=orthogonalEdgeStyle;orthogonalLoop=1;jettySize=auto;html=1;dashed=1;fontSize=14;fontColor=#000000;startArrow=none;startFill=0;endArrow=classic;endFill=1;strokeWidth=1;" edge="1" parent="zCkMb1hAaJskj9UZId1U-1" source="zCkMb1hAaJskj9UZId1U-26" target="zCkMb1hAaJskj9UZId1U-48">
          <mxGeometry relative="1" as="geometry" />
        </mxCell>
        <mxCell id="zCkMb1hAaJskj9UZId1U-116" value="" style="group;rounded=1;" vertex="1" connectable="0" parent="zCkMb1hAaJskj9UZId1U-1">
          <mxGeometry x="1811" y="220" width="170" height="80" as="geometry" />
        </mxCell>
        <mxCell id="zCkMb1hAaJskj9UZId1U-117" value="" style="whiteSpace=wrap;html=1;fillColor=#dae8fc;strokeColor=#6c8ebf;rounded=1;" vertex="1" parent="zCkMb1hAaJskj9UZId1U-116">
          <mxGeometry x="20" y="20" width="150" height="60" as="geometry" />
        </mxCell>
        <mxCell id="zCkMb1hAaJskj9UZId1U-118" value="" style="html=1;dashed=0;whitespace=wrap;fillColor=#2875E2;strokeColor=#ffffff;points=[[0.005,0.63,0],[0.1,0.2,0],[0.9,0.2,0],[0.5,0,0],[0.995,0.63,0],[0.72,0.99,0],[0.5,1,0],[0.28,0.99,0]];shape=mxgraph.kubernetes.icon;prIcon=pod;rounded=1;" vertex="1" parent="zCkMb1hAaJskj9UZId1U-116">
          <mxGeometry width="50" height="48" as="geometry" />
        </mxCell>
        <mxCell id="zCkMb1hAaJskj9UZId1U-119" value="&lt;div style=&quot;font-size: 14px&quot;&gt;&lt;b style=&quot;font-size: 14px&quot;&gt;Export service&lt;/b&gt;&lt;/div&gt;" style="text;html=1;strokeColor=none;fillColor=none;align=center;verticalAlign=middle;whiteSpace=wrap;fontSize=14;rounded=1;" vertex="1" parent="zCkMb1hAaJskj9UZId1U-116">
          <mxGeometry x="25" y="30" width="140" height="40" as="geometry" />
        </mxCell>
        <mxCell id="zCkMb1hAaJskj9UZId1U-120" value="" style="html=1;aspect=fixed;strokeColor=none;shadow=0;align=center;verticalAlign=top;fillColor=#3B8DF1;shape=mxgraph.gcp2.cloud_monitoring;fontSize=14;fontColor=#000000;rounded=1;" vertex="1" parent="zCkMb1hAaJskj9UZId1U-116">
          <mxGeometry x="150" y="60" width="18" height="20" as="geometry" />
        </mxCell>
        <mxCell id="zCkMb1hAaJskj9UZId1U-121" style="edgeStyle=orthogonalEdgeStyle;orthogonalLoop=1;jettySize=auto;html=1;exitX=0.5;exitY=1;exitDx=0;exitDy=0;entryX=1;entryY=0.5;entryDx=0;entryDy=0;fontSize=21;fontColor=#000000;startArrow=classic;startFill=1;endArrow=classic;endFill=1;strokeColor=#000000;strokeWidth=1;" edge="1" parent="zCkMb1hAaJskj9UZId1U-1" source="zCkMb1hAaJskj9UZId1U-117" target="zCkMb1hAaJskj9UZId1U-108">
          <mxGeometry relative="1" as="geometry" />
        </mxCell>
        <mxCell id="zCkMb1hAaJskj9UZId1U-122" value="" style="edgeStyle=orthogonalEdgeStyle;orthogonalLoop=1;jettySize=auto;html=1;fontSize=21;fontColor=#000000;startArrow=classic;startFill=1;endArrow=classic;endFill=1;strokeColor=#000000;strokeWidth=1;exitX=0.5;exitY=0;exitDx=0;exitDy=0;" edge="1" parent="zCkMb1hAaJskj9UZId1U-1">
          <mxGeometry relative="1" as="geometry">
            <mxPoint x="1606" y="520" as="sourcePoint" />
            <mxPoint x="1686" y="440" as="targetPoint" />
          </mxGeometry>
        </mxCell>
        <mxCell id="zCkMb1hAaJskj9UZId1U-123" value="" style="group;rounded=1;" vertex="1" connectable="0" parent="zCkMb1hAaJskj9UZId1U-1">
          <mxGeometry x="1520" y="500" width="170" height="80" as="geometry" />
        </mxCell>
        <mxCell id="zCkMb1hAaJskj9UZId1U-124" value="" style="whiteSpace=wrap;html=1;fillColor=#f5f5f5;strokeColor=#666666;fontColor=#333333;rounded=1;" vertex="1" parent="zCkMb1hAaJskj9UZId1U-123">
          <mxGeometry x="20" y="20" width="150" height="60" as="geometry" />
        </mxCell>
        <mxCell id="zCkMb1hAaJskj9UZId1U-125" value="&lt;div style=&quot;font-size: 14px&quot;&gt;&lt;b style=&quot;font-size: 14px&quot;&gt;Data feed&lt;/b&gt;&lt;/div&gt;" style="text;html=1;strokeColor=none;fillColor=none;align=center;verticalAlign=middle;whiteSpace=wrap;fontSize=14;rounded=1;" vertex="1" parent="zCkMb1hAaJskj9UZId1U-123">
          <mxGeometry x="25" y="30" width="140" height="40" as="geometry" />
        </mxCell>
        <mxCell id="zCkMb1hAaJskj9UZId1U-126" value="" style="outlineConnect=0;dashed=0;verticalLabelPosition=bottom;verticalAlign=top;align=center;html=1;shape=mxgraph.aws3.data_pipeline;fillColor=#F58534;gradientColor=none;fontSize=21;fontColor=#000000;rounded=1;" vertex="1" parent="zCkMb1hAaJskj9UZId1U-123">
          <mxGeometry width="38.5" height="46.2" as="geometry" />
        </mxCell>
        <mxCell id="zCkMb1hAaJskj9UZId1U-127" value="" style="group;rounded=1;" vertex="1" connectable="0" parent="zCkMb1hAaJskj9UZId1U-1">
          <mxGeometry x="1731" y="500" width="170" height="80" as="geometry" />
        </mxCell>
        <mxCell id="zCkMb1hAaJskj9UZId1U-128" value="" style="whiteSpace=wrap;html=1;fillColor=#dae8fc;strokeColor=#6c8ebf;rounded=1;" vertex="1" parent="zCkMb1hAaJskj9UZId1U-127">
          <mxGeometry x="20" y="20" width="150" height="60" as="geometry" />
        </mxCell>
        <mxCell id="zCkMb1hAaJskj9UZId1U-129" value="&lt;div style=&quot;font-size: 14px&quot;&gt;&lt;b&gt;Data seed&lt;/b&gt;&lt;/div&gt;" style="text;html=1;strokeColor=none;fillColor=none;align=center;verticalAlign=middle;whiteSpace=wrap;fontSize=14;rounded=1;" vertex="1" parent="zCkMb1hAaJskj9UZId1U-127">
          <mxGeometry x="25" y="30" width="140" height="40" as="geometry" />
        </mxCell>
        <mxCell id="zCkMb1hAaJskj9UZId1U-130" value="" style="html=1;dashed=0;whitespace=wrap;fillColor=#2875E2;strokeColor=#ffffff;points=[[0.005,0.63,0],[0.1,0.2,0],[0.9,0.2,0],[0.5,0,0],[0.995,0.63,0],[0.72,0.99,0],[0.5,1,0],[0.28,0.99,0]];shape=mxgraph.kubernetes.icon;prIcon=sched;fontSize=21;fontColor=#000000;rounded=1;" vertex="1" parent="zCkMb1hAaJskj9UZId1U-127">
          <mxGeometry width="50" height="48" as="geometry" />
        </mxCell>
        <mxCell id="zCkMb1hAaJskj9UZId1U-131" style="edgeStyle=orthogonalEdgeStyle;orthogonalLoop=1;jettySize=auto;html=1;exitX=0.75;exitY=1;exitDx=0;exitDy=0;entryX=0.5;entryY=0;entryDx=0;entryDy=0;fontSize=21;fontColor=#000000;startArrow=classic;startFill=1;endArrow=classic;endFill=1;strokeColor=#000000;strokeWidth=1;" edge="1" parent="zCkMb1hAaJskj9UZId1U-1" source="zCkMb1hAaJskj9UZId1U-108" target="zCkMb1hAaJskj9UZId1U-128">
          <mxGeometry relative="1" as="geometry" />
        </mxCell>
        <mxCell id="zCkMb1hAaJskj9UZId1U-132" value="" style="group;rounded=1;" vertex="1" connectable="0" parent="zCkMb1hAaJskj9UZId1U-1">
          <mxGeometry x="1731" y="657" width="170" height="80" as="geometry" />
        </mxCell>
        <mxCell id="zCkMb1hAaJskj9UZId1U-133" value="" style="whiteSpace=wrap;html=1;fillColor=#f8cecc;strokeColor=#b85450;rounded=1;" vertex="1" parent="zCkMb1hAaJskj9UZId1U-132">
          <mxGeometry x="20" y="20" width="150" height="60" as="geometry" />
        </mxCell>
        <mxCell id="zCkMb1hAaJskj9UZId1U-134" value="&lt;div style=&quot;font-size: 14px&quot;&gt;&lt;b&gt;PropertyData&lt;/b&gt;&lt;/div&gt;" style="text;html=1;strokeColor=none;fillColor=none;align=center;verticalAlign=middle;whiteSpace=wrap;fontSize=14;rounded=1;" vertex="1" parent="zCkMb1hAaJskj9UZId1U-132">
          <mxGeometry x="25" y="30" width="140" height="40" as="geometry" />
        </mxCell>
        <mxCell id="zCkMb1hAaJskj9UZId1U-135" value="" style="html=1;dashed=0;whitespace=wrap;fillColor=#2875E2;strokeColor=#ffffff;points=[[0.005,0.63,0],[0.1,0.2,0],[0.9,0.2,0],[0.5,0,0],[0.995,0.63,0],[0.72,0.99,0],[0.5,1,0],[0.28,0.99,0]];shape=mxgraph.kubernetes.icon;prIcon=api;fontSize=14;fontColor=#000000;rounded=1;" vertex="1" parent="zCkMb1hAaJskj9UZId1U-132">
          <mxGeometry width="50" height="48" as="geometry" />
        </mxCell>
        <mxCell id="zCkMb1hAaJskj9UZId1U-136" value="" style="edgeStyle=orthogonalEdgeStyle;orthogonalLoop=1;jettySize=auto;html=1;fontSize=21;fontColor=#000000;startArrow=classic;startFill=1;endArrow=classic;endFill=1;strokeColor=#000000;strokeWidth=1;entryX=0.5;entryY=0;entryDx=0;entryDy=0;" edge="1" parent="zCkMb1hAaJskj9UZId1U-1" target="zCkMb1hAaJskj9UZId1U-133">
          <mxGeometry relative="1" as="geometry">
            <mxPoint x="1826" y="580" as="sourcePoint" />
            <mxPoint x="1826" y="670" as="targetPoint" />
          </mxGeometry>
        </mxCell>
        <mxCell id="zCkMb1hAaJskj9UZId1U-137" value="" style="group;rounded=1;" vertex="1" connectable="0" parent="zCkMb1hAaJskj9UZId1U-1">
          <mxGeometry x="1520" y="657" width="170" height="80" as="geometry" />
        </mxCell>
        <mxCell id="zCkMb1hAaJskj9UZId1U-138" value="" style="whiteSpace=wrap;html=1;fillColor=#f8cecc;strokeColor=#b85450;rounded=1;" vertex="1" parent="zCkMb1hAaJskj9UZId1U-137">
          <mxGeometry x="20" y="20" width="150" height="60" as="geometry" />
        </mxCell>
        <mxCell id="zCkMb1hAaJskj9UZId1U-139" value="&lt;div style=&quot;font-size: 14px&quot;&gt;&lt;b style=&quot;font-size: 14px&quot;&gt;Data export&lt;/b&gt;&lt;/div&gt;" style="text;html=1;strokeColor=none;fillColor=none;align=center;verticalAlign=middle;whiteSpace=wrap;fontSize=14;rounded=1;" vertex="1" parent="zCkMb1hAaJskj9UZId1U-137">
          <mxGeometry x="25" y="30" width="140" height="40" as="geometry" />
        </mxCell>
        <mxCell id="zCkMb1hAaJskj9UZId1U-140" value="" style="html=1;dashed=0;whitespace=wrap;fillColor=#2875E2;strokeColor=#ffffff;points=[[0.005,0.63,0],[0.1,0.2,0],[0.9,0.2,0],[0.5,0,0],[0.995,0.63,0],[0.72,0.99,0],[0.5,1,0],[0.28,0.99,0]];shape=mxgraph.kubernetes.icon;prIcon=api;fontSize=14;fontColor=#000000;rounded=1;" vertex="1" parent="zCkMb1hAaJskj9UZId1U-137">
          <mxGeometry width="50" height="48" as="geometry" />
        </mxCell>
        <mxCell id="zCkMb1hAaJskj9UZId1U-141" value="" style="edgeStyle=orthogonalEdgeStyle;rounded=0;orthogonalLoop=1;jettySize=auto;html=1;fontSize=21;fontColor=#000000;startArrow=none;startFill=0;endArrow=classic;endFill=1;strokeColor=#000000;strokeWidth=1;exitX=0.5;exitY=0;exitDx=0;exitDy=0;" edge="1" parent="zCkMb1hAaJskj9UZId1U-1">
          <mxGeometry relative="1" as="geometry">
            <mxPoint x="1606" y="676.9999999999998" as="sourcePoint" />
            <mxPoint x="1606" y="580" as="targetPoint" />
          </mxGeometry>
        </mxCell>
        <mxCell id="VDne253Xe865EOl9DDsy-10" value="" style="shape=image;verticalLabelPosition=bottom;labelBackgroundColor=#ffffff;verticalAlign=top;aspect=fixed;imageAspect=0;image=https://raw.githubusercontent.com/knative/website/673f3d27fb5f58ecbeac8d7fbee703408d263335/assets/icons/logo.svg;" vertex="1" parent="zCkMb1hAaJskj9UZId1U-1">
          <mxGeometry x="-290" y="271.92" width="75" height="60.63" as="geometry" />
        </mxCell>
        <mxCell id="VDne253Xe865EOl9DDsy-18" value="" style="group" vertex="1" connectable="0" parent="zCkMb1hAaJskj9UZId1U-1">
          <mxGeometry x="91" y="360" width="170" height="80" as="geometry" />
        </mxCell>
        <mxCell id="VDne253Xe865EOl9DDsy-16" value="&lt;font style=&quot;font-size: 14px&quot;&gt;&lt;b&gt;Demand stats&lt;/b&gt;&lt;/font&gt;" style="rounded=1;whiteSpace=wrap;html=1;dashed=1;fontSize=21;strokeColor=#d6b656;fillColor=#fff2cc;" vertex="1" parent="VDne253Xe865EOl9DDsy-18">
          <mxGeometry x="20" y="20" width="150" height="60" as="geometry" />
        </mxCell>
        <mxCell id="VDne253Xe865EOl9DDsy-17" value="" style="verticalLabelPosition=bottom;html=1;verticalAlign=top;align=center;strokeColor=none;shape=mxgraph.azure.storage_queue;fontSize=14;fontColor=#000000;fillColor=#2875E2;rounded=1;" vertex="1" parent="VDne253Xe865EOl9DDsy-18">
          <mxGeometry width="50" height="45" as="geometry" />
        </mxCell>
        <mxCell id="VDne253Xe865EOl9DDsy-19" value="" style="group" vertex="1" connectable="0" parent="zCkMb1hAaJskj9UZId1U-1">
          <mxGeometry x="281" y="360" width="170" height="80" as="geometry" />
        </mxCell>
        <mxCell id="VDne253Xe865EOl9DDsy-20" value="&lt;font style=&quot;font-size: 14px&quot;&gt;&lt;b&gt;Growth stats&lt;/b&gt;&lt;/font&gt;" style="rounded=1;whiteSpace=wrap;html=1;dashed=1;fontSize=21;strokeColor=#d6b656;fillColor=#fff2cc;" vertex="1" parent="VDne253Xe865EOl9DDsy-19">
          <mxGeometry x="20" y="20" width="150" height="60" as="geometry" />
        </mxCell>
        <mxCell id="VDne253Xe865EOl9DDsy-21" value="" style="verticalLabelPosition=bottom;html=1;verticalAlign=top;align=center;strokeColor=none;shape=mxgraph.azure.storage_queue;fontSize=14;fontColor=#000000;fillColor=#2875E2;rounded=1;" vertex="1" parent="VDne253Xe865EOl9DDsy-19">
          <mxGeometry width="50" height="45" as="geometry" />
        </mxCell>
        <mxCell id="VDne253Xe865EOl9DDsy-22" value="" style="group" vertex="1" connectable="0" parent="zCkMb1hAaJskj9UZId1U-1">
          <mxGeometry x="460" y="360" width="170" height="80" as="geometry" />
        </mxCell>
        <mxCell id="VDne253Xe865EOl9DDsy-23" value="&lt;font style=&quot;font-size: 14px&quot;&gt;&lt;b&gt;Transactions&lt;/b&gt;&lt;/font&gt;" style="rounded=1;whiteSpace=wrap;html=1;dashed=1;fontSize=21;strokeColor=#d6b656;fillColor=#fff2cc;" vertex="1" parent="VDne253Xe865EOl9DDsy-22">
          <mxGeometry x="20" y="20" width="150" height="60" as="geometry" />
        </mxCell>
        <mxCell id="VDne253Xe865EOl9DDsy-24" value="" style="verticalLabelPosition=bottom;html=1;verticalAlign=top;align=center;strokeColor=none;shape=mxgraph.azure.storage_queue;fontSize=14;fontColor=#000000;fillColor=#2875E2;rounded=1;" vertex="1" parent="VDne253Xe865EOl9DDsy-22">
          <mxGeometry width="50" height="45" as="geometry" />
        </mxCell>
        <mxCell id="VDne253Xe865EOl9DDsy-26" style="edgeStyle=orthogonalEdgeStyle;rounded=0;orthogonalLoop=1;jettySize=auto;html=1;exitX=0.5;exitY=0;exitDx=0;exitDy=0;dashed=1;fontSize=21;fontColor=#000000;startArrow=none;startFill=0;endArrow=classic;endFill=1;strokeColor=#000000;strokeWidth=1;" edge="1" parent="zCkMb1hAaJskj9UZId1U-1" source="zCkMb1hAaJskj9UZId1U-12" target="VDne253Xe865EOl9DDsy-16">
          <mxGeometry relative="1" as="geometry" />
        </mxCell>
        <mxCell id="VDne253Xe865EOl9DDsy-27" style="edgeStyle=orthogonalEdgeStyle;rounded=0;orthogonalLoop=1;jettySize=auto;html=1;exitX=0.5;exitY=0;exitDx=0;exitDy=0;dashed=1;fontSize=21;fontColor=#000000;startArrow=none;startFill=0;endArrow=classic;endFill=1;strokeColor=#000000;strokeWidth=1;" edge="1" parent="zCkMb1hAaJskj9UZId1U-1" source="zCkMb1hAaJskj9UZId1U-16" target="VDne253Xe865EOl9DDsy-20">
          <mxGeometry relative="1" as="geometry" />
        </mxCell>
        <mxCell id="VDne253Xe865EOl9DDsy-28" style="edgeStyle=orthogonalEdgeStyle;rounded=0;orthogonalLoop=1;jettySize=auto;html=1;exitX=0.5;exitY=0;exitDx=0;exitDy=0;dashed=1;fontSize=21;fontColor=#000000;startArrow=none;startFill=0;endArrow=classic;endFill=1;strokeColor=#000000;strokeWidth=1;" edge="1" parent="zCkMb1hAaJskj9UZId1U-1" source="zCkMb1hAaJskj9UZId1U-21" target="VDne253Xe865EOl9DDsy-23">
          <mxGeometry relative="1" as="geometry" />
        </mxCell>
        <mxCell id="VDne253Xe865EOl9DDsy-30" value="" style="group" vertex="1" connectable="0" parent="zCkMb1hAaJskj9UZId1U-1">
          <mxGeometry x="-85" y="360" width="171" height="440" as="geometry" />
        </mxCell>
        <mxCell id="VDne253Xe865EOl9DDsy-14" value="&lt;font style=&quot;font-size: 14px&quot;&gt;&lt;b&gt;Outcode stats&lt;/b&gt;&lt;/font&gt;" style="rounded=1;whiteSpace=wrap;html=1;dashed=1;fontSize=21;strokeColor=#d6b656;fillColor=#fff2cc;" vertex="1" parent="VDne253Xe865EOl9DDsy-30">
          <mxGeometry x="20" y="20" width="150" height="60" as="geometry" />
        </mxCell>
        <mxCell id="VDne253Xe865EOl9DDsy-15" value="" style="verticalLabelPosition=bottom;html=1;verticalAlign=top;align=center;strokeColor=none;shape=mxgraph.azure.storage_queue;fontSize=14;fontColor=#000000;fillColor=#2875E2;rounded=1;" vertex="1" parent="VDne253Xe865EOl9DDsy-30">
          <mxGeometry width="50" height="45" as="geometry" />
        </mxCell>
        <mxCell id="VDne253Xe865EOl9DDsy-25" style="edgeStyle=orthogonalEdgeStyle;rounded=0;orthogonalLoop=1;jettySize=auto;html=1;exitX=0.5;exitY=0;exitDx=0;exitDy=0;entryX=0.5;entryY=1;entryDx=0;entryDy=0;dashed=1;fontSize=21;fontColor=#000000;startArrow=none;startFill=0;endArrow=classic;endFill=1;strokeColor=#000000;strokeWidth=1;" edge="1" parent="VDne253Xe865EOl9DDsy-30" source="zCkMb1hAaJskj9UZId1U-7" target="VDne253Xe865EOl9DDsy-14">
          <mxGeometry relative="1" as="geometry" />
        </mxCell>
        <mxCell id="VDne253Xe865EOl9DDsy-29" value="" style="group" vertex="1" connectable="0" parent="VDne253Xe865EOl9DDsy-30">
          <mxGeometry x="1" y="220" width="170" height="210" as="geometry" />
        </mxCell>
        <mxCell id="zCkMb1hAaJskj9UZId1U-6" value="" style="group;rounded=1;" vertex="1" connectable="0" parent="VDne253Xe865EOl9DDsy-29">
          <mxGeometry width="170" height="80" as="geometry" />
        </mxCell>
        <mxCell id="zCkMb1hAaJskj9UZId1U-7" value="" style="whiteSpace=wrap;html=1;fillColor=#dae8fc;strokeColor=#6c8ebf;rounded=1;" vertex="1" parent="zCkMb1hAaJskj9UZId1U-6">
          <mxGeometry x="20" y="20" width="150" height="60" as="geometry" />
        </mxCell>
        <mxCell id="zCkMb1hAaJskj9UZId1U-8" value="" style="html=1;dashed=0;whitespace=wrap;fillColor=#2875E2;strokeColor=#ffffff;points=[[0.005,0.63,0],[0.1,0.2,0],[0.9,0.2,0],[0.5,0,0],[0.995,0.63,0],[0.72,0.99,0],[0.5,1,0],[0.28,0.99,0]];shape=mxgraph.kubernetes.icon;prIcon=pod;rounded=1;" vertex="1" parent="zCkMb1hAaJskj9UZId1U-6">
          <mxGeometry width="50" height="48" as="geometry" />
        </mxCell>
        <mxCell id="zCkMb1hAaJskj9UZId1U-9" value="&lt;div style=&quot;font-size: 14px&quot;&gt;&lt;b style=&quot;font-size: 14px&quot;&gt;Outcode service&lt;/b&gt;&lt;/div&gt;" style="text;html=1;strokeColor=none;fillColor=none;align=center;verticalAlign=middle;whiteSpace=wrap;fontSize=14;rounded=1;" vertex="1" parent="zCkMb1hAaJskj9UZId1U-6">
          <mxGeometry x="25" y="30" width="140" height="40" as="geometry" />
        </mxCell>
        <mxCell id="zCkMb1hAaJskj9UZId1U-10" value="" style="html=1;aspect=fixed;strokeColor=none;shadow=0;align=center;verticalAlign=top;fillColor=#3B8DF1;shape=mxgraph.gcp2.cloud_monitoring;fontSize=14;fontColor=#000000;rounded=1;" vertex="1" parent="zCkMb1hAaJskj9UZId1U-6">
          <mxGeometry x="150" y="60" width="18" height="20" as="geometry" />
        </mxCell>
        <mxCell id="zCkMb1hAaJskj9UZId1U-41" style="edgeStyle=orthogonalEdgeStyle;orthogonalLoop=1;jettySize=auto;html=1;exitX=0.5;exitY=1;exitDx=0;exitDy=0;entryX=0.5;entryY=0;entryDx=0;entryDy=0;fontSize=14;fontColor=#000000;startArrow=classic;startFill=1;" edge="1" parent="VDne253Xe865EOl9DDsy-29" source="zCkMb1hAaJskj9UZId1U-7" target="zCkMb1hAaJskj9UZId1U-87">
          <mxGeometry relative="1" as="geometry">
            <mxPoint x="95" y="120" as="targetPoint" />
          </mxGeometry>
        </mxCell>
        <mxCell id="zCkMb1hAaJskj9UZId1U-86" value="" style="group;rounded=1;" vertex="1" connectable="0" parent="VDne253Xe865EOl9DDsy-29">
          <mxGeometry y="130" width="170" height="80" as="geometry" />
        </mxCell>
        <mxCell id="zCkMb1hAaJskj9UZId1U-87" value="" style="whiteSpace=wrap;html=1;fillColor=#f8cecc;strokeColor=#b85450;rounded=1;" vertex="1" parent="zCkMb1hAaJskj9UZId1U-86">
          <mxGeometry x="20" y="20" width="150" height="60" as="geometry" />
        </mxCell>
        <mxCell id="zCkMb1hAaJskj9UZId1U-88" value="&lt;div style=&quot;font-size: 14px&quot;&gt;&lt;b&gt;PropertyData&lt;/b&gt;&lt;br&gt;&lt;/div&gt;" style="text;html=1;strokeColor=none;fillColor=none;align=center;verticalAlign=middle;whiteSpace=wrap;fontSize=14;rounded=1;" vertex="1" parent="zCkMb1hAaJskj9UZId1U-86">
          <mxGeometry x="25" y="30" width="140" height="40" as="geometry" />
        </mxCell>
        <mxCell id="zCkMb1hAaJskj9UZId1U-89" value="" style="html=1;dashed=0;whitespace=wrap;fillColor=#2875E2;strokeColor=#ffffff;points=[[0.005,0.63,0],[0.1,0.2,0],[0.9,0.2,0],[0.5,0,0],[0.995,0.63,0],[0.72,0.99,0],[0.5,1,0],[0.28,0.99,0]];shape=mxgraph.kubernetes.icon;prIcon=api;fontSize=14;fontColor=#000000;rounded=1;" vertex="1" parent="zCkMb1hAaJskj9UZId1U-86">
          <mxGeometry width="50" height="48" as="geometry" />
        </mxCell>
        <mxCell id="VDne253Xe865EOl9DDsy-31" value="" style="group" vertex="1" connectable="0" parent="zCkMb1hAaJskj9UZId1U-1">
          <mxGeometry x="-270" y="360" width="1680" height="440" as="geometry" />
        </mxCell>
        <mxCell id="VDne253Xe865EOl9DDsy-11" value="&lt;font style=&quot;font-size: 14px&quot;&gt;&lt;b&gt;Yield stats&lt;/b&gt;&lt;/font&gt;" style="rounded=1;whiteSpace=wrap;html=1;dashed=1;fontSize=21;strokeColor=#d6b656;fillColor=#fff2cc;" vertex="1" parent="VDne253Xe865EOl9DDsy-31">
          <mxGeometry x="25" y="20" width="150" height="60" as="geometry" />
        </mxCell>
        <mxCell id="VDne253Xe865EOl9DDsy-12" value="" style="verticalLabelPosition=bottom;html=1;verticalAlign=top;align=center;strokeColor=none;shape=mxgraph.azure.storage_queue;fontSize=14;fontColor=#000000;fillColor=#2875E2;rounded=1;" vertex="1" parent="VDne253Xe865EOl9DDsy-31">
          <mxGeometry x="5" width="50" height="45" as="geometry" />
        </mxCell>
        <mxCell id="VDne253Xe865EOl9DDsy-13" style="edgeStyle=orthogonalEdgeStyle;rounded=0;orthogonalLoop=1;jettySize=auto;html=1;exitX=0.5;exitY=0;exitDx=0;exitDy=0;fontSize=21;fontColor=#000000;startArrow=none;startFill=0;endArrow=classic;endFill=1;strokeColor=#000000;strokeWidth=1;dashed=1;" edge="1" parent="VDne253Xe865EOl9DDsy-31" source="zCkMb1hAaJskj9UZId1U-76" target="VDne253Xe865EOl9DDsy-11">
          <mxGeometry relative="1" as="geometry" />
        </mxCell>
        <mxCell id="zCkMb1hAaJskj9UZId1U-76" value="" style="whiteSpace=wrap;html=1;fillColor=#dae8fc;strokeColor=#6c8ebf;rounded=1;" vertex="1" parent="VDne253Xe865EOl9DDsy-31">
          <mxGeometry x="24" y="240" width="150" height="60" as="geometry" />
        </mxCell>
        <mxCell id="zCkMb1hAaJskj9UZId1U-77" value="" style="html=1;dashed=0;whitespace=wrap;fillColor=#2875E2;strokeColor=#ffffff;points=[[0.005,0.63,0],[0.1,0.2,0],[0.9,0.2,0],[0.5,0,0],[0.995,0.63,0],[0.72,0.99,0],[0.5,1,0],[0.28,0.99,0]];shape=mxgraph.kubernetes.icon;prIcon=pod;rounded=1;" vertex="1" parent="VDne253Xe865EOl9DDsy-31">
          <mxGeometry y="220" width="50" height="48" as="geometry" />
        </mxCell>
        <mxCell id="zCkMb1hAaJskj9UZId1U-78" value="&lt;div style=&quot;font-size: 14px&quot;&gt;&lt;b style=&quot;font-size: 14px&quot;&gt;Yield service&lt;/b&gt;&lt;/div&gt;" style="text;html=1;strokeColor=none;fillColor=none;align=center;verticalAlign=middle;whiteSpace=wrap;fontSize=14;rounded=1;" vertex="1" parent="VDne253Xe865EOl9DDsy-31">
          <mxGeometry x="29" y="250" width="140" height="40" as="geometry" />
        </mxCell>
        <mxCell id="zCkMb1hAaJskj9UZId1U-79" value="" style="html=1;aspect=fixed;strokeColor=none;shadow=0;align=center;verticalAlign=top;fillColor=#3B8DF1;shape=mxgraph.gcp2.cloud_monitoring;fontSize=14;fontColor=#000000;rounded=1;" vertex="1" parent="VDne253Xe865EOl9DDsy-31">
          <mxGeometry x="154" y="280" width="18" height="20" as="geometry" />
        </mxCell>
        <mxCell id="zCkMb1hAaJskj9UZId1U-82" value="" style="group;rounded=1;" vertex="1" connectable="0" parent="VDne253Xe865EOl9DDsy-31">
          <mxGeometry x="4" y="350" width="170" height="80" as="geometry" />
        </mxCell>
        <mxCell id="zCkMb1hAaJskj9UZId1U-83" value="" style="whiteSpace=wrap;html=1;fillColor=#f8cecc;strokeColor=#b85450;rounded=1;" vertex="1" parent="zCkMb1hAaJskj9UZId1U-82">
          <mxGeometry x="20" y="20" width="150" height="60" as="geometry" />
        </mxCell>
        <mxCell id="zCkMb1hAaJskj9UZId1U-84" value="&lt;div style=&quot;font-size: 14px&quot;&gt;&lt;b style=&quot;font-size: 14px&quot;&gt;PropertyData&lt;/b&gt;&lt;/div&gt;" style="text;html=1;strokeColor=none;fillColor=none;align=center;verticalAlign=middle;whiteSpace=wrap;fontSize=14;rounded=1;" vertex="1" parent="zCkMb1hAaJskj9UZId1U-82">
          <mxGeometry x="25" y="30" width="140" height="40" as="geometry" />
        </mxCell>
        <mxCell id="zCkMb1hAaJskj9UZId1U-85" value="" style="html=1;dashed=0;whitespace=wrap;fillColor=#2875E2;strokeColor=#ffffff;points=[[0.005,0.63,0],[0.1,0.2,0],[0.9,0.2,0],[0.5,0,0],[0.995,0.63,0],[0.72,0.99,0],[0.5,1,0],[0.28,0.99,0]];shape=mxgraph.kubernetes.icon;prIcon=api;fontSize=14;fontColor=#000000;rounded=1;" vertex="1" parent="zCkMb1hAaJskj9UZId1U-82">
          <mxGeometry width="50" height="48" as="geometry" />
        </mxCell>
        <mxCell id="zCkMb1hAaJskj9UZId1U-103" style="edgeStyle=orthogonalEdgeStyle;orthogonalLoop=1;jettySize=auto;html=1;exitX=0.5;exitY=1;exitDx=0;exitDy=0;entryX=0.5;entryY=0;entryDx=0;entryDy=0;fontSize=14;fontColor=#000000;startArrow=classic;startFill=1;endArrow=classic;endFill=1;" edge="1" parent="VDne253Xe865EOl9DDsy-31" source="zCkMb1hAaJskj9UZId1U-76" target="zCkMb1hAaJskj9UZId1U-83">
          <mxGeometry relative="1" as="geometry" />
        </mxCell>
        <mxCell id="VDne253Xe865EOl9DDsy-9" value="" style="rounded=1;whiteSpace=wrap;html=1;dashed=1;fontSize=21;fontColor=#000000;strokeColor=#2875E2;fillColor=none;" vertex="1" parent="VDne253Xe865EOl9DDsy-31">
          <mxGeometry y="-60" width="1680" height="220" as="geometry" />
        </mxCell>
        <mxCell id="VDne253Xe865EOl9DDsy-47" value="" style="group" vertex="1" connectable="0" parent="VDne253Xe865EOl9DDsy-31">
          <mxGeometry x="1070" y="40" width="170" height="80" as="geometry" />
        </mxCell>
        <mxCell id="VDne253Xe865EOl9DDsy-48" value="&lt;span style=&quot;font-size: 14px&quot;&gt;&lt;b&gt;Mortgage enquiries&lt;/b&gt;&lt;/span&gt;" style="rounded=1;whiteSpace=wrap;html=1;dashed=1;fontSize=21;strokeColor=#d6b656;fillColor=#fff2cc;" vertex="1" parent="VDne253Xe865EOl9DDsy-47">
          <mxGeometry x="20" y="20" width="150" height="60" as="geometry" />
        </mxCell>
        <mxCell id="VDne253Xe865EOl9DDsy-49" value="" style="verticalLabelPosition=bottom;html=1;verticalAlign=top;align=center;strokeColor=none;shape=mxgraph.azure.storage_queue;fontSize=14;fontColor=#000000;fillColor=#2875E2;rounded=1;" vertex="1" parent="VDne253Xe865EOl9DDsy-47">
          <mxGeometry width="50" height="45" as="geometry" />
        </mxCell>
        <mxCell id="VDne253Xe865EOl9DDsy-37" value="" style="group" vertex="1" connectable="0" parent="VDne253Xe865EOl9DDsy-31">
          <mxGeometry x="910" y="-40" width="170" height="80" as="geometry" />
        </mxCell>
        <mxCell id="VDne253Xe865EOl9DDsy-38" value="&lt;span style=&quot;font-size: 14px&quot;&gt;&lt;b&gt;Buyer enquiries&lt;/b&gt;&lt;/span&gt;" style="rounded=1;whiteSpace=wrap;html=1;dashed=1;fontSize=21;strokeColor=#d6b656;fillColor=#fff2cc;" vertex="1" parent="VDne253Xe865EOl9DDsy-37">
          <mxGeometry x="20" y="20" width="150" height="60" as="geometry" />
        </mxCell>
        <mxCell id="VDne253Xe865EOl9DDsy-39" value="" style="verticalLabelPosition=bottom;html=1;verticalAlign=top;align=center;strokeColor=none;shape=mxgraph.azure.storage_queue;fontSize=14;fontColor=#000000;fillColor=#2875E2;rounded=1;" vertex="1" parent="VDne253Xe865EOl9DDsy-37">
          <mxGeometry width="50" height="45" as="geometry" />
        </mxCell>
        <mxCell id="VDne253Xe865EOl9DDsy-41" value="" style="group" vertex="1" connectable="0" parent="VDne253Xe865EOl9DDsy-31">
          <mxGeometry x="910" y="40" width="170" height="80" as="geometry" />
        </mxCell>
        <mxCell id="VDne253Xe865EOl9DDsy-42" value="&lt;span style=&quot;font-size: 14px&quot;&gt;&lt;b&gt;Concierge enquiries&lt;/b&gt;&lt;/span&gt;" style="rounded=1;whiteSpace=wrap;html=1;dashed=1;fontSize=21;strokeColor=#d6b656;fillColor=#fff2cc;" vertex="1" parent="VDne253Xe865EOl9DDsy-41">
          <mxGeometry x="20" y="20" width="150" height="60" as="geometry" />
        </mxCell>
        <mxCell id="VDne253Xe865EOl9DDsy-43" value="" style="verticalLabelPosition=bottom;html=1;verticalAlign=top;align=center;strokeColor=none;shape=mxgraph.azure.storage_queue;fontSize=14;fontColor=#000000;fillColor=#2875E2;rounded=1;" vertex="1" parent="VDne253Xe865EOl9DDsy-41">
          <mxGeometry width="50" height="45" as="geometry" />
        </mxCell>
        <mxCell id="VDne253Xe865EOl9DDsy-44" value="" style="group" vertex="1" connectable="0" parent="VDne253Xe865EOl9DDsy-31">
          <mxGeometry x="1070" y="-35" width="170" height="185" as="geometry" />
        </mxCell>
        <mxCell id="VDne253Xe865EOl9DDsy-45" value="&lt;span style=&quot;font-size: 14px&quot;&gt;&lt;b&gt;Seller enquiries&lt;/b&gt;&lt;/span&gt;" style="rounded=1;whiteSpace=wrap;html=1;dashed=1;fontSize=21;strokeColor=#d6b656;fillColor=#fff2cc;" vertex="1" parent="VDne253Xe865EOl9DDsy-44">
          <mxGeometry x="20" y="20" width="150" height="60" as="geometry" />
        </mxCell>
        <mxCell id="VDne253Xe865EOl9DDsy-46" value="" style="verticalLabelPosition=bottom;html=1;verticalAlign=top;align=center;strokeColor=none;shape=mxgraph.azure.storage_queue;fontSize=14;fontColor=#000000;fillColor=#2875E2;rounded=1;" vertex="1" parent="VDne253Xe865EOl9DDsy-44">
          <mxGeometry width="50" height="45" as="geometry" />
        </mxCell>
        <mxCell id="EVQcGmpFk6tgbp6EQ603-22" value="" style="group" vertex="1" connectable="0" parent="VDne253Xe865EOl9DDsy-31">
          <mxGeometry x="1102" y="230" width="170" height="210" as="geometry" />
        </mxCell>
        <mxCell id="EVQcGmpFk6tgbp6EQ603-0" value="" style="group;rounded=1;" vertex="1" connectable="0" parent="EVQcGmpFk6tgbp6EQ603-22">
          <mxGeometry width="170" height="80" as="geometry" />
        </mxCell>
        <mxCell id="EVQcGmpFk6tgbp6EQ603-1" value="" style="whiteSpace=wrap;html=1;fillColor=#dae8fc;strokeColor=#6c8ebf;rounded=1;" vertex="1" parent="EVQcGmpFk6tgbp6EQ603-0">
          <mxGeometry x="20" y="20" width="150" height="60" as="geometry" />
        </mxCell>
        <mxCell id="EVQcGmpFk6tgbp6EQ603-2" value="" style="html=1;dashed=0;whitespace=wrap;fillColor=#2875E2;strokeColor=#ffffff;points=[[0.005,0.63,0],[0.1,0.2,0],[0.9,0.2,0],[0.5,0,0],[0.995,0.63,0],[0.72,0.99,0],[0.5,1,0],[0.28,0.99,0]];shape=mxgraph.kubernetes.icon;prIcon=pod;rounded=1;" vertex="1" parent="EVQcGmpFk6tgbp6EQ603-0">
          <mxGeometry width="50" height="48" as="geometry" />
        </mxCell>
        <mxCell id="EVQcGmpFk6tgbp6EQ603-3" value="&lt;div style=&quot;font-size: 14px&quot;&gt;&lt;b style=&quot;font-size: 14px&quot;&gt;CRM service&lt;/b&gt;&lt;/div&gt;" style="text;html=1;strokeColor=none;fillColor=none;align=center;verticalAlign=middle;whiteSpace=wrap;fontSize=14;rounded=1;" vertex="1" parent="EVQcGmpFk6tgbp6EQ603-0">
          <mxGeometry x="25" y="30" width="140" height="40" as="geometry" />
        </mxCell>
        <mxCell id="EVQcGmpFk6tgbp6EQ603-4" value="" style="group;rounded=1;" vertex="1" connectable="0" parent="EVQcGmpFk6tgbp6EQ603-22">
          <mxGeometry y="130" width="170" height="80" as="geometry" />
        </mxCell>
        <mxCell id="EVQcGmpFk6tgbp6EQ603-5" value="" style="whiteSpace=wrap;html=1;fillColor=#f8cecc;strokeColor=#b85450;rounded=1;" vertex="1" parent="EVQcGmpFk6tgbp6EQ603-4">
          <mxGeometry x="20" y="20" width="150" height="60" as="geometry" />
        </mxCell>
        <mxCell id="EVQcGmpFk6tgbp6EQ603-6" value="&lt;div style=&quot;font-size: 14px&quot;&gt;&lt;b style=&quot;font-size: 14px&quot;&gt;Podio&lt;/b&gt;&lt;/div&gt;" style="text;html=1;strokeColor=none;fillColor=none;align=center;verticalAlign=middle;whiteSpace=wrap;fontSize=14;rounded=1;" vertex="1" parent="EVQcGmpFk6tgbp6EQ603-4">
          <mxGeometry x="25" y="30" width="140" height="40" as="geometry" />
        </mxCell>
        <mxCell id="EVQcGmpFk6tgbp6EQ603-7" value="" style="html=1;dashed=0;whitespace=wrap;fillColor=#2875E2;strokeColor=#ffffff;points=[[0.005,0.63,0],[0.1,0.2,0],[0.9,0.2,0],[0.5,0,0],[0.995,0.63,0],[0.72,0.99,0],[0.5,1,0],[0.28,0.99,0]];shape=mxgraph.kubernetes.icon;prIcon=api;fontSize=14;fontColor=#000000;rounded=1;" vertex="1" parent="EVQcGmpFk6tgbp6EQ603-4">
          <mxGeometry width="50" height="48" as="geometry" />
        </mxCell>
        <mxCell id="EVQcGmpFk6tgbp6EQ603-8" style="edgeStyle=orthogonalEdgeStyle;orthogonalLoop=1;jettySize=auto;html=1;exitX=0.5;exitY=1;exitDx=0;exitDy=0;entryX=0.5;entryY=0;entryDx=0;entryDy=0;fontSize=14;fontColor=#000000;startArrow=classic;startFill=1;endArrow=classic;endFill=1;" edge="1" parent="EVQcGmpFk6tgbp6EQ603-22" source="EVQcGmpFk6tgbp6EQ603-1" target="EVQcGmpFk6tgbp6EQ603-5">
          <mxGeometry relative="1" as="geometry" />
        </mxCell>
        <mxCell id="VDne253Xe865EOl9DDsy-32" value="" style="group" vertex="1" connectable="0" parent="zCkMb1hAaJskj9UZId1U-1">
          <mxGeometry x="92" y="590" width="170" height="210" as="geometry" />
        </mxCell>
        <mxCell id="zCkMb1hAaJskj9UZId1U-11" value="" style="group;rounded=1;" vertex="1" connectable="0" parent="VDne253Xe865EOl9DDsy-32">
          <mxGeometry width="170" height="80" as="geometry" />
        </mxCell>
        <mxCell id="zCkMb1hAaJskj9UZId1U-12" value="" style="whiteSpace=wrap;html=1;fillColor=#dae8fc;strokeColor=#6c8ebf;rounded=1;" vertex="1" parent="zCkMb1hAaJskj9UZId1U-11">
          <mxGeometry x="20" y="20" width="150" height="60" as="geometry" />
        </mxCell>
        <mxCell id="zCkMb1hAaJskj9UZId1U-13" value="" style="html=1;dashed=0;whitespace=wrap;fillColor=#2875E2;strokeColor=#ffffff;points=[[0.005,0.63,0],[0.1,0.2,0],[0.9,0.2,0],[0.5,0,0],[0.995,0.63,0],[0.72,0.99,0],[0.5,1,0],[0.28,0.99,0]];shape=mxgraph.kubernetes.icon;prIcon=pod;rounded=1;" vertex="1" parent="zCkMb1hAaJskj9UZId1U-11">
          <mxGeometry width="50" height="48" as="geometry" />
        </mxCell>
        <mxCell id="zCkMb1hAaJskj9UZId1U-14" value="&lt;div style=&quot;font-size: 14px&quot;&gt;&lt;b style=&quot;font-size: 14px&quot;&gt;Demand service&lt;/b&gt;&lt;/div&gt;" style="text;html=1;strokeColor=none;fillColor=none;align=center;verticalAlign=middle;whiteSpace=wrap;fontSize=14;rounded=1;" vertex="1" parent="zCkMb1hAaJskj9UZId1U-11">
          <mxGeometry x="25" y="30" width="140" height="40" as="geometry" />
        </mxCell>
        <mxCell id="zCkMb1hAaJskj9UZId1U-91" value="" style="group;rounded=1;" vertex="1" connectable="0" parent="VDne253Xe865EOl9DDsy-32">
          <mxGeometry y="130" width="170" height="80" as="geometry" />
        </mxCell>
        <mxCell id="zCkMb1hAaJskj9UZId1U-92" value="" style="whiteSpace=wrap;html=1;fillColor=#f8cecc;strokeColor=#b85450;rounded=1;" vertex="1" parent="zCkMb1hAaJskj9UZId1U-91">
          <mxGeometry x="20" y="20" width="150" height="60" as="geometry" />
        </mxCell>
        <mxCell id="zCkMb1hAaJskj9UZId1U-93" value="&lt;div style=&quot;font-size: 14px&quot;&gt;&lt;b&gt;PropertyData&lt;/b&gt;&lt;br&gt;&lt;/div&gt;" style="text;html=1;strokeColor=none;fillColor=none;align=center;verticalAlign=middle;whiteSpace=wrap;fontSize=14;rounded=1;" vertex="1" parent="zCkMb1hAaJskj9UZId1U-91">
          <mxGeometry x="25" y="30" width="140" height="40" as="geometry" />
        </mxCell>
        <mxCell id="zCkMb1hAaJskj9UZId1U-94" value="" style="html=1;dashed=0;whitespace=wrap;fillColor=#2875E2;strokeColor=#ffffff;points=[[0.005,0.63,0],[0.1,0.2,0],[0.9,0.2,0],[0.5,0,0],[0.995,0.63,0],[0.72,0.99,0],[0.5,1,0],[0.28,0.99,0]];shape=mxgraph.kubernetes.icon;prIcon=api;fontSize=14;fontColor=#000000;rounded=1;" vertex="1" parent="zCkMb1hAaJskj9UZId1U-91">
          <mxGeometry width="50" height="48" as="geometry" />
        </mxCell>
        <mxCell id="zCkMb1hAaJskj9UZId1U-104" style="edgeStyle=orthogonalEdgeStyle;orthogonalLoop=1;jettySize=auto;html=1;exitX=0.5;exitY=1;exitDx=0;exitDy=0;fontSize=14;fontColor=#000000;startArrow=classic;startFill=1;endArrow=classic;endFill=1;" edge="1" parent="VDne253Xe865EOl9DDsy-32" source="zCkMb1hAaJskj9UZId1U-12" target="zCkMb1hAaJskj9UZId1U-92">
          <mxGeometry relative="1" as="geometry" />
        </mxCell>
        <mxCell id="zCkMb1hAaJskj9UZId1U-112" value="" style="html=1;aspect=fixed;strokeColor=none;shadow=0;align=center;verticalAlign=top;fillColor=#3B8DF1;shape=mxgraph.gcp2.cloud_monitoring;fontSize=14;fontColor=#000000;rounded=1;" vertex="1" parent="VDne253Xe865EOl9DDsy-32">
          <mxGeometry x="150" y="60" width="18" height="20" as="geometry" />
        </mxCell>
        <mxCell id="VDne253Xe865EOl9DDsy-33" value="" style="group" vertex="1" connectable="0" parent="zCkMb1hAaJskj9UZId1U-1">
          <mxGeometry x="282" y="590" width="170" height="210" as="geometry" />
        </mxCell>
        <mxCell id="zCkMb1hAaJskj9UZId1U-15" value="" style="group;rounded=1;" vertex="1" connectable="0" parent="VDne253Xe865EOl9DDsy-33">
          <mxGeometry width="170" height="80" as="geometry" />
        </mxCell>
        <mxCell id="zCkMb1hAaJskj9UZId1U-16" value="" style="whiteSpace=wrap;html=1;fillColor=#dae8fc;strokeColor=#6c8ebf;rounded=1;" vertex="1" parent="zCkMb1hAaJskj9UZId1U-15">
          <mxGeometry x="20" y="20" width="150" height="60" as="geometry" />
        </mxCell>
        <mxCell id="zCkMb1hAaJskj9UZId1U-17" value="" style="html=1;dashed=0;whitespace=wrap;fillColor=#2875E2;strokeColor=#ffffff;points=[[0.005,0.63,0],[0.1,0.2,0],[0.9,0.2,0],[0.5,0,0],[0.995,0.63,0],[0.72,0.99,0],[0.5,1,0],[0.28,0.99,0]];shape=mxgraph.kubernetes.icon;prIcon=pod;rounded=1;" vertex="1" parent="zCkMb1hAaJskj9UZId1U-15">
          <mxGeometry width="50" height="48" as="geometry" />
        </mxCell>
        <mxCell id="zCkMb1hAaJskj9UZId1U-18" value="&lt;div style=&quot;font-size: 14px&quot;&gt;&lt;b style=&quot;font-size: 14px&quot;&gt;Growth&lt;/b&gt;&lt;b&gt;&amp;nbsp;service&lt;/b&gt;&lt;/div&gt;" style="text;html=1;strokeColor=none;fillColor=none;align=center;verticalAlign=middle;whiteSpace=wrap;fontSize=14;rounded=1;" vertex="1" parent="zCkMb1hAaJskj9UZId1U-15">
          <mxGeometry x="25" y="30" width="140" height="40" as="geometry" />
        </mxCell>
        <mxCell id="zCkMb1hAaJskj9UZId1U-19" value="" style="html=1;aspect=fixed;strokeColor=none;shadow=0;align=center;verticalAlign=top;fillColor=#3B8DF1;shape=mxgraph.gcp2.cloud_monitoring;fontSize=14;fontColor=#000000;rounded=1;" vertex="1" parent="zCkMb1hAaJskj9UZId1U-15">
          <mxGeometry x="150" y="60" width="18" height="20" as="geometry" />
        </mxCell>
        <mxCell id="zCkMb1hAaJskj9UZId1U-95" value="" style="group;rounded=1;" vertex="1" connectable="0" parent="VDne253Xe865EOl9DDsy-33">
          <mxGeometry y="130" width="170" height="80" as="geometry" />
        </mxCell>
        <mxCell id="zCkMb1hAaJskj9UZId1U-96" value="" style="whiteSpace=wrap;html=1;fillColor=#f8cecc;strokeColor=#b85450;rounded=1;" vertex="1" parent="zCkMb1hAaJskj9UZId1U-95">
          <mxGeometry x="20" y="20" width="150" height="60" as="geometry" />
        </mxCell>
        <mxCell id="zCkMb1hAaJskj9UZId1U-97" value="&lt;div style=&quot;font-size: 14px&quot;&gt;&lt;b&gt;PropertyData&lt;/b&gt;&lt;br&gt;&lt;/div&gt;" style="text;html=1;strokeColor=none;fillColor=none;align=center;verticalAlign=middle;whiteSpace=wrap;fontSize=14;rounded=1;" vertex="1" parent="zCkMb1hAaJskj9UZId1U-95">
          <mxGeometry x="25" y="30" width="140" height="40" as="geometry" />
        </mxCell>
        <mxCell id="zCkMb1hAaJskj9UZId1U-98" value="" style="html=1;dashed=0;whitespace=wrap;fillColor=#2875E2;strokeColor=#ffffff;points=[[0.005,0.63,0],[0.1,0.2,0],[0.9,0.2,0],[0.5,0,0],[0.995,0.63,0],[0.72,0.99,0],[0.5,1,0],[0.28,0.99,0]];shape=mxgraph.kubernetes.icon;prIcon=api;fontSize=14;fontColor=#000000;rounded=1;" vertex="1" parent="zCkMb1hAaJskj9UZId1U-95">
          <mxGeometry width="50" height="48" as="geometry" />
        </mxCell>
        <mxCell id="zCkMb1hAaJskj9UZId1U-105" style="edgeStyle=orthogonalEdgeStyle;orthogonalLoop=1;jettySize=auto;html=1;exitX=0.5;exitY=1;exitDx=0;exitDy=0;entryX=0.5;entryY=0;entryDx=0;entryDy=0;fontSize=14;fontColor=#000000;startArrow=classic;startFill=1;endArrow=classic;endFill=1;" edge="1" parent="VDne253Xe865EOl9DDsy-33" source="zCkMb1hAaJskj9UZId1U-16" target="zCkMb1hAaJskj9UZId1U-96">
          <mxGeometry relative="1" as="geometry" />
        </mxCell>
        <mxCell id="VDne253Xe865EOl9DDsy-34" value="" style="group" vertex="1" connectable="0" parent="zCkMb1hAaJskj9UZId1U-1">
          <mxGeometry x="460" y="590" width="170" height="210" as="geometry" />
        </mxCell>
        <mxCell id="zCkMb1hAaJskj9UZId1U-20" value="" style="group;rounded=1;" vertex="1" connectable="0" parent="VDne253Xe865EOl9DDsy-34">
          <mxGeometry width="170" height="80" as="geometry" />
        </mxCell>
        <mxCell id="zCkMb1hAaJskj9UZId1U-21" value="" style="whiteSpace=wrap;html=1;fillColor=#dae8fc;strokeColor=#6c8ebf;rounded=1;" vertex="1" parent="zCkMb1hAaJskj9UZId1U-20">
          <mxGeometry x="20" y="20" width="150" height="60" as="geometry" />
        </mxCell>
        <mxCell id="zCkMb1hAaJskj9UZId1U-22" value="" style="html=1;dashed=0;whitespace=wrap;fillColor=#2875E2;strokeColor=#ffffff;points=[[0.005,0.63,0],[0.1,0.2,0],[0.9,0.2,0],[0.5,0,0],[0.995,0.63,0],[0.72,0.99,0],[0.5,1,0],[0.28,0.99,0]];shape=mxgraph.kubernetes.icon;prIcon=pod;rounded=1;" vertex="1" parent="zCkMb1hAaJskj9UZId1U-20">
          <mxGeometry width="50" height="48" as="geometry" />
        </mxCell>
        <mxCell id="zCkMb1hAaJskj9UZId1U-23" value="&lt;div style=&quot;font-size: 14px&quot;&gt;&lt;b style=&quot;font-size: 14px&quot;&gt;Transaction service&lt;/b&gt;&lt;/div&gt;" style="text;html=1;strokeColor=none;fillColor=none;align=center;verticalAlign=middle;whiteSpace=wrap;fontSize=14;rounded=1;" vertex="1" parent="zCkMb1hAaJskj9UZId1U-20">
          <mxGeometry x="25" y="30" width="140" height="40" as="geometry" />
        </mxCell>
        <mxCell id="zCkMb1hAaJskj9UZId1U-24" value="" style="html=1;aspect=fixed;strokeColor=none;shadow=0;align=center;verticalAlign=top;fillColor=#3B8DF1;shape=mxgraph.gcp2.cloud_monitoring;fontSize=14;fontColor=#000000;rounded=1;" vertex="1" parent="zCkMb1hAaJskj9UZId1U-20">
          <mxGeometry x="150" y="60" width="18" height="20" as="geometry" />
        </mxCell>
        <mxCell id="zCkMb1hAaJskj9UZId1U-99" value="" style="group;rounded=1;" vertex="1" connectable="0" parent="VDne253Xe865EOl9DDsy-34">
          <mxGeometry y="130" width="170" height="80" as="geometry" />
        </mxCell>
        <mxCell id="zCkMb1hAaJskj9UZId1U-100" value="" style="whiteSpace=wrap;html=1;fillColor=#f8cecc;strokeColor=#b85450;rounded=1;" vertex="1" parent="zCkMb1hAaJskj9UZId1U-99">
          <mxGeometry x="20" y="20" width="150" height="60" as="geometry" />
        </mxCell>
        <mxCell id="zCkMb1hAaJskj9UZId1U-101" value="&lt;div style=&quot;font-size: 14px&quot;&gt;&lt;b style=&quot;font-size: 14px&quot;&gt;Land Registry&lt;/b&gt;&lt;/div&gt;" style="text;html=1;strokeColor=none;fillColor=none;align=center;verticalAlign=middle;whiteSpace=wrap;fontSize=14;rounded=1;" vertex="1" parent="zCkMb1hAaJskj9UZId1U-99">
          <mxGeometry x="25" y="30" width="140" height="40" as="geometry" />
        </mxCell>
        <mxCell id="zCkMb1hAaJskj9UZId1U-102" value="" style="html=1;dashed=0;whitespace=wrap;fillColor=#2875E2;strokeColor=#ffffff;points=[[0.005,0.63,0],[0.1,0.2,0],[0.9,0.2,0],[0.5,0,0],[0.995,0.63,0],[0.72,0.99,0],[0.5,1,0],[0.28,0.99,0]];shape=mxgraph.kubernetes.icon;prIcon=api;fontSize=14;fontColor=#000000;rounded=1;" vertex="1" parent="zCkMb1hAaJskj9UZId1U-99">
          <mxGeometry width="50" height="48" as="geometry" />
        </mxCell>
        <mxCell id="zCkMb1hAaJskj9UZId1U-106" style="edgeStyle=orthogonalEdgeStyle;orthogonalLoop=1;jettySize=auto;html=1;exitX=0.5;exitY=1;exitDx=0;exitDy=0;entryX=0.5;entryY=0;entryDx=0;entryDy=0;fontSize=14;fontColor=#000000;startArrow=classic;startFill=1;endArrow=classic;endFill=1;" edge="1" parent="VDne253Xe865EOl9DDsy-34" source="zCkMb1hAaJskj9UZId1U-21" target="zCkMb1hAaJskj9UZId1U-100">
          <mxGeometry relative="1" as="geometry" />
        </mxCell>
        <mxCell id="VDne253Xe865EOl9DDsy-36" style="edgeStyle=orthogonalEdgeStyle;rounded=0;orthogonalLoop=1;jettySize=auto;html=1;exitX=0.5;exitY=1;exitDx=0;exitDy=0;entryX=0.5;entryY=0;entryDx=0;entryDy=0;fontSize=21;fontColor=#000000;startArrow=classic;startFill=1;endArrow=classic;endFill=1;strokeColor=#000000;strokeWidth=1;" edge="1" parent="zCkMb1hAaJskj9UZId1U-1" source="zCkMb1hAaJskj9UZId1U-30" target="zCkMb1hAaJskj9UZId1U-60">
          <mxGeometry relative="1" as="geometry" />
        </mxCell>
        <mxCell id="EVQcGmpFk6tgbp6EQ603-20" style="edgeStyle=orthogonalEdgeStyle;rounded=0;orthogonalLoop=1;jettySize=auto;html=1;entryX=0.5;entryY=0;entryDx=0;entryDy=0;fontSize=21;fontColor=#000000;startArrow=none;startFill=0;endArrow=classic;endFill=1;strokeColor=#000000;strokeWidth=1;dashed=1;" edge="1" parent="zCkMb1hAaJskj9UZId1U-1" source="EVQcGmpFk6tgbp6EQ603-19" target="zCkMb1hAaJskj9UZId1U-30">
          <mxGeometry relative="1" as="geometry" />
        </mxCell>
        <mxCell id="EVQcGmpFk6tgbp6EQ603-21" style="edgeStyle=orthogonalEdgeStyle;rounded=0;orthogonalLoop=1;jettySize=auto;html=1;entryX=0.5;entryY=0;entryDx=0;entryDy=0;fontSize=21;fontColor=#000000;startArrow=none;startFill=0;endArrow=classic;endFill=1;strokeColor=#000000;strokeWidth=1;dashed=1;" edge="1" parent="zCkMb1hAaJskj9UZId1U-1" source="EVQcGmpFk6tgbp6EQ603-19" target="EVQcGmpFk6tgbp6EQ603-1">
          <mxGeometry relative="1" as="geometry">
            <Array as="points">
              <mxPoint x="860" y="556" />
              <mxPoint x="927" y="556" />
            </Array>
          </mxGeometry>
        </mxCell>
        <mxCell id="EVQcGmpFk6tgbp6EQ603-19" value="" style="rounded=0;whiteSpace=wrap;html=1;dashed=1;fontSize=21;fillColor=none;strokeColor=#FFD966;" vertex="1" parent="zCkMb1hAaJskj9UZId1U-1">
          <mxGeometry x="639" y="310" width="341" height="191" as="geometry" />
        </mxCell>
      </root>
    </mxGraphModel>
  </diagram>
  <diagram id="uBPuXGcApCvnMFuGUKA1" name="event-drivern-architecture">
    <mxGraphModel dx="2746" dy="1144" grid="1" gridSize="10" guides="1" tooltips="1" connect="1" arrows="1" fold="1" page="1" pageScale="1" pageWidth="827" pageHeight="1169" math="0" shadow="0">
      <root>
        <mxCell id="eEjrnXVuIz7GUkzHwPbY-0" />
        <mxCell id="eEjrnXVuIz7GUkzHwPbY-1" parent="eEjrnXVuIz7GUkzHwPbY-0" />
        <mxCell id="624VID5Y9qTYyMR2nqhV-0" value="" style="group;rounded=1;" vertex="1" connectable="0" parent="eEjrnXVuIz7GUkzHwPbY-1">
          <mxGeometry x="470" y="60" width="170" height="80" as="geometry" />
        </mxCell>
        <mxCell id="624VID5Y9qTYyMR2nqhV-1" value="" style="whiteSpace=wrap;html=1;fillColor=#dae8fc;strokeColor=#6c8ebf;rounded=1;" vertex="1" parent="624VID5Y9qTYyMR2nqhV-0">
          <mxGeometry x="20" y="20" width="150" height="60" as="geometry" />
        </mxCell>
        <mxCell id="624VID5Y9qTYyMR2nqhV-2" value="" style="html=1;dashed=0;whitespace=wrap;fillColor=#2875E2;strokeColor=#ffffff;points=[[0.005,0.63,0],[0.1,0.2,0],[0.9,0.2,0],[0.5,0,0],[0.995,0.63,0],[0.72,0.99,0],[0.5,1,0],[0.28,0.99,0]];shape=mxgraph.kubernetes.icon;prIcon=pod;rounded=1;" vertex="1" parent="624VID5Y9qTYyMR2nqhV-0">
          <mxGeometry width="50" height="48" as="geometry" />
        </mxCell>
        <mxCell id="624VID5Y9qTYyMR2nqhV-3" value="&lt;div style=&quot;font-size: 14px;&quot;&gt;&lt;b style=&quot;font-size: 14px;&quot;&gt;Frontend service&lt;/b&gt;&lt;/div&gt;" style="text;html=1;strokeColor=none;fillColor=none;align=center;verticalAlign=middle;whiteSpace=wrap;fontSize=14;rounded=1;" vertex="1" parent="624VID5Y9qTYyMR2nqhV-0">
          <mxGeometry x="25" y="30" width="140" height="40" as="geometry" />
        </mxCell>
        <mxCell id="624VID5Y9qTYyMR2nqhV-4" value="" style="group;rounded=1;" vertex="1" connectable="0" parent="eEjrnXVuIz7GUkzHwPbY-1">
          <mxGeometry x="100" y="360" width="170" height="80" as="geometry" />
        </mxCell>
        <mxCell id="624VID5Y9qTYyMR2nqhV-5" value="" style="whiteSpace=wrap;html=1;fillColor=#dae8fc;strokeColor=#6c8ebf;rounded=1;" vertex="1" parent="624VID5Y9qTYyMR2nqhV-4">
          <mxGeometry x="20" y="20" width="150" height="60" as="geometry" />
        </mxCell>
        <mxCell id="624VID5Y9qTYyMR2nqhV-6" value="" style="html=1;dashed=0;whitespace=wrap;fillColor=#2875E2;strokeColor=#ffffff;points=[[0.005,0.63,0],[0.1,0.2,0],[0.9,0.2,0],[0.5,0,0],[0.995,0.63,0],[0.72,0.99,0],[0.5,1,0],[0.28,0.99,0]];shape=mxgraph.kubernetes.icon;prIcon=pod;rounded=1;" vertex="1" parent="624VID5Y9qTYyMR2nqhV-4">
          <mxGeometry width="50" height="48" as="geometry" />
        </mxCell>
        <mxCell id="624VID5Y9qTYyMR2nqhV-7" value="&lt;div style=&quot;font-size: 14px&quot;&gt;&lt;b style=&quot;font-size: 14px&quot;&gt;Outcode service&lt;/b&gt;&lt;/div&gt;" style="text;html=1;strokeColor=none;fillColor=none;align=center;verticalAlign=middle;whiteSpace=wrap;fontSize=14;rounded=1;" vertex="1" parent="624VID5Y9qTYyMR2nqhV-4">
          <mxGeometry x="25" y="30" width="140" height="40" as="geometry" />
        </mxCell>
        <mxCell id="624VID5Y9qTYyMR2nqhV-8" value="" style="html=1;aspect=fixed;strokeColor=none;shadow=0;align=center;verticalAlign=top;fillColor=#3B8DF1;shape=mxgraph.gcp2.cloud_monitoring;fontSize=14;fontColor=#000000;rounded=1;" vertex="1" parent="624VID5Y9qTYyMR2nqhV-4">
          <mxGeometry x="150" y="60" width="18" height="20" as="geometry" />
        </mxCell>
        <mxCell id="624VID5Y9qTYyMR2nqhV-9" value="" style="group;rounded=1;" vertex="1" connectable="0" parent="eEjrnXVuIz7GUkzHwPbY-1">
          <mxGeometry x="290" y="360" width="170" height="80" as="geometry" />
        </mxCell>
        <mxCell id="624VID5Y9qTYyMR2nqhV-10" value="" style="whiteSpace=wrap;html=1;fillColor=#dae8fc;strokeColor=#6c8ebf;rounded=1;" vertex="1" parent="624VID5Y9qTYyMR2nqhV-9">
          <mxGeometry x="20" y="20" width="150" height="60" as="geometry" />
        </mxCell>
        <mxCell id="624VID5Y9qTYyMR2nqhV-11" value="" style="html=1;dashed=0;whitespace=wrap;fillColor=#2875E2;strokeColor=#ffffff;points=[[0.005,0.63,0],[0.1,0.2,0],[0.9,0.2,0],[0.5,0,0],[0.995,0.63,0],[0.72,0.99,0],[0.5,1,0],[0.28,0.99,0]];shape=mxgraph.kubernetes.icon;prIcon=pod;rounded=1;" vertex="1" parent="624VID5Y9qTYyMR2nqhV-9">
          <mxGeometry width="50" height="48" as="geometry" />
        </mxCell>
        <mxCell id="624VID5Y9qTYyMR2nqhV-12" value="&lt;div style=&quot;font-size: 14px&quot;&gt;&lt;b style=&quot;font-size: 14px&quot;&gt;Demand service&lt;/b&gt;&lt;/div&gt;" style="text;html=1;strokeColor=none;fillColor=none;align=center;verticalAlign=middle;whiteSpace=wrap;fontSize=14;rounded=1;" vertex="1" parent="624VID5Y9qTYyMR2nqhV-9">
          <mxGeometry x="25" y="30" width="140" height="40" as="geometry" />
        </mxCell>
        <mxCell id="624VID5Y9qTYyMR2nqhV-13" value="" style="group;rounded=1;" vertex="1" connectable="0" parent="eEjrnXVuIz7GUkzHwPbY-1">
          <mxGeometry x="480" y="360" width="170" height="80" as="geometry" />
        </mxCell>
        <mxCell id="624VID5Y9qTYyMR2nqhV-14" value="" style="whiteSpace=wrap;html=1;fillColor=#dae8fc;strokeColor=#6c8ebf;rounded=1;" vertex="1" parent="624VID5Y9qTYyMR2nqhV-13">
          <mxGeometry x="20" y="20" width="150" height="60" as="geometry" />
        </mxCell>
        <mxCell id="624VID5Y9qTYyMR2nqhV-15" value="" style="html=1;dashed=0;whitespace=wrap;fillColor=#2875E2;strokeColor=#ffffff;points=[[0.005,0.63,0],[0.1,0.2,0],[0.9,0.2,0],[0.5,0,0],[0.995,0.63,0],[0.72,0.99,0],[0.5,1,0],[0.28,0.99,0]];shape=mxgraph.kubernetes.icon;prIcon=pod;rounded=1;" vertex="1" parent="624VID5Y9qTYyMR2nqhV-13">
          <mxGeometry width="50" height="48" as="geometry" />
        </mxCell>
        <mxCell id="624VID5Y9qTYyMR2nqhV-16" value="&lt;div style=&quot;font-size: 14px&quot;&gt;&lt;b style=&quot;font-size: 14px&quot;&gt;Growth&lt;/b&gt;&lt;b&gt;&amp;nbsp;service&lt;/b&gt;&lt;/div&gt;" style="text;html=1;strokeColor=none;fillColor=none;align=center;verticalAlign=middle;whiteSpace=wrap;fontSize=14;rounded=1;" vertex="1" parent="624VID5Y9qTYyMR2nqhV-13">
          <mxGeometry x="25" y="30" width="140" height="40" as="geometry" />
        </mxCell>
        <mxCell id="624VID5Y9qTYyMR2nqhV-17" value="" style="html=1;aspect=fixed;strokeColor=none;shadow=0;align=center;verticalAlign=top;fillColor=#3B8DF1;shape=mxgraph.gcp2.cloud_monitoring;fontSize=14;fontColor=#000000;rounded=1;" vertex="1" parent="624VID5Y9qTYyMR2nqhV-13">
          <mxGeometry x="150" y="60" width="18" height="20" as="geometry" />
        </mxCell>
        <mxCell id="624VID5Y9qTYyMR2nqhV-18" value="" style="group;rounded=1;" vertex="1" connectable="0" parent="eEjrnXVuIz7GUkzHwPbY-1">
          <mxGeometry x="670" y="360" width="170" height="80" as="geometry" />
        </mxCell>
        <mxCell id="624VID5Y9qTYyMR2nqhV-19" value="" style="whiteSpace=wrap;html=1;fillColor=#dae8fc;strokeColor=#6c8ebf;rounded=1;" vertex="1" parent="624VID5Y9qTYyMR2nqhV-18">
          <mxGeometry x="20" y="20" width="150" height="60" as="geometry" />
        </mxCell>
        <mxCell id="624VID5Y9qTYyMR2nqhV-20" value="" style="html=1;dashed=0;whitespace=wrap;fillColor=#2875E2;strokeColor=#ffffff;points=[[0.005,0.63,0],[0.1,0.2,0],[0.9,0.2,0],[0.5,0,0],[0.995,0.63,0],[0.72,0.99,0],[0.5,1,0],[0.28,0.99,0]];shape=mxgraph.kubernetes.icon;prIcon=pod;rounded=1;" vertex="1" parent="624VID5Y9qTYyMR2nqhV-18">
          <mxGeometry width="50" height="48" as="geometry" />
        </mxCell>
        <mxCell id="624VID5Y9qTYyMR2nqhV-21" value="&lt;div style=&quot;font-size: 14px&quot;&gt;&lt;b style=&quot;font-size: 14px&quot;&gt;Transaction service&lt;/b&gt;&lt;/div&gt;" style="text;html=1;strokeColor=none;fillColor=none;align=center;verticalAlign=middle;whiteSpace=wrap;fontSize=14;rounded=1;" vertex="1" parent="624VID5Y9qTYyMR2nqhV-18">
          <mxGeometry x="25" y="30" width="140" height="40" as="geometry" />
        </mxCell>
        <mxCell id="624VID5Y9qTYyMR2nqhV-22" value="" style="html=1;aspect=fixed;strokeColor=none;shadow=0;align=center;verticalAlign=top;fillColor=#3B8DF1;shape=mxgraph.gcp2.cloud_monitoring;fontSize=14;fontColor=#000000;rounded=1;" vertex="1" parent="624VID5Y9qTYyMR2nqhV-18">
          <mxGeometry x="150" y="60" width="18" height="20" as="geometry" />
        </mxCell>
        <mxCell id="624VID5Y9qTYyMR2nqhV-23" value="" style="group;rounded=1;" vertex="1" connectable="0" parent="eEjrnXVuIz7GUkzHwPbY-1">
          <mxGeometry x="290" y="817" width="170" height="80" as="geometry" />
        </mxCell>
        <mxCell id="624VID5Y9qTYyMR2nqhV-24" value="" style="whiteSpace=wrap;html=1;fillColor=#dae8fc;strokeColor=#6c8ebf;rounded=1;" vertex="1" parent="624VID5Y9qTYyMR2nqhV-23">
          <mxGeometry x="20" y="20" width="150" height="60" as="geometry" />
        </mxCell>
        <mxCell id="624VID5Y9qTYyMR2nqhV-25" value="" style="html=1;dashed=0;whitespace=wrap;fillColor=#2875E2;strokeColor=#ffffff;points=[[0.005,0.63,0],[0.1,0.2,0],[0.9,0.2,0],[0.5,0,0],[0.995,0.63,0],[0.72,0.99,0],[0.5,1,0],[0.28,0.99,0]];shape=mxgraph.kubernetes.icon;prIcon=pod;rounded=1;" vertex="1" parent="624VID5Y9qTYyMR2nqhV-23">
          <mxGeometry width="50" height="48" as="geometry" />
        </mxCell>
        <mxCell id="624VID5Y9qTYyMR2nqhV-26" value="&lt;div style=&quot;font-size: 14px&quot;&gt;&lt;b style=&quot;font-size: 14px&quot;&gt;CRM service&lt;/b&gt;&lt;/div&gt;" style="text;html=1;strokeColor=none;fillColor=none;align=center;verticalAlign=middle;whiteSpace=wrap;fontSize=14;rounded=1;" vertex="1" parent="624VID5Y9qTYyMR2nqhV-23">
          <mxGeometry x="25" y="30" width="140" height="40" as="geometry" />
        </mxCell>
        <mxCell id="624VID5Y9qTYyMR2nqhV-27" value="" style="group;rounded=1;" vertex="1" connectable="0" parent="eEjrnXVuIz7GUkzHwPbY-1">
          <mxGeometry x="290" y="660" width="170" height="80" as="geometry" />
        </mxCell>
        <mxCell id="624VID5Y9qTYyMR2nqhV-28" value="" style="whiteSpace=wrap;html=1;fillColor=#dae8fc;strokeColor=#6c8ebf;rounded=1;" vertex="1" parent="624VID5Y9qTYyMR2nqhV-27">
          <mxGeometry x="20" y="20" width="150" height="60" as="geometry" />
        </mxCell>
        <mxCell id="624VID5Y9qTYyMR2nqhV-29" value="" style="html=1;dashed=0;whitespace=wrap;fillColor=#2875E2;strokeColor=#ffffff;points=[[0.005,0.63,0],[0.1,0.2,0],[0.9,0.2,0],[0.5,0,0],[0.995,0.63,0],[0.72,0.99,0],[0.5,1,0],[0.28,0.99,0]];shape=mxgraph.kubernetes.icon;prIcon=pod;rounded=1;" vertex="1" parent="624VID5Y9qTYyMR2nqhV-27">
          <mxGeometry width="50" height="48" as="geometry" />
        </mxCell>
        <mxCell id="624VID5Y9qTYyMR2nqhV-30" value="&lt;div style=&quot;font-size: 14px&quot;&gt;&lt;b style=&quot;font-size: 14px&quot;&gt;Email service&lt;/b&gt;&lt;/div&gt;" style="text;html=1;strokeColor=none;fillColor=none;align=center;verticalAlign=middle;whiteSpace=wrap;fontSize=14;rounded=1;" vertex="1" parent="624VID5Y9qTYyMR2nqhV-27">
          <mxGeometry x="25" y="30" width="140" height="40" as="geometry" />
        </mxCell>
        <mxCell id="624VID5Y9qTYyMR2nqhV-31" value="" style="group;rounded=1;" vertex="1" connectable="0" parent="eEjrnXVuIz7GUkzHwPbY-1">
          <mxGeometry x="870" y="360" width="190" height="80" as="geometry" />
        </mxCell>
        <mxCell id="624VID5Y9qTYyMR2nqhV-32" value="" style="whiteSpace=wrap;html=1;fillColor=#dae8fc;strokeColor=#6c8ebf;rounded=1;" vertex="1" parent="624VID5Y9qTYyMR2nqhV-31">
          <mxGeometry x="20" y="20" width="150" height="60" as="geometry" />
        </mxCell>
        <mxCell id="624VID5Y9qTYyMR2nqhV-33" value="" style="html=1;dashed=0;whitespace=wrap;fillColor=#2875E2;strokeColor=#ffffff;points=[[0.005,0.63,0],[0.1,0.2,0],[0.9,0.2,0],[0.5,0,0],[0.995,0.63,0],[0.72,0.99,0],[0.5,1,0],[0.28,0.99,0]];shape=mxgraph.kubernetes.icon;prIcon=pod;rounded=1;" vertex="1" parent="624VID5Y9qTYyMR2nqhV-31">
          <mxGeometry width="50" height="48" as="geometry" />
        </mxCell>
        <mxCell id="624VID5Y9qTYyMR2nqhV-34" value="&lt;div style=&quot;font-size: 14px&quot;&gt;&lt;b style=&quot;font-size: 14px&quot;&gt;Postcodes service&lt;/b&gt;&lt;/div&gt;" style="text;html=1;strokeColor=none;fillColor=none;align=center;verticalAlign=middle;whiteSpace=wrap;fontSize=14;rounded=1;" vertex="1" parent="624VID5Y9qTYyMR2nqhV-31">
          <mxGeometry x="25" y="30" width="140" height="40" as="geometry" />
        </mxCell>
        <mxCell id="624VID5Y9qTYyMR2nqhV-35" style="edgeStyle=orthogonalEdgeStyle;orthogonalLoop=1;jettySize=auto;html=1;entryX=0.5;entryY=0;entryDx=0;entryDy=0;fontSize=14;fontColor=#000000;horizontal=0;startArrow=classic;startFill=1;" edge="1" parent="eEjrnXVuIz7GUkzHwPbY-1">
          <mxGeometry relative="1" as="geometry">
            <mxPoint x="565" y="140" as="sourcePoint" />
            <mxPoint x="190" y="240" as="targetPoint" />
            <Array as="points">
              <mxPoint x="565" y="140" />
              <mxPoint x="565" y="190" />
              <mxPoint x="190" y="190" />
            </Array>
          </mxGeometry>
        </mxCell>
        <mxCell id="624VID5Y9qTYyMR2nqhV-36" style="edgeStyle=orthogonalEdgeStyle;orthogonalLoop=1;jettySize=auto;html=1;exitX=0.5;exitY=1;exitDx=0;exitDy=0;entryX=0.5;entryY=0;entryDx=0;entryDy=0;fontSize=14;fontColor=#000000;" edge="1" parent="eEjrnXVuIz7GUkzHwPbY-1" source="624VID5Y9qTYyMR2nqhV-1" target="624VID5Y9qTYyMR2nqhV-10">
          <mxGeometry relative="1" as="geometry" />
        </mxCell>
        <mxCell id="624VID5Y9qTYyMR2nqhV-37" style="edgeStyle=orthogonalEdgeStyle;orthogonalLoop=1;jettySize=auto;html=1;exitX=0.5;exitY=1;exitDx=0;exitDy=0;entryX=0.5;entryY=0;entryDx=0;entryDy=0;fontSize=14;fontColor=#000000;" edge="1" parent="eEjrnXVuIz7GUkzHwPbY-1" source="624VID5Y9qTYyMR2nqhV-1" target="624VID5Y9qTYyMR2nqhV-14">
          <mxGeometry relative="1" as="geometry" />
        </mxCell>
        <mxCell id="624VID5Y9qTYyMR2nqhV-38" style="edgeStyle=orthogonalEdgeStyle;orthogonalLoop=1;jettySize=auto;html=1;exitX=0.5;exitY=1;exitDx=0;exitDy=0;entryX=0.5;entryY=0;entryDx=0;entryDy=0;fontSize=14;fontColor=#000000;" edge="1" parent="eEjrnXVuIz7GUkzHwPbY-1" source="624VID5Y9qTYyMR2nqhV-1" target="624VID5Y9qTYyMR2nqhV-19">
          <mxGeometry relative="1" as="geometry" />
        </mxCell>
        <mxCell id="624VID5Y9qTYyMR2nqhV-39" style="edgeStyle=orthogonalEdgeStyle;orthogonalLoop=1;jettySize=auto;html=1;exitX=0.5;exitY=1;exitDx=0;exitDy=0;entryX=0.5;entryY=0;entryDx=0;entryDy=0;fontSize=14;fontColor=#000000;startArrow=classic;startFill=1;" edge="1" parent="eEjrnXVuIz7GUkzHwPbY-1" source="624VID5Y9qTYyMR2nqhV-5" target="624VID5Y9qTYyMR2nqhV-85">
          <mxGeometry relative="1" as="geometry">
            <mxPoint x="195" y="480" as="targetPoint" />
          </mxGeometry>
        </mxCell>
        <mxCell id="624VID5Y9qTYyMR2nqhV-44" style="edgeStyle=orthogonalEdgeStyle;orthogonalLoop=1;jettySize=auto;html=1;exitX=1;exitY=0.5;exitDx=0;exitDy=0;exitPerimeter=0;fontSize=14;fontColor=#000000;startArrow=classic;startFill=1;endArrow=none;endFill=0;dashed=1;" edge="1" parent="eEjrnXVuIz7GUkzHwPbY-1" source="624VID5Y9qTYyMR2nqhV-45">
          <mxGeometry relative="1" as="geometry">
            <mxPoint x="310" y="710" as="targetPoint" />
          </mxGeometry>
        </mxCell>
        <mxCell id="624VID5Y9qTYyMR2nqhV-45" value="" style="verticalLabelPosition=bottom;html=1;verticalAlign=top;align=center;strokeColor=none;shape=mxgraph.azure.storage_queue;fontSize=14;fontColor=#000000;fillColor=#2875E2;rounded=1;" vertex="1" parent="eEjrnXVuIz7GUkzHwPbY-1">
          <mxGeometry x="200" y="687.5" width="50" height="45" as="geometry" />
        </mxCell>
        <mxCell id="624VID5Y9qTYyMR2nqhV-46" value="" style="verticalLabelPosition=bottom;html=1;verticalAlign=top;align=center;strokeColor=none;shape=mxgraph.azure.storage_queue;fontSize=14;fontColor=#000000;fillColor=#2875E2;rounded=1;" vertex="1" parent="eEjrnXVuIz7GUkzHwPbY-1">
          <mxGeometry x="200" y="845" width="50" height="45" as="geometry" />
        </mxCell>
        <mxCell id="624VID5Y9qTYyMR2nqhV-47" style="edgeStyle=orthogonalEdgeStyle;orthogonalLoop=1;jettySize=auto;html=1;entryX=0;entryY=0.5;entryDx=0;entryDy=0;entryPerimeter=0;fontSize=14;fontColor=#000000;startArrow=none;startFill=0;endArrow=classic;endFill=1;" edge="1" parent="eEjrnXVuIz7GUkzHwPbY-1" target="624VID5Y9qTYyMR2nqhV-45">
          <mxGeometry relative="1" as="geometry">
            <mxPoint x="130" y="770" as="sourcePoint" />
          </mxGeometry>
        </mxCell>
        <mxCell id="624VID5Y9qTYyMR2nqhV-48" style="edgeStyle=orthogonalEdgeStyle;orthogonalLoop=1;jettySize=auto;html=1;exitX=0.5;exitY=1;exitDx=0;exitDy=0;entryX=0.5;entryY=0;entryDx=0;entryDy=0;fontSize=14;fontColor=#000000;" edge="1" parent="eEjrnXVuIz7GUkzHwPbY-1" source="624VID5Y9qTYyMR2nqhV-1" target="624VID5Y9qTYyMR2nqhV-32">
          <mxGeometry relative="1" as="geometry">
            <mxPoint x="485" y="150" as="sourcePoint" />
            <mxPoint x="765" y="250" as="targetPoint" />
            <Array as="points">
              <mxPoint x="565" y="190" />
              <mxPoint x="955" y="190" />
            </Array>
          </mxGeometry>
        </mxCell>
        <mxCell id="624VID5Y9qTYyMR2nqhV-49" value="" style="group;rounded=1;" vertex="1" connectable="0" parent="eEjrnXVuIz7GUkzHwPbY-1">
          <mxGeometry x="1090" y="360" width="170" height="80" as="geometry" />
        </mxCell>
        <mxCell id="624VID5Y9qTYyMR2nqhV-50" value="" style="whiteSpace=wrap;html=1;fillColor=#dae8fc;strokeColor=#6c8ebf;rounded=1;" vertex="1" parent="624VID5Y9qTYyMR2nqhV-49">
          <mxGeometry x="20" y="20" width="150" height="60" as="geometry" />
        </mxCell>
        <mxCell id="624VID5Y9qTYyMR2nqhV-51" value="" style="html=1;dashed=0;whitespace=wrap;fillColor=#2875E2;strokeColor=#ffffff;points=[[0.005,0.63,0],[0.1,0.2,0],[0.9,0.2,0],[0.5,0,0],[0.995,0.63,0],[0.72,0.99,0],[0.5,1,0],[0.28,0.99,0]];shape=mxgraph.kubernetes.icon;prIcon=pod;rounded=1;" vertex="1" parent="624VID5Y9qTYyMR2nqhV-49">
          <mxGeometry width="50" height="48" as="geometry" />
        </mxCell>
        <mxCell id="624VID5Y9qTYyMR2nqhV-52" value="&lt;div style=&quot;font-size: 14px&quot;&gt;&lt;b style=&quot;font-size: 14px&quot;&gt;Search service&lt;/b&gt;&lt;/div&gt;" style="text;html=1;strokeColor=none;fillColor=none;align=center;verticalAlign=middle;whiteSpace=wrap;fontSize=14;rounded=1;" vertex="1" parent="624VID5Y9qTYyMR2nqhV-49">
          <mxGeometry x="25" y="30" width="140" height="40" as="geometry" />
        </mxCell>
        <mxCell id="624VID5Y9qTYyMR2nqhV-53" value="" style="html=1;aspect=fixed;strokeColor=none;shadow=0;align=center;verticalAlign=top;fillColor=#3B8DF1;shape=mxgraph.gcp2.cloud_monitoring;fontSize=14;fontColor=#000000;rounded=1;" vertex="1" parent="624VID5Y9qTYyMR2nqhV-49">
          <mxGeometry x="150" y="60" width="18" height="20" as="geometry" />
        </mxCell>
        <mxCell id="624VID5Y9qTYyMR2nqhV-54" style="edgeStyle=orthogonalEdgeStyle;orthogonalLoop=1;jettySize=auto;html=1;entryX=0.5;entryY=0;entryDx=0;entryDy=0;fontSize=14;fontColor=#000000;" edge="1" parent="eEjrnXVuIz7GUkzHwPbY-1">
          <mxGeometry relative="1" as="geometry">
            <mxPoint x="565" y="140" as="sourcePoint" />
            <mxPoint x="1180" y="240" as="targetPoint" />
            <Array as="points">
              <mxPoint x="565" y="150" />
              <mxPoint x="565" y="190" />
              <mxPoint x="1180" y="190" />
            </Array>
          </mxGeometry>
        </mxCell>
        <mxCell id="624VID5Y9qTYyMR2nqhV-55" value="" style="edgeStyle=orthogonalEdgeStyle;orthogonalLoop=1;jettySize=auto;html=1;fontSize=14;fontColor=#000000;startArrow=classic;startFill=1;endArrow=classic;endFill=1;entryX=0.5;entryY=0;entryDx=0;entryDy=0;" edge="1" parent="eEjrnXVuIz7GUkzHwPbY-1" target="624VID5Y9qTYyMR2nqhV-106">
          <mxGeometry relative="1" as="geometry">
            <mxPoint x="1185" y="440" as="sourcePoint" />
          </mxGeometry>
        </mxCell>
        <mxCell id="624VID5Y9qTYyMR2nqhV-56" value="" style="edgeStyle=orthogonalEdgeStyle;orthogonalLoop=1;jettySize=auto;html=1;fontSize=14;fontColor=#000000;startArrow=classic;startFill=1;endArrow=classic;endFill=1;entryX=0;entryY=0.5;entryDx=0;entryDy=0;" edge="1" parent="eEjrnXVuIz7GUkzHwPbY-1" source="624VID5Y9qTYyMR2nqhV-28" target="624VID5Y9qTYyMR2nqhV-58">
          <mxGeometry relative="1" as="geometry" />
        </mxCell>
        <mxCell id="624VID5Y9qTYyMR2nqhV-57" value="" style="group;rounded=1;" vertex="1" connectable="0" parent="eEjrnXVuIz7GUkzHwPbY-1">
          <mxGeometry x="510" y="660" width="170" height="80" as="geometry" />
        </mxCell>
        <mxCell id="624VID5Y9qTYyMR2nqhV-58" value="" style="whiteSpace=wrap;html=1;fillColor=#f8cecc;strokeColor=#b85450;rounded=1;" vertex="1" parent="624VID5Y9qTYyMR2nqhV-57">
          <mxGeometry x="20" y="20" width="150" height="60" as="geometry" />
        </mxCell>
        <mxCell id="624VID5Y9qTYyMR2nqhV-59" value="&lt;div style=&quot;font-size: 14px&quot;&gt;&lt;b style=&quot;font-size: 14px&quot;&gt;Sendgrid&amp;nbsp;&lt;/b&gt;&lt;/div&gt;" style="text;html=1;strokeColor=none;fillColor=none;align=center;verticalAlign=middle;whiteSpace=wrap;fontSize=14;rounded=1;" vertex="1" parent="624VID5Y9qTYyMR2nqhV-57">
          <mxGeometry x="25" y="30" width="140" height="40" as="geometry" />
        </mxCell>
        <mxCell id="624VID5Y9qTYyMR2nqhV-60" value="" style="html=1;dashed=0;whitespace=wrap;fillColor=#2875E2;strokeColor=#ffffff;points=[[0.005,0.63,0],[0.1,0.2,0],[0.9,0.2,0],[0.5,0,0],[0.995,0.63,0],[0.72,0.99,0],[0.5,1,0],[0.28,0.99,0]];shape=mxgraph.kubernetes.icon;prIcon=api;fontSize=14;fontColor=#000000;rounded=1;" vertex="1" parent="624VID5Y9qTYyMR2nqhV-57">
          <mxGeometry width="50" height="48" as="geometry" />
        </mxCell>
        <mxCell id="624VID5Y9qTYyMR2nqhV-61" value="" style="group;rounded=1;" vertex="1" connectable="0" parent="eEjrnXVuIz7GUkzHwPbY-1">
          <mxGeometry x="510" y="817" width="170" height="80" as="geometry" />
        </mxCell>
        <mxCell id="624VID5Y9qTYyMR2nqhV-62" value="" style="whiteSpace=wrap;html=1;fillColor=#f8cecc;strokeColor=#b85450;rounded=1;" vertex="1" parent="624VID5Y9qTYyMR2nqhV-61">
          <mxGeometry x="20" y="20" width="150" height="60" as="geometry" />
        </mxCell>
        <mxCell id="624VID5Y9qTYyMR2nqhV-63" value="&lt;div style=&quot;font-size: 14px&quot;&gt;&lt;b style=&quot;font-size: 14px&quot;&gt;Podio&lt;/b&gt;&lt;/div&gt;" style="text;html=1;strokeColor=none;fillColor=none;align=center;verticalAlign=middle;whiteSpace=wrap;fontSize=14;rounded=1;" vertex="1" parent="624VID5Y9qTYyMR2nqhV-61">
          <mxGeometry x="25" y="30" width="140" height="40" as="geometry" />
        </mxCell>
        <mxCell id="624VID5Y9qTYyMR2nqhV-64" value="" style="html=1;dashed=0;whitespace=wrap;fillColor=#2875E2;strokeColor=#ffffff;points=[[0.005,0.63,0],[0.1,0.2,0],[0.9,0.2,0],[0.5,0,0],[0.995,0.63,0],[0.72,0.99,0],[0.5,1,0],[0.28,0.99,0]];shape=mxgraph.kubernetes.icon;prIcon=api;fontSize=14;fontColor=#000000;rounded=1;" vertex="1" parent="624VID5Y9qTYyMR2nqhV-61">
          <mxGeometry width="50" height="48" as="geometry" />
        </mxCell>
        <mxCell id="624VID5Y9qTYyMR2nqhV-65" style="edgeStyle=orthogonalEdgeStyle;orthogonalLoop=1;jettySize=auto;html=1;exitX=1;exitY=0.5;exitDx=0;exitDy=0;entryX=0;entryY=0.5;entryDx=0;entryDy=0;fontSize=14;fontColor=#000000;startArrow=classic;startFill=1;endArrow=classic;endFill=1;" edge="1" parent="eEjrnXVuIz7GUkzHwPbY-1" source="624VID5Y9qTYyMR2nqhV-24" target="624VID5Y9qTYyMR2nqhV-62">
          <mxGeometry relative="1" as="geometry" />
        </mxCell>
        <mxCell id="624VID5Y9qTYyMR2nqhV-66" style="edgeStyle=orthogonalEdgeStyle;orthogonalLoop=1;jettySize=auto;html=1;exitX=1;exitY=0.75;exitDx=0;exitDy=0;entryX=0;entryY=0.5;entryDx=0;entryDy=0;entryPerimeter=0;fontSize=14;fontColor=#000000;startArrow=none;startFill=0;endArrow=classic;endFill=1;" edge="1" parent="eEjrnXVuIz7GUkzHwPbY-1" target="624VID5Y9qTYyMR2nqhV-46">
          <mxGeometry relative="1" as="geometry">
            <mxPoint x="130" y="795" as="sourcePoint" />
          </mxGeometry>
        </mxCell>
        <mxCell id="624VID5Y9qTYyMR2nqhV-67" value="" style="group;rounded=1;" vertex="1" connectable="0" parent="eEjrnXVuIz7GUkzHwPbY-1">
          <mxGeometry x="730" y="60" width="170" height="80" as="geometry" />
        </mxCell>
        <mxCell id="624VID5Y9qTYyMR2nqhV-68" value="" style="whiteSpace=wrap;html=1;fillColor=#f8cecc;strokeColor=#b85450;rounded=1;" vertex="1" parent="624VID5Y9qTYyMR2nqhV-67">
          <mxGeometry x="20" y="20" width="150" height="60" as="geometry" />
        </mxCell>
        <mxCell id="624VID5Y9qTYyMR2nqhV-69" value="&lt;div style=&quot;font-size: 14px&quot;&gt;&lt;b style=&quot;font-size: 14px&quot;&gt;Google Places&lt;/b&gt;&lt;/div&gt;" style="text;html=1;strokeColor=none;fillColor=none;align=center;verticalAlign=middle;whiteSpace=wrap;fontSize=14;rounded=1;" vertex="1" parent="624VID5Y9qTYyMR2nqhV-67">
          <mxGeometry x="25" y="30" width="140" height="40" as="geometry" />
        </mxCell>
        <mxCell id="624VID5Y9qTYyMR2nqhV-70" value="" style="html=1;dashed=0;whitespace=wrap;fillColor=#2875E2;strokeColor=#ffffff;points=[[0.005,0.63,0],[0.1,0.2,0],[0.9,0.2,0],[0.5,0,0],[0.995,0.63,0],[0.72,0.99,0],[0.5,1,0],[0.28,0.99,0]];shape=mxgraph.kubernetes.icon;prIcon=api;fontSize=14;fontColor=#000000;rounded=1;" vertex="1" parent="624VID5Y9qTYyMR2nqhV-67">
          <mxGeometry width="50" height="48" as="geometry" />
        </mxCell>
        <mxCell id="624VID5Y9qTYyMR2nqhV-71" style="edgeStyle=orthogonalEdgeStyle;orthogonalLoop=1;jettySize=auto;html=1;exitX=1;exitY=0.5;exitDx=0;exitDy=0;entryX=0;entryY=0.5;entryDx=0;entryDy=0;fontSize=14;fontColor=#000000;startArrow=classic;startFill=1;endArrow=classic;endFill=1;" edge="1" parent="eEjrnXVuIz7GUkzHwPbY-1" source="624VID5Y9qTYyMR2nqhV-1" target="624VID5Y9qTYyMR2nqhV-68">
          <mxGeometry relative="1" as="geometry" />
        </mxCell>
        <mxCell id="624VID5Y9qTYyMR2nqhV-72" value="" style="edgeStyle=orthogonalEdgeStyle;orthogonalLoop=1;jettySize=auto;html=1;fontSize=14;fontColor=#000000;startArrow=classic;startFill=1;endArrow=classic;endFill=1;" edge="1" parent="eEjrnXVuIz7GUkzHwPbY-1" source="624VID5Y9qTYyMR2nqhV-12" target="624VID5Y9qTYyMR2nqhV-7">
          <mxGeometry relative="1" as="geometry" />
        </mxCell>
        <mxCell id="624VID5Y9qTYyMR2nqhV-73" value="" style="group;rounded=1;" vertex="1" connectable="0" parent="eEjrnXVuIz7GUkzHwPbY-1">
          <mxGeometry x="-90" y="360" width="170" height="80" as="geometry" />
        </mxCell>
        <mxCell id="624VID5Y9qTYyMR2nqhV-74" value="" style="whiteSpace=wrap;html=1;fillColor=#dae8fc;strokeColor=#6c8ebf;rounded=1;" vertex="1" parent="624VID5Y9qTYyMR2nqhV-73">
          <mxGeometry x="20" y="20" width="150" height="60" as="geometry" />
        </mxCell>
        <mxCell id="624VID5Y9qTYyMR2nqhV-75" value="" style="html=1;dashed=0;whitespace=wrap;fillColor=#2875E2;strokeColor=#ffffff;points=[[0.005,0.63,0],[0.1,0.2,0],[0.9,0.2,0],[0.5,0,0],[0.995,0.63,0],[0.72,0.99,0],[0.5,1,0],[0.28,0.99,0]];shape=mxgraph.kubernetes.icon;prIcon=pod;rounded=1;" vertex="1" parent="624VID5Y9qTYyMR2nqhV-73">
          <mxGeometry width="50" height="48" as="geometry" />
        </mxCell>
        <mxCell id="624VID5Y9qTYyMR2nqhV-76" value="&lt;div style=&quot;font-size: 14px&quot;&gt;&lt;b style=&quot;font-size: 14px&quot;&gt;Yield service&lt;/b&gt;&lt;/div&gt;" style="text;html=1;strokeColor=none;fillColor=none;align=center;verticalAlign=middle;whiteSpace=wrap;fontSize=14;rounded=1;" vertex="1" parent="624VID5Y9qTYyMR2nqhV-73">
          <mxGeometry x="25" y="30" width="140" height="40" as="geometry" />
        </mxCell>
        <mxCell id="624VID5Y9qTYyMR2nqhV-77" value="" style="html=1;aspect=fixed;strokeColor=none;shadow=0;align=center;verticalAlign=top;fillColor=#3B8DF1;shape=mxgraph.gcp2.cloud_monitoring;fontSize=14;fontColor=#000000;rounded=1;" vertex="1" parent="624VID5Y9qTYyMR2nqhV-73">
          <mxGeometry x="150" y="60" width="18" height="20" as="geometry" />
        </mxCell>
        <mxCell id="624VID5Y9qTYyMR2nqhV-78" style="edgeStyle=orthogonalEdgeStyle;orthogonalLoop=1;jettySize=auto;html=1;entryX=0.5;entryY=0;entryDx=0;entryDy=0;fontSize=14;fontColor=#000000;horizontal=0;startArrow=classic;startFill=1;exitX=0.5;exitY=1;exitDx=0;exitDy=0;" edge="1" parent="eEjrnXVuIz7GUkzHwPbY-1" source="624VID5Y9qTYyMR2nqhV-1" target="624VID5Y9qTYyMR2nqhV-74">
          <mxGeometry relative="1" as="geometry">
            <mxPoint x="575" y="150" as="sourcePoint" />
            <mxPoint x="200" y="250" as="targetPoint" />
            <Array as="points">
              <mxPoint x="565" y="190" />
              <mxPoint x="-5" y="190" />
            </Array>
          </mxGeometry>
        </mxCell>
        <mxCell id="624VID5Y9qTYyMR2nqhV-79" style="edgeStyle=orthogonalEdgeStyle;orthogonalLoop=1;jettySize=auto;html=1;exitX=1;exitY=0.5;exitDx=0;exitDy=0;entryX=0;entryY=0.5;entryDx=0;entryDy=0;fontSize=14;fontColor=#000000;startArrow=classic;startFill=1;endArrow=classic;endFill=1;" edge="1" parent="eEjrnXVuIz7GUkzHwPbY-1" source="624VID5Y9qTYyMR2nqhV-76" target="624VID5Y9qTYyMR2nqhV-5">
          <mxGeometry relative="1" as="geometry" />
        </mxCell>
        <mxCell id="624VID5Y9qTYyMR2nqhV-80" value="" style="group;rounded=1;" vertex="1" connectable="0" parent="eEjrnXVuIz7GUkzHwPbY-1">
          <mxGeometry x="-90" y="490" width="170" height="80" as="geometry" />
        </mxCell>
        <mxCell id="624VID5Y9qTYyMR2nqhV-81" value="" style="whiteSpace=wrap;html=1;fillColor=#f8cecc;strokeColor=#b85450;rounded=1;" vertex="1" parent="624VID5Y9qTYyMR2nqhV-80">
          <mxGeometry x="20" y="20" width="150" height="60" as="geometry" />
        </mxCell>
        <mxCell id="624VID5Y9qTYyMR2nqhV-82" value="&lt;div style=&quot;font-size: 14px&quot;&gt;&lt;b style=&quot;font-size: 14px&quot;&gt;PropertyData&lt;/b&gt;&lt;/div&gt;" style="text;html=1;strokeColor=none;fillColor=none;align=center;verticalAlign=middle;whiteSpace=wrap;fontSize=14;rounded=1;" vertex="1" parent="624VID5Y9qTYyMR2nqhV-80">
          <mxGeometry x="25" y="30" width="140" height="40" as="geometry" />
        </mxCell>
        <mxCell id="624VID5Y9qTYyMR2nqhV-83" value="" style="html=1;dashed=0;whitespace=wrap;fillColor=#2875E2;strokeColor=#ffffff;points=[[0.005,0.63,0],[0.1,0.2,0],[0.9,0.2,0],[0.5,0,0],[0.995,0.63,0],[0.72,0.99,0],[0.5,1,0],[0.28,0.99,0]];shape=mxgraph.kubernetes.icon;prIcon=api;fontSize=14;fontColor=#000000;rounded=1;" vertex="1" parent="624VID5Y9qTYyMR2nqhV-80">
          <mxGeometry width="50" height="48" as="geometry" />
        </mxCell>
        <mxCell id="624VID5Y9qTYyMR2nqhV-84" value="" style="group;rounded=1;" vertex="1" connectable="0" parent="eEjrnXVuIz7GUkzHwPbY-1">
          <mxGeometry x="100" y="490" width="170" height="80" as="geometry" />
        </mxCell>
        <mxCell id="624VID5Y9qTYyMR2nqhV-85" value="" style="whiteSpace=wrap;html=1;fillColor=#f8cecc;strokeColor=#b85450;rounded=1;" vertex="1" parent="624VID5Y9qTYyMR2nqhV-84">
          <mxGeometry x="20" y="20" width="150" height="60" as="geometry" />
        </mxCell>
        <mxCell id="624VID5Y9qTYyMR2nqhV-86" value="&lt;div style=&quot;font-size: 14px&quot;&gt;&lt;b&gt;PropertyData&lt;/b&gt;&lt;br&gt;&lt;/div&gt;" style="text;html=1;strokeColor=none;fillColor=none;align=center;verticalAlign=middle;whiteSpace=wrap;fontSize=14;rounded=1;" vertex="1" parent="624VID5Y9qTYyMR2nqhV-84">
          <mxGeometry x="25" y="30" width="140" height="40" as="geometry" />
        </mxCell>
        <mxCell id="624VID5Y9qTYyMR2nqhV-87" value="" style="html=1;dashed=0;whitespace=wrap;fillColor=#2875E2;strokeColor=#ffffff;points=[[0.005,0.63,0],[0.1,0.2,0],[0.9,0.2,0],[0.5,0,0],[0.995,0.63,0],[0.72,0.99,0],[0.5,1,0],[0.28,0.99,0]];shape=mxgraph.kubernetes.icon;prIcon=api;fontSize=14;fontColor=#000000;rounded=1;" vertex="1" parent="624VID5Y9qTYyMR2nqhV-84">
          <mxGeometry width="50" height="48" as="geometry" />
        </mxCell>
        <mxCell id="624VID5Y9qTYyMR2nqhV-89" value="" style="group;rounded=1;" vertex="1" connectable="0" parent="eEjrnXVuIz7GUkzHwPbY-1">
          <mxGeometry x="290" y="490" width="170" height="80" as="geometry" />
        </mxCell>
        <mxCell id="624VID5Y9qTYyMR2nqhV-90" value="" style="whiteSpace=wrap;html=1;fillColor=#f8cecc;strokeColor=#b85450;rounded=1;" vertex="1" parent="624VID5Y9qTYyMR2nqhV-89">
          <mxGeometry x="20" y="20" width="150" height="60" as="geometry" />
        </mxCell>
        <mxCell id="624VID5Y9qTYyMR2nqhV-91" value="&lt;div style=&quot;font-size: 14px&quot;&gt;&lt;b&gt;PropertyData&lt;/b&gt;&lt;br&gt;&lt;/div&gt;" style="text;html=1;strokeColor=none;fillColor=none;align=center;verticalAlign=middle;whiteSpace=wrap;fontSize=14;rounded=1;" vertex="1" parent="624VID5Y9qTYyMR2nqhV-89">
          <mxGeometry x="25" y="30" width="140" height="40" as="geometry" />
        </mxCell>
        <mxCell id="624VID5Y9qTYyMR2nqhV-92" value="" style="html=1;dashed=0;whitespace=wrap;fillColor=#2875E2;strokeColor=#ffffff;points=[[0.005,0.63,0],[0.1,0.2,0],[0.9,0.2,0],[0.5,0,0],[0.995,0.63,0],[0.72,0.99,0],[0.5,1,0],[0.28,0.99,0]];shape=mxgraph.kubernetes.icon;prIcon=api;fontSize=14;fontColor=#000000;rounded=1;" vertex="1" parent="624VID5Y9qTYyMR2nqhV-89">
          <mxGeometry width="50" height="48" as="geometry" />
        </mxCell>
        <mxCell id="624VID5Y9qTYyMR2nqhV-93" value="" style="group;rounded=1;" vertex="1" connectable="0" parent="eEjrnXVuIz7GUkzHwPbY-1">
          <mxGeometry x="480" y="490" width="170" height="80" as="geometry" />
        </mxCell>
        <mxCell id="624VID5Y9qTYyMR2nqhV-94" value="" style="whiteSpace=wrap;html=1;fillColor=#f8cecc;strokeColor=#b85450;rounded=1;" vertex="1" parent="624VID5Y9qTYyMR2nqhV-93">
          <mxGeometry x="20" y="20" width="150" height="60" as="geometry" />
        </mxCell>
        <mxCell id="624VID5Y9qTYyMR2nqhV-95" value="&lt;div style=&quot;font-size: 14px&quot;&gt;&lt;b&gt;PropertyData&lt;/b&gt;&lt;br&gt;&lt;/div&gt;" style="text;html=1;strokeColor=none;fillColor=none;align=center;verticalAlign=middle;whiteSpace=wrap;fontSize=14;rounded=1;" vertex="1" parent="624VID5Y9qTYyMR2nqhV-93">
          <mxGeometry x="25" y="30" width="140" height="40" as="geometry" />
        </mxCell>
        <mxCell id="624VID5Y9qTYyMR2nqhV-96" value="" style="html=1;dashed=0;whitespace=wrap;fillColor=#2875E2;strokeColor=#ffffff;points=[[0.005,0.63,0],[0.1,0.2,0],[0.9,0.2,0],[0.5,0,0],[0.995,0.63,0],[0.72,0.99,0],[0.5,1,0],[0.28,0.99,0]];shape=mxgraph.kubernetes.icon;prIcon=api;fontSize=14;fontColor=#000000;rounded=1;" vertex="1" parent="624VID5Y9qTYyMR2nqhV-93">
          <mxGeometry width="50" height="48" as="geometry" />
        </mxCell>
        <mxCell id="624VID5Y9qTYyMR2nqhV-97" value="" style="group;rounded=1;" vertex="1" connectable="0" parent="eEjrnXVuIz7GUkzHwPbY-1">
          <mxGeometry x="670" y="490" width="170" height="80" as="geometry" />
        </mxCell>
        <mxCell id="624VID5Y9qTYyMR2nqhV-98" value="" style="whiteSpace=wrap;html=1;fillColor=#f8cecc;strokeColor=#b85450;rounded=1;" vertex="1" parent="624VID5Y9qTYyMR2nqhV-97">
          <mxGeometry x="20" y="20" width="150" height="60" as="geometry" />
        </mxCell>
        <mxCell id="624VID5Y9qTYyMR2nqhV-99" value="&lt;div style=&quot;font-size: 14px&quot;&gt;&lt;b style=&quot;font-size: 14px&quot;&gt;Land Registry&lt;/b&gt;&lt;/div&gt;" style="text;html=1;strokeColor=none;fillColor=none;align=center;verticalAlign=middle;whiteSpace=wrap;fontSize=14;rounded=1;" vertex="1" parent="624VID5Y9qTYyMR2nqhV-97">
          <mxGeometry x="25" y="30" width="140" height="40" as="geometry" />
        </mxCell>
        <mxCell id="624VID5Y9qTYyMR2nqhV-100" value="" style="html=1;dashed=0;whitespace=wrap;fillColor=#2875E2;strokeColor=#ffffff;points=[[0.005,0.63,0],[0.1,0.2,0],[0.9,0.2,0],[0.5,0,0],[0.995,0.63,0],[0.72,0.99,0],[0.5,1,0],[0.28,0.99,0]];shape=mxgraph.kubernetes.icon;prIcon=api;fontSize=14;fontColor=#000000;rounded=1;" vertex="1" parent="624VID5Y9qTYyMR2nqhV-97">
          <mxGeometry width="50" height="48" as="geometry" />
        </mxCell>
        <mxCell id="624VID5Y9qTYyMR2nqhV-101" style="edgeStyle=orthogonalEdgeStyle;orthogonalLoop=1;jettySize=auto;html=1;exitX=0.5;exitY=1;exitDx=0;exitDy=0;entryX=0.5;entryY=0;entryDx=0;entryDy=0;fontSize=14;fontColor=#000000;startArrow=classic;startFill=1;endArrow=classic;endFill=1;" edge="1" parent="eEjrnXVuIz7GUkzHwPbY-1" source="624VID5Y9qTYyMR2nqhV-74" target="624VID5Y9qTYyMR2nqhV-81">
          <mxGeometry relative="1" as="geometry" />
        </mxCell>
        <mxCell id="624VID5Y9qTYyMR2nqhV-102" style="edgeStyle=orthogonalEdgeStyle;orthogonalLoop=1;jettySize=auto;html=1;exitX=0.5;exitY=1;exitDx=0;exitDy=0;fontSize=14;fontColor=#000000;startArrow=classic;startFill=1;endArrow=classic;endFill=1;" edge="1" parent="eEjrnXVuIz7GUkzHwPbY-1" source="624VID5Y9qTYyMR2nqhV-10" target="624VID5Y9qTYyMR2nqhV-90">
          <mxGeometry relative="1" as="geometry" />
        </mxCell>
        <mxCell id="624VID5Y9qTYyMR2nqhV-103" style="edgeStyle=orthogonalEdgeStyle;orthogonalLoop=1;jettySize=auto;html=1;exitX=0.5;exitY=1;exitDx=0;exitDy=0;entryX=0.5;entryY=0;entryDx=0;entryDy=0;fontSize=14;fontColor=#000000;startArrow=classic;startFill=1;endArrow=classic;endFill=1;" edge="1" parent="eEjrnXVuIz7GUkzHwPbY-1" source="624VID5Y9qTYyMR2nqhV-14" target="624VID5Y9qTYyMR2nqhV-94">
          <mxGeometry relative="1" as="geometry" />
        </mxCell>
        <mxCell id="624VID5Y9qTYyMR2nqhV-104" style="edgeStyle=orthogonalEdgeStyle;orthogonalLoop=1;jettySize=auto;html=1;exitX=0.5;exitY=1;exitDx=0;exitDy=0;entryX=0.5;entryY=0;entryDx=0;entryDy=0;fontSize=14;fontColor=#000000;startArrow=classic;startFill=1;endArrow=classic;endFill=1;" edge="1" parent="eEjrnXVuIz7GUkzHwPbY-1" source="624VID5Y9qTYyMR2nqhV-19" target="624VID5Y9qTYyMR2nqhV-98">
          <mxGeometry relative="1" as="geometry" />
        </mxCell>
        <mxCell id="624VID5Y9qTYyMR2nqhV-105" value="" style="group;rounded=1;" vertex="1" connectable="0" parent="eEjrnXVuIz7GUkzHwPbY-1">
          <mxGeometry x="1090" y="500" width="170" height="80" as="geometry" />
        </mxCell>
        <mxCell id="624VID5Y9qTYyMR2nqhV-106" value="" style="whiteSpace=wrap;html=1;fillColor=#f8cecc;strokeColor=#b85450;rounded=1;" vertex="1" parent="624VID5Y9qTYyMR2nqhV-105">
          <mxGeometry x="20" y="20" width="150" height="60" as="geometry" />
        </mxCell>
        <mxCell id="624VID5Y9qTYyMR2nqhV-107" value="&lt;div style=&quot;font-size: 14px&quot;&gt;&lt;b style=&quot;font-size: 14px&quot;&gt;Elastic Search&lt;/b&gt;&lt;/div&gt;" style="text;html=1;strokeColor=none;fillColor=none;align=center;verticalAlign=middle;whiteSpace=wrap;fontSize=14;rounded=1;" vertex="1" parent="624VID5Y9qTYyMR2nqhV-105">
          <mxGeometry x="25" y="30" width="140" height="40" as="geometry" />
        </mxCell>
        <mxCell id="624VID5Y9qTYyMR2nqhV-108" value="" style="html=1;dashed=0;whitespace=wrap;fillColor=#2875E2;strokeColor=#ffffff;points=[[0.005,0.63,0],[0.1,0.2,0],[0.9,0.2,0],[0.5,0,0],[0.995,0.63,0],[0.72,0.99,0],[0.5,1,0],[0.28,0.99,0]];shape=mxgraph.kubernetes.icon;prIcon=pv;fontSize=14;fontColor=#000000;rounded=1;" vertex="1" parent="624VID5Y9qTYyMR2nqhV-105">
          <mxGeometry x="-1" y="-5" width="50" height="48" as="geometry" />
        </mxCell>
        <mxCell id="624VID5Y9qTYyMR2nqhV-109" value="" style="html=1;aspect=fixed;strokeColor=none;shadow=0;align=center;verticalAlign=top;fillColor=#3B8DF1;shape=mxgraph.gcp2.cloud_monitoring;fontSize=14;fontColor=#000000;rounded=1;" vertex="1" parent="eEjrnXVuIz7GUkzHwPbY-1">
          <mxGeometry x="1020" y="420" width="18" height="20" as="geometry" />
        </mxCell>
        <mxCell id="624VID5Y9qTYyMR2nqhV-110" value="" style="html=1;aspect=fixed;strokeColor=none;shadow=0;align=center;verticalAlign=top;fillColor=#3B8DF1;shape=mxgraph.gcp2.cloud_monitoring;fontSize=14;fontColor=#000000;rounded=1;" vertex="1" parent="eEjrnXVuIz7GUkzHwPbY-1">
          <mxGeometry x="440" y="420" width="18" height="20" as="geometry" />
        </mxCell>
        <mxCell id="624VID5Y9qTYyMR2nqhV-111" value="" style="edgeStyle=orthogonalEdgeStyle;orthogonalLoop=1;jettySize=auto;html=1;dashed=1;fontSize=14;fontColor=#000000;startArrow=none;startFill=0;endArrow=classic;endFill=1;strokeWidth=1;" edge="1" parent="eEjrnXVuIz7GUkzHwPbY-1" source="624VID5Y9qTYyMR2nqhV-24" target="624VID5Y9qTYyMR2nqhV-46">
          <mxGeometry relative="1" as="geometry" />
        </mxCell>
        <mxCell id="624VID5Y9qTYyMR2nqhV-112" style="edgeStyle=orthogonalEdgeStyle;orthogonalLoop=1;jettySize=auto;html=1;exitX=0.75;exitY=1;exitDx=0;exitDy=0;entryX=0;entryY=0.5;entryDx=0;entryDy=0;fontSize=14;fontColor=#000000;startArrow=classic;startFill=1;endArrow=classic;endFill=1;strokeColor=#000000;strokeWidth=1;" edge="1" parent="eEjrnXVuIz7GUkzHwPbY-1" source="624VID5Y9qTYyMR2nqhV-10" target="624VID5Y9qTYyMR2nqhV-32">
          <mxGeometry relative="1" as="geometry">
            <Array as="points">
              <mxPoint x="423" y="460" />
              <mxPoint x="860" y="460" />
              <mxPoint x="860" y="410" />
            </Array>
          </mxGeometry>
        </mxCell>
        <mxCell id="624VID5Y9qTYyMR2nqhV-113" style="edgeStyle=orthogonalEdgeStyle;orthogonalLoop=1;jettySize=auto;html=1;exitX=0.75;exitY=1;exitDx=0;exitDy=0;entryX=0.5;entryY=1;entryDx=0;entryDy=0;fontSize=14;fontColor=#000000;startArrow=classic;startFill=1;endArrow=classic;endFill=1;strokeColor=#000000;strokeWidth=1;" edge="1" parent="eEjrnXVuIz7GUkzHwPbY-1" source="624VID5Y9qTYyMR2nqhV-74" target="624VID5Y9qTYyMR2nqhV-32">
          <mxGeometry relative="1" as="geometry">
            <Array as="points">
              <mxPoint x="43" y="470" />
              <mxPoint x="965" y="470" />
            </Array>
          </mxGeometry>
        </mxCell>
        <mxCell id="624VID5Y9qTYyMR2nqhV-114" value="" style="group;rounded=1;" vertex="1" connectable="0" parent="eEjrnXVuIz7GUkzHwPbY-1">
          <mxGeometry x="1300" y="360" width="170" height="80" as="geometry" />
        </mxCell>
        <mxCell id="624VID5Y9qTYyMR2nqhV-115" value="" style="whiteSpace=wrap;html=1;fillColor=#dae8fc;strokeColor=#6c8ebf;rounded=1;" vertex="1" parent="624VID5Y9qTYyMR2nqhV-114">
          <mxGeometry x="20" y="20" width="150" height="60" as="geometry" />
        </mxCell>
        <mxCell id="624VID5Y9qTYyMR2nqhV-116" value="" style="html=1;dashed=0;whitespace=wrap;fillColor=#2875E2;strokeColor=#ffffff;points=[[0.005,0.63,0],[0.1,0.2,0],[0.9,0.2,0],[0.5,0,0],[0.995,0.63,0],[0.72,0.99,0],[0.5,1,0],[0.28,0.99,0]];shape=mxgraph.kubernetes.icon;prIcon=pod;rounded=1;" vertex="1" parent="624VID5Y9qTYyMR2nqhV-114">
          <mxGeometry width="50" height="48" as="geometry" />
        </mxCell>
        <mxCell id="624VID5Y9qTYyMR2nqhV-117" value="&lt;div style=&quot;font-size: 14px&quot;&gt;&lt;b style=&quot;font-size: 14px&quot;&gt;Export service&lt;/b&gt;&lt;/div&gt;" style="text;html=1;strokeColor=none;fillColor=none;align=center;verticalAlign=middle;whiteSpace=wrap;fontSize=14;rounded=1;" vertex="1" parent="624VID5Y9qTYyMR2nqhV-114">
          <mxGeometry x="25" y="30" width="140" height="40" as="geometry" />
        </mxCell>
        <mxCell id="624VID5Y9qTYyMR2nqhV-118" value="" style="html=1;aspect=fixed;strokeColor=none;shadow=0;align=center;verticalAlign=top;fillColor=#3B8DF1;shape=mxgraph.gcp2.cloud_monitoring;fontSize=14;fontColor=#000000;rounded=1;" vertex="1" parent="624VID5Y9qTYyMR2nqhV-114">
          <mxGeometry x="150" y="60" width="18" height="20" as="geometry" />
        </mxCell>
        <mxCell id="624VID5Y9qTYyMR2nqhV-119" style="edgeStyle=orthogonalEdgeStyle;orthogonalLoop=1;jettySize=auto;html=1;exitX=0.5;exitY=1;exitDx=0;exitDy=0;entryX=1;entryY=0.5;entryDx=0;entryDy=0;fontSize=21;fontColor=#000000;startArrow=classic;startFill=1;endArrow=classic;endFill=1;strokeColor=#000000;strokeWidth=1;" edge="1" parent="eEjrnXVuIz7GUkzHwPbY-1" source="624VID5Y9qTYyMR2nqhV-115" target="624VID5Y9qTYyMR2nqhV-106">
          <mxGeometry relative="1" as="geometry" />
        </mxCell>
        <mxCell id="624VID5Y9qTYyMR2nqhV-120" value="" style="edgeStyle=orthogonalEdgeStyle;orthogonalLoop=1;jettySize=auto;html=1;fontSize=21;fontColor=#000000;startArrow=classic;startFill=1;endArrow=classic;endFill=1;strokeColor=#000000;strokeWidth=1;exitX=0.5;exitY=0;exitDx=0;exitDy=0;" edge="1" parent="eEjrnXVuIz7GUkzHwPbY-1" source="624VID5Y9qTYyMR2nqhV-122">
          <mxGeometry relative="1" as="geometry">
            <mxPoint x="1175.0588235294117" y="650" as="sourcePoint" />
            <mxPoint x="1175" y="580" as="targetPoint" />
          </mxGeometry>
        </mxCell>
        <mxCell id="624VID5Y9qTYyMR2nqhV-121" value="" style="group;rounded=1;" vertex="1" connectable="0" parent="eEjrnXVuIz7GUkzHwPbY-1">
          <mxGeometry x="1000" y="640" width="170" height="80" as="geometry" />
        </mxCell>
        <mxCell id="624VID5Y9qTYyMR2nqhV-122" value="" style="whiteSpace=wrap;html=1;fillColor=#f5f5f5;strokeColor=#666666;fontColor=#333333;rounded=1;" vertex="1" parent="624VID5Y9qTYyMR2nqhV-121">
          <mxGeometry x="20" y="20" width="150" height="60" as="geometry" />
        </mxCell>
        <mxCell id="624VID5Y9qTYyMR2nqhV-123" value="&lt;div style=&quot;font-size: 14px&quot;&gt;&lt;b style=&quot;font-size: 14px&quot;&gt;Data feed&lt;/b&gt;&lt;/div&gt;" style="text;html=1;strokeColor=none;fillColor=none;align=center;verticalAlign=middle;whiteSpace=wrap;fontSize=14;rounded=1;" vertex="1" parent="624VID5Y9qTYyMR2nqhV-121">
          <mxGeometry x="25" y="30" width="140" height="40" as="geometry" />
        </mxCell>
        <mxCell id="624VID5Y9qTYyMR2nqhV-124" value="" style="outlineConnect=0;dashed=0;verticalLabelPosition=bottom;verticalAlign=top;align=center;html=1;shape=mxgraph.aws3.data_pipeline;fillColor=#F58534;gradientColor=none;fontSize=21;fontColor=#000000;rounded=1;" vertex="1" parent="624VID5Y9qTYyMR2nqhV-121">
          <mxGeometry width="38.5" height="46.2" as="geometry" />
        </mxCell>
        <mxCell id="624VID5Y9qTYyMR2nqhV-125" value="" style="group;rounded=1;" vertex="1" connectable="0" parent="eEjrnXVuIz7GUkzHwPbY-1">
          <mxGeometry x="1220" y="640" width="170" height="80" as="geometry" />
        </mxCell>
        <mxCell id="624VID5Y9qTYyMR2nqhV-126" value="" style="whiteSpace=wrap;html=1;fillColor=#dae8fc;strokeColor=#6c8ebf;rounded=1;" vertex="1" parent="624VID5Y9qTYyMR2nqhV-125">
          <mxGeometry x="20" y="20" width="150" height="60" as="geometry" />
        </mxCell>
        <mxCell id="624VID5Y9qTYyMR2nqhV-127" value="&lt;div style=&quot;font-size: 14px&quot;&gt;&lt;b&gt;Data seed&lt;/b&gt;&lt;/div&gt;" style="text;html=1;strokeColor=none;fillColor=none;align=center;verticalAlign=middle;whiteSpace=wrap;fontSize=14;rounded=1;" vertex="1" parent="624VID5Y9qTYyMR2nqhV-125">
          <mxGeometry x="25" y="30" width="140" height="40" as="geometry" />
        </mxCell>
        <mxCell id="624VID5Y9qTYyMR2nqhV-128" value="" style="html=1;dashed=0;whitespace=wrap;fillColor=#2875E2;strokeColor=#ffffff;points=[[0.005,0.63,0],[0.1,0.2,0],[0.9,0.2,0],[0.5,0,0],[0.995,0.63,0],[0.72,0.99,0],[0.5,1,0],[0.28,0.99,0]];shape=mxgraph.kubernetes.icon;prIcon=sched;fontSize=21;fontColor=#000000;rounded=1;" vertex="1" parent="624VID5Y9qTYyMR2nqhV-125">
          <mxGeometry width="50" height="48" as="geometry" />
        </mxCell>
        <mxCell id="624VID5Y9qTYyMR2nqhV-129" style="edgeStyle=orthogonalEdgeStyle;orthogonalLoop=1;jettySize=auto;html=1;exitX=0.75;exitY=1;exitDx=0;exitDy=0;entryX=0.5;entryY=0;entryDx=0;entryDy=0;fontSize=21;fontColor=#000000;startArrow=classic;startFill=1;endArrow=classic;endFill=1;strokeColor=#000000;strokeWidth=1;" edge="1" parent="eEjrnXVuIz7GUkzHwPbY-1" source="624VID5Y9qTYyMR2nqhV-106" target="624VID5Y9qTYyMR2nqhV-126">
          <mxGeometry relative="1" as="geometry" />
        </mxCell>
        <mxCell id="624VID5Y9qTYyMR2nqhV-130" value="" style="group;rounded=1;" vertex="1" connectable="0" parent="eEjrnXVuIz7GUkzHwPbY-1">
          <mxGeometry x="1220" y="797" width="170" height="80" as="geometry" />
        </mxCell>
        <mxCell id="624VID5Y9qTYyMR2nqhV-131" value="" style="whiteSpace=wrap;html=1;fillColor=#f8cecc;strokeColor=#b85450;rounded=1;" vertex="1" parent="624VID5Y9qTYyMR2nqhV-130">
          <mxGeometry x="20" y="20" width="150" height="60" as="geometry" />
        </mxCell>
        <mxCell id="624VID5Y9qTYyMR2nqhV-132" value="&lt;div style=&quot;font-size: 14px&quot;&gt;&lt;b&gt;PropertyData&lt;/b&gt;&lt;/div&gt;" style="text;html=1;strokeColor=none;fillColor=none;align=center;verticalAlign=middle;whiteSpace=wrap;fontSize=14;rounded=1;" vertex="1" parent="624VID5Y9qTYyMR2nqhV-130">
          <mxGeometry x="25" y="30" width="140" height="40" as="geometry" />
        </mxCell>
        <mxCell id="624VID5Y9qTYyMR2nqhV-133" value="" style="html=1;dashed=0;whitespace=wrap;fillColor=#2875E2;strokeColor=#ffffff;points=[[0.005,0.63,0],[0.1,0.2,0],[0.9,0.2,0],[0.5,0,0],[0.995,0.63,0],[0.72,0.99,0],[0.5,1,0],[0.28,0.99,0]];shape=mxgraph.kubernetes.icon;prIcon=api;fontSize=14;fontColor=#000000;rounded=1;" vertex="1" parent="624VID5Y9qTYyMR2nqhV-130">
          <mxGeometry width="50" height="48" as="geometry" />
        </mxCell>
        <mxCell id="624VID5Y9qTYyMR2nqhV-134" value="" style="edgeStyle=orthogonalEdgeStyle;orthogonalLoop=1;jettySize=auto;html=1;fontSize=21;fontColor=#000000;startArrow=classic;startFill=1;endArrow=classic;endFill=1;strokeColor=#000000;strokeWidth=1;entryX=0.5;entryY=0;entryDx=0;entryDy=0;" edge="1" parent="eEjrnXVuIz7GUkzHwPbY-1" target="624VID5Y9qTYyMR2nqhV-131">
          <mxGeometry relative="1" as="geometry">
            <mxPoint x="1315" y="720" as="sourcePoint" />
            <mxPoint x="1315" y="810" as="targetPoint" />
          </mxGeometry>
        </mxCell>
        <mxCell id="624VID5Y9qTYyMR2nqhV-135" value="" style="group;rounded=1;" vertex="1" connectable="0" parent="eEjrnXVuIz7GUkzHwPbY-1">
          <mxGeometry x="1010" y="797" width="170" height="80" as="geometry" />
        </mxCell>
        <mxCell id="624VID5Y9qTYyMR2nqhV-136" value="" style="whiteSpace=wrap;html=1;fillColor=#f8cecc;strokeColor=#b85450;rounded=1;" vertex="1" parent="624VID5Y9qTYyMR2nqhV-135">
          <mxGeometry x="20" y="20" width="150" height="60" as="geometry" />
        </mxCell>
        <mxCell id="624VID5Y9qTYyMR2nqhV-137" value="&lt;div style=&quot;font-size: 14px&quot;&gt;&lt;b style=&quot;font-size: 14px&quot;&gt;Data export&lt;/b&gt;&lt;/div&gt;" style="text;html=1;strokeColor=none;fillColor=none;align=center;verticalAlign=middle;whiteSpace=wrap;fontSize=14;rounded=1;" vertex="1" parent="624VID5Y9qTYyMR2nqhV-135">
          <mxGeometry x="25" y="30" width="140" height="40" as="geometry" />
        </mxCell>
        <mxCell id="624VID5Y9qTYyMR2nqhV-138" value="" style="html=1;dashed=0;whitespace=wrap;fillColor=#2875E2;strokeColor=#ffffff;points=[[0.005,0.63,0],[0.1,0.2,0],[0.9,0.2,0],[0.5,0,0],[0.995,0.63,0],[0.72,0.99,0],[0.5,1,0],[0.28,0.99,0]];shape=mxgraph.kubernetes.icon;prIcon=api;fontSize=14;fontColor=#000000;rounded=1;" vertex="1" parent="624VID5Y9qTYyMR2nqhV-135">
          <mxGeometry width="50" height="48" as="geometry" />
        </mxCell>
      </root>
    </mxGraphModel>
  </diagram>
</mxfile>
